<?xml version="1.0" encoding="utf-8"?>
<!-- Generator: Adobe Illustrator 19.1.0, SVG Export Plug-In . SVG Version: 6.00 Build 0)  -->
<svg version="1.1" id="Information" xmlns="http://www.w3.org/2000/svg" xmlns:xlink="http://www.w3.org/1999/xlink" x="0px"
	 y="0px" viewBox="0 0 56.7 56.7" style="enable-background:new 0 0 56.7 56.7;" xml:space="preserve">
<style type="text/css">
	.st0{fill:#394350;}
</style>
<path class="st0" d="M28.3,0C12.7,0,0,12.7,0,28.3C0,44,12.7,56.7,28.3,56.7C44,56.7,56.7,44,56.7,28.3C56.7,12.7,44,0,28.3,0z
	 M28.3,10.3c2.2,0,4,1.8,4,4c0,2.3-1.8,4.1-4,4.1c-2.3,0-4.1-1.8-4.1-4.1C24.2,12.2,26,10.3,28.3,10.3z M35,46.4H21.7v-4l1.5,0
	c1,0,1.5-0.1,1.7-0.2c0.2-0.3,0.2-2.1,0.2-3V27.1c0-1.7-0.1-2.3-0.2-2.6c-0.2,0-0.6-0.1-1.7-0.1h-1.5v-3.9l10.5-0.7L32,21.5
	c-0.1,2.5-0.3,6.5-0.3,8.4v9.2c0,0.9,0,2.7,0.2,3c0.1,0,0.7,0.1,1.6,0.1l1.5,0V46.4z"/>
</svg>
