<?xml version="1.0" encoding="utf-8"?>
<!-- Generator: Adobe Illustrator 19.1.0, SVG Export Plug-In . SVG Version: 6.00 Build 0)  -->
<svg version="1.1" id="Information_colored" xmlns="http://www.w3.org/2000/svg" xmlns:xlink="http://www.w3.org/1999/xlink"
	 x="0px" y="0px" viewBox="0 0 56.7 56.7" style="enable-background:new 0 0 56.7 56.7;" xml:space="preserve">
<style type="text/css">
	.st0{fill-rule:evenodd;clip-rule:evenodd;fill:#FFFFFF;}
	.st1{fill:#494849;}
</style>
<circle class="st0" cx="28.3" cy="28.3" r="28.3"/>
<path class="st1" d="M35,42.4v4H21.7v-4l1.5,0c1,0,1.5-0.1,1.7-0.2c0.2-0.3,0.2-2.1,0.2-3V27.1c0-1.7-0.1-2.3-0.2-2.6
	c-0.2,0-0.6-0.1-1.7-0.1h-1.5v-3.9l10.5-0.7L32,21.5c-0.1,2.5-0.3,6.5-0.3,8.4v9.2c0,0.9,0,2.7,0.2,3c0.1,0,0.7,0.1,1.6,0.1L35,42.4
	z M28.3,18.5c2.2,0,4-1.8,4-4.1c0-2.2-1.8-4-4-4c-2.3,0-4.1,1.8-4.1,4C24.2,16.7,26,18.5,28.3,18.5z"/>
</svg>
