<?xml version="1.0" encoding="utf-8"?>
<!-- Generator: Adobe Illustrator 19.1.0, SVG Export Plug-In . SVG Version: 6.00 Build 0)  -->
<svg version="1.1" id="Information_colored" xmlns="http://www.w3.org/2000/svg" xmlns:xlink="http://www.w3.org/1999/xlink"
	 x="0px" y="0px" viewBox="3 -26.7 56.7 56.7" style="enable-background:new 3 -26.7 56.7 56.7;" xml:space="preserve">
<style type="text/css">
	.st0{fill:#EFEFEF;}
	.st1{fill:#494849;}
</style>
<circle class="st0" cx="31.3" cy="1.6" r="28.3"/>
<path class="st1" d="M38,15.7v4H24.7v-4h1.5c1,0,1.5-0.1,1.7-0.2c0.2-0.3,0.2-2.1,0.2-3V0.4c0-1.7-0.1-2.3-0.2-2.6
	c-0.2,0-0.6-0.1-1.7-0.1h-1.5v-3.9l10.5-0.7L35-5.2c-0.1,2.5-0.3,6.5-0.3,8.4v9.2c0,0.9,0,2.7,0.2,3c0.1,0,0.7,0.1,1.6,0.1L38,15.7z
	 M31.3-8.2c2.2,0,4-1.8,4-4.1c0-2.2-1.8-4-4-4c-2.3,0-4.1,1.8-4.1,4C27.2-10,29-8.2,31.3-8.2z"/>
</svg>
