<?xml version="1.0" standalone="no"?>
<!DOCTYPE svg PUBLIC "-//W3C//DTD SVG 1.1//EN" "http://www.w3.org/Graphics/SVG/1.1/DTD/svg11.dtd" >
<svg xmlns="http://www.w3.org/2000/svg">
<metadata></metadata>
<defs>
<font id="urwfranklingothicw02medium" horiz-adv-x="1202" >
<font-face units-per-em="2048" ascent="1538" descent="-510" />
<missing-glyph horiz-adv-x="512" />
<glyph horiz-adv-x="0" />
<glyph horiz-adv-x="682" />
<glyph unicode=" "  horiz-adv-x="512" />
<glyph unicode="&#x09;" horiz-adv-x="512" />
<glyph unicode="&#xa0;" horiz-adv-x="512" />
<glyph unicode="!" horiz-adv-x="563" d="M137 1366h301l-100 -952h-105zM158 0v250h250v-250h-250z" />
<glyph unicode="&#x22;" horiz-adv-x="774" d="M106 1366h224l-33 -549h-158zM442 1366h226l-35 -549h-156z" />
<glyph unicode="#" d="M49 401l33 191h209l37 209h-207l35 192h206l66 373h186l-65 -373h215l65 373h187l-68 -373h203l-35 -192h-198l-37 -209h198l-35 -193h-200l-70 -399h-186l71 399h-217l-71 -399h-189l72 401h-205zM477 592h215l37 209h-215z" />
<glyph unicode="$" d="M51 367l215 49q23 -100 92 -162q67 -61 166 -64v396l-30 8t-31 8t-23 6q-18 5 -61 19q-27 9 -51 18q-12 4 -49 23q-89 42 -134 116q-47 77 -47 179q0 124 62 213q62 90 176 133q46 16 80 24q47 11 102 19v143h135v-143q149 -18 258 -101q110 -84 136 -204l-203 -43 q-29 83 -74 122q-42 36 -119 45v-350l56 -14q59 -16 116 -33q45 -14 82 -33q39 -21 60 -36q21 -16 45 -43q84 -104 84 -246q0 -103 -43 -185q-44 -83 -125 -135q-17 -11 -56 -33q-25 -14 -59 -24q-37 -11 -68 -16q-66 -11 -86 -13v-184h-135l4 180q-180 15 -307 109 q-121 90 -168 252zM322 997q0 -69 47 -110t157 -56v336l-4 -2q-96 -3 -147 -45q-53 -44 -53 -123zM653 184q104 6 164 60t60 139q0 78 -52 121q-54 44 -168 65v-383z" />
<glyph unicode="%" horiz-adv-x="1579" d="M63 997q0 82 25 152q24 67 68 117t102 77q63 29 129 29l-2 -2q67 0 123 -20t98 -62q48 -51 74 -131q29 -89 29 -174q0 -77 -25 -147q-24 -67 -68 -117q-46 -52 -102 -78q-63 -29 -129 -29t-129 29q-55 25 -100 80q-44 54 -68 123q-25 73 -25 153zM252 995q0 -119 33 -178 q34 -61 98 -61q65 0 102 57q37 58 37 166q0 246 -133 246l-2 -2q-135 0 -135 -228zM295 -6l848 1366h149l-846 -1366h-151zM879 354q0 84 24 158q23 71 68 125q43 52 102 82q60 31 129 31l2 -9q71 0 135 -34q65 -35 109 -97q70 -94 70 -252q0 -80 -25 -153q-23 -68 -68 -119 q-43 -49 -102 -76q-56 -26 -133 -26q-64 0 -125 28q-55 25 -98 78q-40 48 -64 117q-24 67 -24 147zM1067 358q0 -233 135 -233q64 0 98 63q35 65 35 181q0 223 -127 223v2q-66 0 -104 -62q-37 -61 -37 -174z" />
<glyph unicode="&#x26;" horiz-adv-x="1468" d="M68 401q0 90 36 166q38 80 103 133q7 5 21.5 15.5t21.5 15.5q30 22 45 29q7 4 25.5 13.5t29.5 14.5l20 10t27.5 14t26.5 13q-22 28 -57 78q-27 39 -37 64q-13 33 -19 59q-6 27 -6 61q0 63 25 121q24 56 71 97q46 40 111 61q71 23 145 23q81 0 148 -21q70 -22 115 -61 q46 -40 73 -95q27 -56 27 -118q0 -107 -68 -193t-198 -141l297 -338q138 175 172 405l204 -34l3 -13q-47 -300 -242 -516l55 -55q17 -17 41 -33q16 -10 37 -14q24 -4 47 -4h23q8 0 36 4v-191h-43h-24h-29q-49 0 -86 6q-25 4 -69 23q-29 13 -68 43q-28 22 -80 74 q-208 -146 -448 -146q-115 0 -205 33q-95 34 -162 90q-66 54 -107 135q-38 75 -38 172zM338 410q0 -108 78 -177q76 -67 202 -67q150 0 281 98l-358 402h-2q-35 -14 -68 -37q-30 -21 -65 -56q-68 -62 -68 -163zM530 1079q0 -86 113 -184l-2 -2q95 41 135 84q41 44 41 98 q0 57 -39 90q-41 35 -100 35q-61 0 -105 -35q-43 -34 -43 -86z" />
<glyph unicode="'" horiz-adv-x="438" d="M106 1366h224l-33 -549h-158z" />
<glyph unicode="(" horiz-adv-x="600" d="M61 528q0 138 31 271q29 123 96 258q58 111 107 180q47 68 108 125h136q-53 -78 -82 -125q-45 -74 -49 -82q-12 -23 -33 -65q-18 -37 -31 -76q-47 -128 -68 -244q-20 -111 -20 -250q0 -232 74 -454q73 -219 215 -408h-135l-7 -2q-172 190 -256 407q-86 222 -86 465z" />
<glyph unicode=")" horiz-adv-x="600" d="M53 -348q49 69 82 123q37 62 51 86q33 58 37 67q16 33 31 78q47 128 68 244q22 123 22 252q0 232 -74 454q-74 223 -215 410h135l-2 -8q172 -188 258 -408q86 -222 86 -463q0 -143 -30 -272q-29 -123 -96 -258q-52 -99 -109 -180q-45 -65 -109 -125h-135z" />
<glyph unicode="*" d="M172 975l49 180l309 -117l-22 340h188l-24 -340l311 117l49 -180l-317 -70l203 -250l-158 -106l-158 274l-160 -274l-155 106l202 250z" />
<glyph unicode="+" d="M94 594v190h412v426h190v-426h410v-190h-410v-424h-190v424h-412z" />
<glyph unicode="," horiz-adv-x="493" d="M123 0v256h248v-229l-160 -320h-88l119 293h-119z" />
<glyph unicode="-" horiz-adv-x="493" d="M-4 426v186h502v-186h-502z" />
<glyph unicode="." horiz-adv-x="493" d="M123 0v262h248v-262h-248z" />
<glyph unicode="/" horiz-adv-x="980" d="M-115 -342l889 1708h148l-895 -1708h-142z" />
<glyph unicode="0" d="M70 674q0 328 143 514q75 103 170 151q92 47 213 47l2 -8q123 0 221 -49t166 -141q67 -91 105 -225q36 -127 36 -297q0 -122 -28 -240q-27 -114 -86 -209q-138 -240 -418 -240q-117 0 -217 50q-97 48 -166 139q-67 88 -105 219q-36 124 -36 289zM317 678q0 -266 68 -393 q67 -125 209 -125q132 0 197 102q40 58 61 166q22 113 22 236q0 106 -12 200q-11 87 -35 154q-35 93 -86 135q-52 43 -137 43l-6 -4q-281 0 -281 -514z" />
<glyph unicode="1" d="M139 0l2 199h412v864q-108 -94 -197 -154q-83 -55 -178 -94v248q50 19 109 43q17 7 73 35q28 14 56 35q20 15 55 43q60 52 104 96q41 41 60 78h164v-1192h385v-201h-1045z" />
<glyph unicode="2" d="M76 0v240q155 110 256 170q108 70 149 98q28 19 92 65q27 20 62 50q16 14 57 55q129 129 129 254q0 105 -67 172t-172 67q-231 0 -265 -284l-237 59q15 88 43 152q26 60 80 123q77 86 172 127q96 41 221 41q115 0 203 -33q97 -36 157 -94q62 -59 101 -148q37 -84 37 -186 q0 -114 -50 -209q-52 -100 -155 -184q-24 -18 -68 -52q-29 -22 -76 -51q-9 -5 -54 -33t-77 -47q-153 -92 -233 -139h711v-213h-1016z" />
<glyph unicode="3" d="M51 344l232 57q70 -227 303 -227q116 0 190 59t74 154q0 49 -29 102q-28 52 -73 78q-30 16 -68 25q-45 10 -82 10h-168v195l119 -2q121 0 192 53q70 52 70 145q0 92 -61 144q-60 51 -168 51q-103 0 -168 -47q-64 -46 -105 -152l-225 41q21 83 68 148t112 110 q71 49 150 72q83 24 178 24q106 0 188 -26q88 -28 148 -76q62 -50 96 -117q35 -68 35 -147q0 -127 -70 -209q-71 -83 -184 -98q142 -27 219 -113q78 -87 78 -217q0 -91 -37 -164t-104 -125q-65 -51 -164 -82q-95 -30 -209 -30q-254 0 -414 157q-54 51 -80 96q-29 49 -43 111 z" />
<glyph unicode="4" d="M70 309v180l606 904h252v-873h205v-211h-205v-309h-252v309h-606zM307 520l373 -2v377v33v43q0 11 4 65q1 12 2.5 27.5t4 37t3.5 36.5z" />
<glyph unicode="5" d="M76 350l235 37q70 -211 289 -211q125 0 203 78t78 201q0 56 -19 108q-17 47 -53 86q-35 38 -82 58t-104 20q-175 0 -265 -158l-219 43l78 754h848l-29 -215h-647l-39 -397q69 84 146 123q71 36 176 36q102 0 184 -36q86 -37 150 -99q60 -57 100 -145q37 -81 37 -178 q0 -93 -33 -172q-36 -86 -92 -148q-143 -155 -406 -155q-133 0 -243 40q-112 41 -185 117q-37 40 -63 90q-24 47 -45 123z" />
<glyph unicode="6" d="M76 668q0 168 39 295q42 137 110 225q72 94 172 145q99 51 228 51q114 0 209 -36q98 -37 157 -105q37 -40 56 -80q23 -48 40 -108l-208 -41v2q-33 99 -91 147q-54 45 -149 45q-108 0 -174 -57q-68 -59 -105 -184q-16 -52 -26 -117q-8 -52 -8 -119v-59q30 53 55 84 q26 33 61 55q103 68 240 68q99 0 178 -33q84 -35 144 -92q58 -55 94 -138q35 -81 35 -172q0 -102 -37 -186t-103 -147q-67 -64 -155 -97q-90 -34 -199 -34q-129 0 -233 49q-107 51 -179 137q-70 84 -112 215q-39 121 -39 287zM369 420q0 -119 73 -189q74 -71 193 -71 q116 0 188 69q74 71 74 181q0 124 -76 200q-78 78 -196 78l-2 -2q-59 0 -103 -20t-80 -56q-35 -35 -53 -84q-18 -50 -18 -106z" />
<glyph unicode="7" d="M104 1155l21 211h969l8 -182q-85 -112 -144 -199q-48 -72 -106 -178q-41 -76 -80 -172q-34 -83 -55 -184q-21 -100 -33 -209q-12 -111 -18 -246h-281q9 176 43 326q34 153 96 294q60 138 152 275q87 130 209 264h-781z" />
<glyph unicode="8" d="M57 346q0 116 68 193q67 76 221 135l-4 -6q-92 48 -131 82q-47 40 -72 92q-37 73 -37 153q0 88 37 158q38 71 103 121q67 51 157 78q95 28 205 28q112 0 201 -24q87 -24 151 -72t97 -110q34 -64 34 -146q0 -103 -55 -170q-57 -69 -188 -127q55 -24 102 -49q25 -13 68 -43 q57 -45 92 -117t35 -147q0 -91 -39 -162q-40 -73 -113 -125q-75 -54 -174 -80q-106 -28 -227 -28q-120 0 -219 24q-96 23 -168 74q-69 48 -107 117q-37 67 -37 151zM289 348q0 -87 86 -143q85 -55 223 -55q132 0 211 49q80 50 80 133q0 37 -17 71q-18 36 -57 60 q-43 27 -117 57q-86 35 -186 68v-4q-223 -85 -223 -236zM350 1030q0 -39 15 -69q17 -34 51 -56q40 -25 98 -51q56 -25 158 -57l-2 2q37 16 45 18q145 74 145 197q0 85 -72 139q-71 53 -184 53q-114 0 -184 -49t-70 -127z" />
<glyph unicode="9" d="M76 924q0 102 37 186q39 89 100 147q62 59 154 95q87 34 196 34q245 0 393 -161q82 -91 123 -215q39 -118 39 -289q0 -311 -135 -516q-150 -225 -430 -225q-160 0 -272 69q-114 70 -160 199l207 57v-4q14 -25 34 -55q8 -12 29 -33q31 -28 74 -43q41 -14 90 -14 q155 0 238 141q83 142 86 403q-37 -63 -64 -98q-27 -34 -61 -55q-52 -34 -107 -47q-70 -17 -125 -17q-101 0 -180 33q-84 35 -141 92q-55 55 -92 140q-33 76 -33 176zM307 936q0 -49 19 -98q18 -46 55 -80q38 -35 84 -53q49 -19 102 -19q55 0 107 19q47 17 86 53 q36 33 57 80q21 46 21 98q0 112 -74 186t-193 74l-4 -2q-57 0 -106 -18q-44 -16 -82 -54q-36 -36 -53 -82q-19 -52 -19 -104z" />
<glyph unicode=":" horiz-adv-x="493" d="M123 0v250h248v-250h-248zM123 694v250h248v-250h-248z" />
<glyph unicode=";" horiz-adv-x="493" d="M123 0v256h248v-229l-160 -320h-88l119 293h-119zM123 694v250h248v-250h-248z" />
<glyph unicode="&#x3c;" d="M137 584v196l887 441v-230l-641 -309l639 -311l2 -230z" />
<glyph unicode="=" d="M94 434v191h1012v-191h-1012zM94 733v191h1012v-191h-1012z" />
<glyph unicode="&#x3e;" d="M178 141v232l641 309l-639 311l-2 228l887 -443v-194z" />
<glyph unicode="?" horiz-adv-x="1028" d="M27 918q9 101 49 186q42 89 104 145q63 57 150 92t186 35q96 0 178 -30q85 -31 142 -82q58 -52 92 -125q35 -75 35 -160q0 -82 -33 -152q-35 -76 -92 -135q-10 -10 -19 -16q-2 -2 -10.5 -8t-15.5 -11q-30 -20 -50 -34q-9 -6 -35.5 -26.5t-45.5 -33.5q-24 -17 -33 -26 q-13 -13 -19 -31q-4 -13 -8 -45q-2 -18 -2 -70h-194l-9 121q0 33 6 57q6 26 21 49q17 26 43 50q15 13 78 61q72 58 108 115q35 56 35 121q0 90 -55 145t-148 55q-71 0 -123 -37q-53 -38 -79 -100q-11 -27 -21 -61q-9 -31 -18 -88zM397 -14v250h236v-250h-236z" />
<glyph unicode="@" horiz-adv-x="1468" d="M18 682q0 151 56 281q57 132 157 225q105 97 236 151q136 56 293 56q143 0 270 -47t215 -129t141 -197q54 -117 54 -246q0 -97 -31 -192q-30 -93 -82 -162t-121 -111q-65 -39 -143 -39q-55 0 -105 29q-46 26 -67 74q-46 -58 -96 -82q-52 -25 -111 -25q-63 0 -123 29 q-55 27 -96 80q-40 51 -64 123q-24 70 -24 153q0 89 26 160q27 72 74 129q47 56 109 86q64 31 135 31q62 0 117 -25t80 -63l8 69h172l-56 -465l-16 -4q-6 -50 -6 -94q0 -67 47 -67q39 0 80 30q39 29 70 80q31 52 49 115q18 65 18 133q0 112 -39 197q-41 90 -110 153 q-73 67 -168 103t-215 36q-124 0 -228 -43q-107 -45 -182 -122q-78 -81 -121 -185t-43 -227q0 -156 74 -289q73 -131 203 -205q129 -75 317 -75q62 0 115 6q57 6 104 20q46 13 109 37q56 21 125 55l59 -135q-130 -63 -252 -94q-124 -31 -258 -31q-113 0 -219 25 q-97 23 -184 72t-148 110q-59 59 -110 146q-45 77 -70 172t-25 188zM537 643q0 -95 41 -154t102 -59q39 0 80 23q38 21 65 59q31 44 47 84q19 49 19 98q0 85 -49 140t-123 55l-2 -2q-76 0 -129 -68q-51 -66 -51 -176z" />
<glyph unicode="A" horiz-adv-x="1234" d="M6 0l453 1366h303l459 -1366h-265l-108 326h-524l-109 -326h-209zM385 522h397l-198 611z" />
<glyph unicode="B" horiz-adv-x="1243" d="M150 0v1366l532 -8q71 0 100 -2q36 -2 80 -13q46 -11 66 -20q29 -13 55 -33q64 -46 102 -121q37 -73 37 -163q0 -122 -63 -197q-65 -77 -185 -104q51 -11 93 -25q31 -11 67 -39q64 -47 99 -117q32 -65 32 -155q0 -75 -28 -148q-27 -71 -80 -121t-129 -75 q-77 -25 -183 -25h-595zM379 780h299v2q91 0 145 54t54 141q0 83 -56 133q-55 49 -147 49h-295v-379zM383 197h317l-4 -4q101 0 160 53t59 145q0 90 -57 144q-58 55 -156 55h-319v-393z" />
<glyph unicode="C" horiz-adv-x="1185" d="M82 682q0 158 41 289q41 132 110 221q70 91 173 141q101 49 227 49q210 0 338 -122q130 -124 170 -359l-228 -24q-9 42 -18 73q-12 40 -18 56q-10 26 -21 43q-1 2 -11 17.5t-16 23.5q-36 48 -86 71q-55 25 -110 25q-139 0 -215 -129q-76 -128 -76 -369q0 -238 80 -371 q79 -131 221 -131q106 0 180 80q75 81 90 209l228 -26h4q-9 -55 -21 -99q-13 -48 -26 -80q-13 -33 -37 -67q-19 -27 -51 -64q-73 -82 -166 -123q-88 -39 -215 -39q-249 0 -381 170q-166 205 -166 535z" />
<glyph unicode="D" horiz-adv-x="1341" d="M143 0v1366h502q131 0 234 -41t188 -129q195 -201 195 -510q0 -173 -62 -315q-63 -144 -174 -236q-164 -135 -436 -135h-447zM395 201h205l-2 -8q92 0 164 34t125 99q54 66 80 155q28 95 28 203q0 112 -26 197q-27 90 -76 153q-48 63 -117 101q-65 36 -147 36h-234v-970z " />
<glyph unicode="E" horiz-adv-x="1099" d="M150 0v1366h878v-203h-633v-370h508v-199h-508v-383h641v-211h-886z" />
<glyph unicode="F" horiz-adv-x="1040" d="M150 0v1366h862v-211h-611v-375h482v-205h-482v-575h-251z" />
<glyph unicode="G" horiz-adv-x="1314" d="M70 682q0 147 39 268q42 130 110 226q153 208 434 208q245 0 391 -174q51 -57 72 -104q24 -52 45 -135l-215 -37q-17 65 -26 86q-12 29 -35 59q-42 52 -99 78q-63 29 -124 29q-68 0 -132 -31q-59 -29 -100 -82q-53 -65 -74 -153q-22 -93 -22 -218q0 -516 323 -516 q58 0 119 23q53 20 94 61t62 97q22 58 22 122v11h-282v198h514v-698l-113 -6l-76 184q-62 -104 -153 -155q-89 -50 -215 -50q-274 0 -418 209q-68 103 -105 230q-36 124 -36 270z" />
<glyph unicode="H" horiz-adv-x="1312" d="M150 0v1366h245v-561h523v561h245v-1366h-245v594h-523v-594h-245z" />
<glyph unicode="I" horiz-adv-x="546" d="M150 0v1366h245v-1366h-245z" />
<glyph unicode="J" horiz-adv-x="759" d="M2 -2v199l100 -7q23 -2 56 -2q58 0 114 17q50 15 72 47q18 25 23 61q6 41 6 111v942h252v-942l2 -2q0 -94 -19 -178q-18 -81 -51 -125q-59 -77 -141 -111q-79 -33 -217 -33q-57 0 -111 7q-33 4 -86 16z" />
<glyph unicode="K" horiz-adv-x="1257" d="M147 -2v1366h246v-719q26 43 39 62q5 7 15.5 21.5t15.5 21.5l455 616h247l-323 -448l381 -918h-275l-291 694l-264 -350v-346h-246z" />
<glyph unicode="L" horiz-adv-x="1019" d="M150 0v1366h260v-1143h579v-223h-839z" />
<glyph unicode="M" horiz-adv-x="1640" d="M150 0v1366h385l284 -881l283 881h387v-1366h-252v1196l-379 -1196h-129l-379 1196v-1196h-200z" />
<glyph unicode="N" horiz-adv-x="1331" d="M150 -2v1366h272l477 -805q1 -1 14 -24q4 -7 13 -24.5t14 -25.5l23 -45q8 -18 22 -43v969h195v-1366h-226l-532 870l-74 148v-1020h-198z" />
<glyph unicode="O" horiz-adv-x="1316" d="M78 686q0 155 43 283t121 221q78 94 184 145q105 51 238 51l-5 -2q133 0 240 -49q110 -50 182 -143q75 -96 115 -227q41 -134 41 -295q0 -155 -43 -283q-44 -132 -119 -221q-77 -92 -184 -141q-109 -50 -240 -50q-132 0 -243 54q-109 53 -179 151q-71 98 -112 230 q-39 124 -39 276zM338 676q0 -199 59 -338q33 -74 103 -119q67 -43 151 -43q82 0 152 43q68 42 104 115q62 121 62 332q0 520 -312 520l-2 -6q-83 0 -147 -37q-62 -36 -98 -103q-37 -73 -54 -161q-18 -95 -18 -203z" />
<glyph unicode="P" horiz-adv-x="1226" d="M150 0l4 1362h559q101 0 161 -14q64 -15 125 -52q91 -60 136 -143q47 -86 47 -197q0 -95 -33 -168q-34 -76 -92 -131q-59 -56 -142 -86q-82 -30 -178 -30h-342v-541h-245zM399 748h291v-3q110 0 172 56t62 149q0 35 -17 84q-15 43 -43 68q-58 55 -196 55h-269v-409z" />
<glyph unicode="Q" horiz-adv-x="1316" d="M74 678q0 161 41 295q42 136 116 225q76 91 185 141t239 50q149 0 258 -56t191 -178q69 -101 98 -215q31 -121 31 -258q0 -323 -172 -522q-10 -14 -29 -33q-4 -4 -12 -12.5t-12 -12.5q-10 -10 -31 -24q-5 -4 -21 -14t-26 -17q-27 -18 -27 -41q0 -38 33 -61q36 -25 82 -25 h43q15 0 61 4h23q9 0 37 4v-207l-2 -2q-50 -3 -86 -6q-23 -2 -56 -2q-79 0 -149 25q-65 23 -101 65q-25 28 -38 68q-12 37 -15 108q-18 -2 -55 -2h-43q-131 0 -227 45q-95 45 -174 142q-162 198 -162 516zM342 674q0 -496 307 -496q163 0 246 141q19 34 29 68q15 52 22 86 q14 73 17 98q6 53 6 101q0 253 -78 385q-76 129 -232 129h-2q-155 0 -235 -129q-80 -130 -80 -383z" />
<glyph unicode="R" horiz-adv-x="1316" d="M150 -2v1366h591q121 0 207 -25q85 -25 148 -82q123 -108 123 -294q0 -132 -60 -220q-59 -86 -184 -141l239 -602h-260l-213 559h-346v-561h-245zM395 756h307v-4q128 0 195 55q68 56 68 156q0 92 -66 149q-64 55 -176 55h-328v-411z" />
<glyph unicode="S" horiz-adv-x="1169" d="M6 330l238 51l8 -10q14 -50 31 -80q15 -27 43 -49q47 -37 110 -54q67 -18 148 -18q127 0 198 51q74 53 74 141q0 119 -170 166l-262 68q-94 24 -162 59q-56 29 -98 80q-80 103 -80 236q0 91 35 166q36 76 98 127q67 54 154 84q88 30 196 30q113 0 207 -30q99 -31 170 -88 q51 -41 72 -74q26 -41 43 -101l-234 -57q-53 154 -256 154q-110 0 -172 -45q-63 -45 -63 -123q0 -117 190 -166l234 -57q109 -26 178 -68q69 -41 108 -98q66 -97 66 -222q0 -97 -39 -174q-41 -81 -110 -135q-71 -56 -173 -86q-105 -31 -223 -31q-257 0 -420 129q-8 7 -45 44 q-22 22 -37 49q-5 9 -30 59q-14 28 -27 72z" />
<glyph unicode="T" horiz-adv-x="989" d="M0 1155v211h989v-211h-362v-1155h-265v1155h-362z" />
<glyph unicode="U" horiz-adv-x="1218" d="M137 469v895h252v-879q0 -158 60 -221q29 -33 81 -51t111 -18q61 0 119 22q57 22 84 62q49 64 49 208v879h194v-879h-2q0 -77 -6 -133q-6 -54 -18 -98q-10 -37 -35 -78q-19 -31 -55 -67q-131 -131 -363 -131q-235 0 -362 133q-61 64 -84 141q-25 83 -25 215z" />
<glyph unicode="V" horiz-adv-x="1105" d="M4 1366h260l314 -1047l319 1047h205l-426 -1366h-250z" />
<glyph unicode="W" horiz-adv-x="1808" d="M20 1366h263l262 -995l246 995h249l273 -995l258 995h217l-365 -1366h-258l-272 1004l-248 -1004h-252z" />
<glyph unicode="X" horiz-adv-x="1161" d="M10 0l432 713l-370 653h284l254 -455l267 455h229l-379 -623l422 -743h-287l-303 539l-319 -539h-230z" />
<glyph unicode="Y" horiz-adv-x="1114" d="M-27 1366h297l324 -563l309 563h238l-443 -791v-575h-260v575z" />
<glyph unicode="Z" horiz-adv-x="1091" d="M41 0v193l700 978h-651v195h940v-195l-690 -960h711v-211h-1010z" />
<glyph unicode="[" horiz-adv-x="600" d="M137 -342v1708h344v-164h-166v-1380h166v-164h-344z" />
<glyph unicode="\" horiz-adv-x="980" d="M61 1366h146l891 -1708h-144z" />
<glyph unicode="]" horiz-adv-x="600" d="M119 -178h166v1380h-166v164h344v-1708h-344v164z" />
<glyph unicode="^" horiz-adv-x="1024" d="M23 702l337 670h306l338 -670h-244l-248 486l-246 -486h-243z" />
<glyph unicode="_" horiz-adv-x="1024" d="M0 -106h1024v-209h-1024v209z" />
<glyph unicode="`" horiz-adv-x="1024" d="M215 1337l66 150l393 -219l-41 -107z" />
<glyph unicode="a" horiz-adv-x="1105" d="M70 291q0 117 73 196q75 81 215 115q56 12 80 16q65 10 86 11q52 3 101 6q37 2 120 2v76q0 155 -215 155q-104 0 -159 -37q-57 -38 -74 -118l-195 28q12 73 43 121q27 42 91 86q68 43 141 60q76 18 184 18q133 0 215 -27q83 -27 133 -86q19 -23 31 -43t18 -49 q9 -41 11 -67q4 -54 4 -95v-454q0 -49 6 -99q5 -38 22 -106h-219l-4 2q-5 15 -14 51q-4 15 -8 49q-1 8 -3 25t-3 25q-6 49 -7 59q-24 -57 -45 -88q-21 -30 -51 -57q-48 -42 -110 -62q-61 -20 -136 -20q-71 0 -135 22q-59 20 -104 62t-68 98q-24 59 -24 125zM301 303 q0 -69 47 -110q45 -39 129 -39q120 0 193 73t73 197v92l-2 -2q-217 0 -329 -53q-111 -53 -111 -158z" />
<glyph unicode="b" horiz-adv-x="1101" d="M131 1366h227v-494q24 43 62 86q33 38 63 56q35 21 72 30q46 11 86 11q88 0 158 -37q73 -39 121 -107q51 -73 77 -168q29 -106 29 -219q0 -239 -117 -395q-57 -75 -129 -113q-68 -36 -172 -36q-105 0 -172 43q-70 45 -135 143l-61 -166h-103zM350 426q0 -129 56 -197 q55 -67 155 -67q106 0 162 90q30 55 41 108t14 170q-3 96 -16 154q-11 47 -41 96q-24 37 -64 58q-39 20 -86 20q-96 0 -155 -74q-58 -73 -58 -202v-150z" />
<glyph unicode="c" horiz-adv-x="954" d="M68 506q0 125 32 213q35 96 93 166q59 71 141 108q81 37 184 37q99 0 172 -33q79 -36 129 -94q44 -50 60 -92q20 -51 34 -129l-196 -27q-24 189 -185 189q-102 0 -161 -92q-58 -91 -58 -256q0 -151 56 -234q57 -84 153 -84q151 0 197 193l196 -21h-6q-18 -82 -39 -129 q-21 -46 -55 -92q-114 -147 -319 -147q-101 0 -177 36q-79 38 -135 105q-57 69 -86 166q-30 99 -30 217z" />
<glyph unicode="d" horiz-adv-x="1101" d="M70 516q0 131 36 238q38 112 105 188q95 111 258 111q188 0 270 -181v494h228v-1366h-213l-6 201q-47 -118 -117 -170q-73 -54 -178 -54q-170 0 -269 129q-55 71 -84 181q-30 114 -30 229zM301 502q0 -167 55 -252q56 -86 158 -86q46 0 86 18q39 17 70 56q33 42 47 84 q16 50 16 102v170l-8 -4q0 64 -12 108q-10 37 -41 80q-64 76 -156 76q-104 0 -160 -92q-55 -91 -55 -260z" />
<glyph unicode="e" horiz-adv-x="1073" d="M76 498q0 117 35 217q34 97 96 168q61 71 147 108q84 37 195 37q219 0 336 -141q116 -140 119 -410h-693v-28q3 -141 66 -216q61 -73 176 -73q87 0 139 37q51 36 86 127l207 -29l6 -4q-53 -155 -166 -234q-115 -80 -282 -80q-109 0 -193 37q-86 38 -147 105 q-57 63 -94 164q-33 90 -33 215zM315 621h457l-2 -5q-3 58 -12 93q-8 30 -37 67q-64 88 -176 88q-98 0 -156 -61q-59 -62 -74 -182z" />
<glyph unicode="f" horiz-adv-x="647" d="M18 836v178h150q0 44 4 102q3 44 12 78q9 33 25 59q17 27 37 50q46 49 110 67q68 19 179 19h36q16 0 43 -3v-180q-28 4 -36 4h-25q-108 0 -141 -45q-10 -11 -13 -18t-6 -25q-2 -10 -2 -43v-69h225v-179h-225v-831h-219l-4 836h-150z" />
<glyph unicode="g" horiz-adv-x="1060" d="M39 -96q0 68 31 116q28 44 114 89q-52 46 -73 84q-21 37 -21 83q0 70 37 119q36 47 125 94q-81 55 -109 105q-30 52 -30 129q0 59 24 111q22 48 66 92q107 104 332 104q38 0 92 -4q30 -2 104 -16q26 98 84 147q54 45 158 45h86v-174l-76 -10q-59 0 -90 -17 q-28 -16 -55 -65q65 -56 92 -105q26 -48 26 -114q0 -67 -30 -123q-28 -51 -84 -98q-52 -43 -129 -64q-80 -22 -166 -22q-45 0 -86 6q-29 4 -105 22q-39 -20 -55 -43q-14 -20 -14 -55q0 -47 37 -74q36 -26 100 -26h301q73 0 135 -21q64 -22 105 -57q44 -38 67 -88 q25 -55 25 -113q0 -78 -37 -139q-38 -62 -105 -105q-69 -45 -165 -65q-108 -23 -222 -23q-489 0 -489 275zM236 -39q0 -80 92 -127t252 -47q128 0 196 35t68 98q0 47 -41 74q-43 29 -111 29h-241l-5 4q-29 0 -75 4q-32 3 -88 18q-29 -29 -37 -45q-10 -20 -10 -43zM352 711 q0 -77 49 -123q48 -45 136 -45q86 0 135 43t49 116q0 82 -47 129q-46 46 -135 46l2 2q-87 0 -138 -45t-51 -123z" />
<glyph unicode="h" horiz-adv-x="1110" d="M139 0v1366h228v-532q46 113 116 165q73 54 183 54q182 0 258 -129q27 -50 39 -99t12 -131v-694h-227l2 659q0 195 -156 195q-53 0 -107 -31q-51 -29 -79 -80q-23 -47 -31 -96q-10 -58 -10 -123v-524h-228z" />
<glyph unicode="i" horiz-adv-x="501" d="M137 0v1010h228v-1010h-228zM137 1128v238h228v-238h-228z" />
<glyph unicode="j" horiz-adv-x="501" d="M-96 -201q36 -4 43 -4h30q53 0 80 8q29 9 49 29q19 19 25 53q6 35 6 86v1039h228v-1039l4 -2q0 -377 -349 -377q-37 0 -53 2q-10 1 -63 13v192zM141 1126v238h228v-238h-228z" />
<glyph unicode="k" horiz-adv-x="1089" d="M139 2v1366h219v-848q15 21 25 31q9 9 18 24l400 435h246l-304 -334l334 -676h-239l-256 520l-224 -252v-266h-219z" />
<glyph unicode="l" horiz-adv-x="501" d="M137 0v1366h228v-1366h-228z" />
<glyph unicode="m" horiz-adv-x="1781" d="M137 -2v1010h221v-215q26 49 56 98q18 29 53 61q43 37 102 58q56 20 123 20q115 0 185 -55q71 -56 108 -178q122 235 338 235q71 0 129 -24t102 -68q46 -46 68 -100q25 -61 25 -125v-715h-240l-4 627q0 194 -174 194q-53 0 -99 -24q-45 -23 -73 -68q-29 -46 -37 -86 q-10 -48 -10 -115v-530h-242v629q0 43 -4 71q-3 21 -19 50q-20 37 -57 57q-36 20 -84 20q-104 0 -168 -82q-63 -81 -63 -215v-530h-236z" />
<glyph unicode="n" horiz-adv-x="1107" d="M137 -4v1010h207v-234q65 139 135 197q71 59 176 59q90 0 166 -43q78 -44 111 -106q23 -50 31 -99q10 -58 10 -129v-651h-228l-2 625q0 92 -43 147t-114 55q-61 0 -107 -32q-52 -36 -78 -93q-36 -71 -36 -188v-518h-228z" />
<glyph unicode="o" horiz-adv-x="1083" d="M72 510q0 116 34 209q36 98 99 164q65 68 149 108q82 39 191 39l8 -4q130 0 221 -49q93 -50 160 -158q47 -71 65 -145q19 -78 19 -172q0 -117 -35 -213q-36 -99 -98 -164t-154 -107q-83 -38 -196 -38q-238 0 -363 186q-100 147 -100 344zM324 498q0 -163 59 -252 q58 -88 166 -88q111 0 170 90q59 89 59 256t-57 250q-59 86 -168 86l4 -6q-110 0 -172 -86q-61 -85 -61 -250z" />
<glyph unicode="p" horiz-adv-x="1101" d="M133 1014h219v-176q54 100 129 147q74 47 178 47q166 0 261 -133q108 -156 108 -387q0 -250 -119 -408q-46 -64 -110 -94q-65 -30 -154 -30q-183 0 -276 161v-483h-232zM365 414q0 -113 61 -183q62 -71 158 -71q95 0 147 88q53 89 53 248q0 166 -53 258t-147 92 q-96 0 -158 -80q-61 -79 -61 -205v-143v-4z" />
<glyph unicode="q" horiz-adv-x="1110" d="M72 506q0 118 30 217q29 97 86 166q53 64 134 104q75 37 172 37q96 0 163 -37q72 -40 134 -125l61 142h121v-1352h-238l2 524q-82 -198 -282 -198q-171 0 -265 125q-58 76 -88 178t-30 219zM313 504q0 -157 58 -248q59 -92 155 -92q93 0 152 80t59 207v145l-2 -4 q0 118 -51 184q-53 68 -141 68q-112 0 -170 -88q-60 -91 -60 -252z" />
<glyph unicode="r" horiz-adv-x="677" d="M131 1010h207v-242q21 75 49 121q25 40 68 80q75 69 161 69h11q12 0 18 -2v-245q-4 2 -14 2h-13q-52 0 -98 -21q-52 -24 -86 -70q-33 -42 -51 -106t-18 -129v-467h-228z" />
<glyph unicode="s" horiz-adv-x="929" d="M14 231l213 41l9 4q35 -69 81 -94q48 -26 142 -26q102 0 151 32q54 35 54 93q0 35 -31 63t-82 37l-184 37q-157 27 -232 102q-74 74 -74 197q0 120 80 209q101 110 308 110q156 0 256 -59q99 -58 133 -172l-205 -43q-21 61 -64 88t-120 27q-81 0 -132 -31 q-49 -30 -49 -80q0 -47 35 -74q36 -28 111 -43l217 -45q254 -49 254 -293q0 -71 -31 -135q-30 -61 -88 -104q-60 -44 -141 -68q-83 -24 -185 -24q-195 0 -323 94q-41 30 -62 65q-26 42 -41 92z" />
<glyph unicode="t" horiz-adv-x="659" d="M37 829v179h139l21 262l186 16v-278h205v-179h-205v-491q0 -51 8 -78q9 -31 27 -49t49 -27q27 -8 80 -8h22q23 0 35 2v-178l-2 -4q-64 -12 -90 -16q-51 -7 -68 -7q-59 0 -120 23q-55 21 -93 59q-40 40 -55 95q-14 52 -14 157v522h-125z" />
<glyph unicode="u" horiz-adv-x="1103" d="M137 301v707h234v-658q0 -41 6 -65q5 -18 16 -45q20 -33 53 -50q34 -18 72 -18q59 0 115 41t80 102q17 45 22 86q6 47 6 123v486h228v-1010h-213l-2 215q-19 -59 -43 -98q-19 -32 -62 -68q-89 -74 -213 -74q-162 0 -248 123q-26 39 -38 86q-13 50 -13 117z" />
<glyph unicode="v" horiz-adv-x="909" d="M14 1010h238l235 -684l232 684h178l-342 -1010h-190z" />
<glyph unicode="w" horiz-adv-x="1427" d="M20 1010h242l201 -680l172 680h207l178 -680l194 680h193l-297 -1010h-205l-182 709l-180 -709h-211z" />
<glyph unicode="x" horiz-adv-x="905" d="M0 0l336 520l-291 490h262l166 -297l189 297h190l-285 -439l338 -571h-262l-213 369l-233 -369h-197z" />
<glyph unicode="y" horiz-adv-x="905" d="M14 1010h238l246 -668l211 668h182l-393 -1151h-2q-41 -118 -105 -170q-66 -54 -168 -54q-20 0 -57 3q-12 1 -36.5 3t-37.5 3v180q23 -2 62 -2h51q101 0 135 57q5 7 12 29l15 37q9 19 12 32q4 20 4 21q0 2 -2.5 8.5t-8.5 22.5l-12 32z" />
<glyph unicode="z" horiz-adv-x="858" d="M47 0v178l498 653h-451v179h715v-162l-492 -670h492v-178h-762z" />
<glyph unicode="{" horiz-adv-x="600" d="M41 442v146q60 15 86 55q29 43 29 115v334q0 146 71 211q69 63 232 63h22q27 0 60 -2v-154q-60 0 -101 -6q-40 -6 -61 -24q-22 -18 -31 -50q-8 -27 -8 -79v-306h-4q0 -49 -6 -83q-6 -35 -21 -62q-16 -29 -39 -49q-25 -22 -61 -39q72 -41 98 -92q29 -56 29 -148v-297 q0 -57 8 -84q9 -30 31 -49q21 -18 61 -24t101 -6v-154h-43h-25h-25q-155 0 -223 68q-67 67 -67 221v317q0 81 -25 123q-24 40 -88 55z" />
<glyph unicode="|" horiz-adv-x="1024" d="M395 -342v1708h232v-1708h-232z" />
<glyph unicode="}" horiz-adv-x="600" d="M55 1210v154h43h25h24q158 0 226 -68q67 -67 67 -221v-317q0 -81 25 -123q23 -40 90 -55v-146q-60 -15 -86 -55q-27 -41 -27 -113v-334q0 -148 -69 -211t-230 -63h-22q-27 0 -60 2v154q61 0 101 6t61 24q22 18 31 50q8 27 8 79v306l-8 -9q0 50 6 84q6 35 21 62 q17 31 38 49q28 25 62 41q-72 41 -98 92q-27 52 -27 147v297q0 55 -8 86q-9 33 -31 52q-21 18 -61 24q-41 6 -101 6z" />
<glyph unicode="~" d="M102 571q62 148 129 209q68 62 170 62q37 0 91 -13q43 -10 126 -43q62 -24 74 -28q10 -3 26 -8t21 -7q3 -1 31 -8q8 -2 29 -2q53 0 84 25q29 23 71 90l133 -78q-42 -89 -67 -129q-26 -42 -68 -70q-79 -61 -180 -61q-13 0 -37 4q-20 3 -49 12q-1 0 -80 29 q-11 4 -53.5 20.5t-71.5 26.5q-30 11 -49 16q-28 7 -43 7q-45 0 -82 -29q-31 -24 -74 -102l-129 84z" />
<glyph unicode="&#xa1;" horiz-adv-x="563" d="M127 -342l102 952h103l96 -952h-301zM158 774v250h250v-250h-250z" />
<glyph unicode="&#xa2;" d="M172 700q0 243 150 381q54 51 104 74q56 25 135 37v258h127l-6 -254q144 -18 233 -104q90 -87 117 -234l-186 -35q-26 92 -66 138q-38 44 -98 53v-617q57 3 98 47t68 136l186 -27q-55 -295 -352 -338v-281h-127v281q-50 7 -72 14q-33 10 -55 21q-35 18 -47 26 q-15 11 -45 37q-164 138 -164 387zM408 696q0 -78 12 -133t39 -96q18 -27 37 -43t59 -25v617l2 -4q-75 -18 -113 -92q-36 -71 -36 -224z" />
<glyph unicode="&#xa3;" d="M-27 219q41 0 95 4q33 2 67 10q26 6 49 19q19 11 43 35q82 76 82 184q0 33 -2 53q-3 34 -12 90h-158v179h137q-9 65 -12 102q-2 25 -2 66q0 88 31 167q30 76 86 132q57 57 131 86q76 30 166 30q156 0 268 -86q38 -30 62 -65q26 -38 59 -99l-193 -90q-27 79 -71 117 q-43 37 -115 37q-83 0 -129 -55q-45 -54 -45 -156q0 -40 6 -80q4 -28 25 -106h247v-179h-247v-47q0 -59 -6 -106q-5 -42 -25 -86q-15 -33 -49 -76q-31 -39 -76 -78h262q65 0 92 2q48 4 70 8q34 7 53 15q32 14 43 20q43 26 60 58q20 38 28 92l215 -109q-27 -71 -57 -117 q-29 -45 -76 -86q-40 -35 -67 -49q-38 -20 -70 -30q-43 -14 -86 -19q-50 -6 -113 -6h-764v227z" />
<glyph unicode="&#xa4;" horiz-adv-x="1366" d="M53 1251l127 127l207 -209q77 53 145 74q74 23 148 23q78 0 145 -21q73 -23 142 -69l204 202l127 -127l-204 -202q52 -75 73 -144q23 -74 23 -143q0 -76 -21 -141q-24 -73 -69 -140l205 -207l-125 -127l-207 205q-137 -96 -289 -96q-71 0 -145 23q-72 23 -146 73 l-205 -205l-127 127l207 205l-6 -4q-94 131 -94 283q0 74 22 145q20 65 72 139zM375 748q0 -62 24 -117q23 -53 64 -94t94 -64q55 -24 117 -24t117 24q49 21 94 66q38 38 63 96t25 117q0 58 -25 116q-25 59 -63 99q-40 43 -92 67q-55 25 -111 25l-6 -10q-61 0 -119 -25 q-55 -24 -94 -63q-40 -40 -64 -95q-24 -56 -24 -118z" />
<glyph unicode="&#xa5;" d="M59 1366h285l295 -565l281 565h223l-256 -500h209v-123h-273l-86 -168v-32h359v-123h-359v-420h-248v420h-380v123h380v32l-92 168h-288v123h223z" />
<glyph unicode="&#xa6;" horiz-adv-x="1024" d="M395 313h232v-655h-232v655zM395 664v702h232v-702h-232z" />
<glyph unicode="&#xa7;" d="M123 -63l219 43l2 -7q85 -168 279 -168q99 0 157 43q60 45 60 111q0 58 -43 98t-150 80l-215 80q-67 24 -113 53q-38 24 -65 62q-66 91 -66 198q0 89 37 150q38 62 121 115q-72 60 -98 110q-27 53 -27 125q0 160 117 252q118 92 311 92q152 0 256 -61q105 -62 158 -185 l-186 -53q-27 76 -91 115q-61 37 -153 37q-95 0 -148 -35q-51 -34 -51 -96q0 -52 37 -86q38 -35 123 -62l180 -61q152 -53 219 -129q68 -77 68 -197q0 -68 -29 -131q-27 -58 -104 -135q82 -55 116 -119q35 -65 35 -160q0 -173 -123 -272q-122 -98 -344 -98q-197 0 -325 84 q-26 17 -49 37q-19 16 -39 43t-37 55q-12 20 -39 72zM393 604q0 -117 205 -190l188 -68v4q40 40 56 72t16 65q0 54 -45 99q-46 46 -131 73l-215 74q-74 -65 -74 -129z" />
<glyph unicode="&#xa8;" horiz-adv-x="1024" d="M236 1300q0 46 30 80q29 33 78 33l2 2q51 0 80 -33q31 -36 31 -82q0 -48 -33 -77q-36 -31 -80 -31q-47 0 -78 31q-30 30 -30 77zM567 1298q0 44 31 80q29 33 78 33l2 2q51 0 80 -33q30 -34 30 -82q0 -49 -32 -77q-36 -31 -80 -31q-47 0 -78 31t-31 77z" />
<glyph unicode="&#xa9;" horiz-adv-x="1583" d="M86 682q0 153 55 281t152 225q96 96 227 151q133 56 283 56v-2q143 0 270 -56q129 -57 221 -153q98 -103 152 -228q55 -128 55 -274q0 -148 -55 -276q-56 -130 -152 -226q-95 -95 -225 -151t-274 -56q-147 0 -277 56t-225 151q-96 96 -152 226q-55 128 -55 276zM211 680 q0 -122 47 -231q48 -112 125 -189q82 -82 186 -127q109 -47 228 -47q118 0 227 47q106 45 184 127q75 78 123 189q47 109 47 231q0 126 -45 231q-48 112 -125 189q-80 80 -184 129t-221 49h-2q-129 0 -234 -45q-104 -45 -186 -127q-77 -77 -125 -191q-45 -107 -45 -235z M436 678q0 92 25 172q24 77 71 133q48 57 113 86q70 31 148 31q274 0 329 -297l-164 -17q-22 75 -30 93q-46 88 -135 88q-81 0 -125 -74q-43 -73 -43 -211t47 -215q46 -76 129 -76q65 0 104 45q40 46 49 129l166 -18l-10 -53q-3 -19 -10 -37q-2 -5 -6.5 -15.5t-6.5 -15.5 q-5 -13 -16 -31q-95 -139 -283 -139q-158 0 -245 100q-107 125 -107 322z" />
<glyph unicode="&#xaa;" horiz-adv-x="731" d="M51 942q0 104 99 160q98 55 292 55h31v37q0 86 -123 86q-65 0 -94 -20q-31 -22 -43 -74l-143 20q38 183 299 183q155 0 221 -66q28 -28 37 -59q8 -27 8 -99v-270q0 -30 6 -57q2 -8 7.5 -30.5t8.5 -37.5h-157l-6 -12q-7 21 -7 22l-12 64l-2 2l-4 -4q-8 -8 -19 -20t-14 -15 q-5 -4 -11 -10.5t-7 -8.5q-8 -8 -12 -10q-5 -2 -19 -6q-58 -22 -115 -22q-97 0 -159 53t-62 139zM215 942q0 -84 100 -84q70 0 113 43t43 113v47l-2 -2q-254 0 -254 -117z" />
<glyph unicode="&#xab;" horiz-adv-x="673" d="M76 510l157 289h97l-97 -289l97 -289h-97zM330 510l166 289h90l-90 -289l90 -289h-90z" />
<glyph unicode="&#xac;" d="M158 338v209h886v-547h-231v338h-655z" />
<glyph unicode="&#xad;" horiz-adv-x="493" d="M-4 426v186h502v-186h-502z" />
<glyph unicode="&#xae;" horiz-adv-x="1583" d="M84 678q0 152 55 280q56 130 152 226t227 151q133 56 283 56v-2q143 0 270 -56q129 -57 221 -153q98 -103 152 -228q55 -128 55 -274q0 -149 -55 -277t-152 -225q-95 -95 -225 -151t-274 -56q-147 0 -277 56t-225 151q-97 97 -152 225t-55 277zM209 676q0 -123 47 -232 q48 -111 125 -188q82 -82 186 -127q109 -47 228 -47q118 0 227 47q106 45 184 127q76 79 123 188t47 232q0 126 -45 231q-48 112 -125 189q-80 80 -184 129t-221 49h-2q-129 0 -234 -45q-104 -45 -186 -127q-77 -77 -125 -191q-45 -107 -45 -235zM465 272v820h379 q148 0 227 -64q80 -65 80 -180q0 -150 -152 -215l152 -361h-184l-131 332h-197v-332h-174zM639 733h180l-4 -4q73 0 115 31q41 30 41 88q0 54 -37 84q-39 31 -103 31h-192v-230z" />
<glyph unicode="&#xaf;" horiz-adv-x="1024" d="M211 1223v129h602v-129h-602z" />
<glyph unicode="&#xb0;" d="M328 1120q0 53 22 105q19 45 60 86q39 39 86 59q54 23 104 23l-10 -11q61 0 108 -20q50 -21 86 -57q41 -41 60 -86q22 -52 22 -107q0 -57 -20 -104q-21 -49 -58 -86t-86 -58q-47 -20 -104 -20q-54 0 -106 22q-45 19 -86 60q-37 37 -58 86q-20 47 -20 108zM451 1106 q0 -57 41 -98q39 -39 98 -39q55 0 96 41t41 96q0 59 -39 98q-41 41 -98 41l-6 -6q-56 0 -95 -39q-38 -38 -38 -94z" />
<glyph unicode="&#xb1;" d="M94 -88v190h1012v-190h-1012zM94 594v190h412v426h190v-426h410v-190h-410v-424h-190v424h-412z" />
<glyph unicode="&#xb2;" horiz-adv-x="792" d="M68 1108q24 130 110 201t221 71q73 0 129 -20q61 -22 99 -57q42 -39 65 -89q25 -55 25 -112q0 -135 -133 -238q-16 -12 -43 -30q-36 -24 -45 -29q-5 -3 -31 -18t-45 -25q-64 -35 -135 -76h428v-139l-637 2v151q6 4 35 24.5t45 29.5q4 3 80 53q22 14 54 33.5t42 25.5 q22 13 55 37q7 5 37 29q12 10 37 31q78 72 78 145q0 58 -41 96q-40 37 -105 37q-141 0 -162 -172z" />
<glyph unicode="&#xb3;" horiz-adv-x="792" d="M43 758l160 37q47 -138 186 -138q73 0 117 33q45 33 45 86q0 56 -43 90q-44 35 -113 35h-112v129h84q69 0 114 31q43 30 43 82q0 51 -37 78q-39 28 -100 28q-66 0 -102 -26t-64 -93l-153 27q27 104 114 164q86 59 213 59q62 0 121 -16q52 -14 94 -45t62 -70 q22 -42 22 -90q0 -133 -129 -182q85 -36 121 -80q37 -46 37 -117q0 -50 -25 -98q-23 -45 -67 -80q-41 -32 -105 -51q-65 -19 -135 -19q-129 0 -223 60q-90 58 -125 166z" />
<glyph unicode="&#xb4;" horiz-adv-x="1024" d="M346 1268l393 219l66 -150l-416 -176z" />
<glyph unicode="&#xb5;" d="M174 -342v1352l223 2v-541q0 -87 9 -131q9 -42 30 -80q23 -45 68 -70q44 -24 94 -24q52 0 98 27q48 28 68 69q18 34 27 84q8 44 8 125v541h227v-1010h-192v154q-16 -37 -27 -56t-35 -43q-40 -46 -74 -61q-32 -14 -92 -14q-74 0 -127 36q-57 39 -78 103v-463h-227z" />
<glyph unicode="&#xb6;" d="M70 1020q0 77 34 149q34 73 93 123q27 23 53 35q36 16 67 23q41 9 93 12q70 4 127 4h618v-115l-149 -8v-1585h-115v1585h-113v-1585h-116v1036h-132q-83 0 -114 2q-43 3 -82 9q-42 7 -64 14q-29 10 -55 24q-145 74 -145 277zM268 1014q0 -62 27 -111q26 -47 74 -69 q30 -13 65 -19q38 -6 98 -6h130v434l-111 -2q-100 0 -152 -10q-45 -9 -73 -37q-27 -27 -41 -76q-17 -60 -17 -104z" />
<glyph unicode="&#xb7;" horiz-adv-x="247" d="M0 389v262h248v-262h-248z" />
<glyph unicode="&#xb8;" horiz-adv-x="1024" d="M303 -356l33 80q46 -27 84 -39q41 -13 72 -13q34 0 55 21q22 22 22 51q0 40 -41 61q-44 23 -110 23h-19q-14 0 -24 -2l57 174h82l-27 -92l-4 4q47 -3 80 -10q26 -6 49 -19q84 -47 84 -135q0 -71 -55 -117q-56 -47 -135 -47q-36 0 -86 13q-44 11 -117 47z" />
<glyph unicode="&#xb9;" horiz-adv-x="792" d="M123 678h233v489q-66 -54 -118 -86q-46 -29 -115 -57v162l37 12q80 28 145 76q70 51 109 108h114v-704h215v-133h-618z" />
<glyph unicode="&#xba;" horiz-adv-x="714" d="M57 1071q0 65 23 129q20 56 61 100t97 68q58 25 122 25v-13q137 0 220 -86q84 -87 84 -229q0 -65 -23 -129q-21 -58 -61 -98t-99 -64t-129 -24q-64 0 -119 24q-51 22 -94 68q-41 44 -61 100q-21 58 -21 129zM227 1061q0 -91 35 -141t96 -50q64 0 99 50t35 145 q0 94 -33 141q-34 49 -99 49v-2q-64 0 -98 -49q-35 -50 -35 -143z" />
<glyph unicode="&#xbb;" horiz-adv-x="673" d="M88 223l94 281l-94 293h94l160 -293l-160 -281h-94zM342 223l94 281l-94 293h94l162 -293l-162 -281h-94z" />
<glyph unicode="&#xbc;" horiz-adv-x="1802" d="M66 678h233v489q-63 -51 -119 -86q-48 -30 -114 -57v162l36 12q82 29 146 76q68 50 108 108h115v-704h215v-133h-618zM385 0l842 1366h147l-844 -1366h-145zM1081 182v115l385 539h168v-517h129v-137h-129v-182h-172v182h-381zM1241 309l232 -2v185q0 46 2 71q3 39 6 101 z" />
<glyph unicode="&#xbd;" horiz-adv-x="1802" d="M66 682h233v489q-63 -51 -119 -86q-48 -30 -114 -57v162l36 12q82 29 146 76q68 50 108 108h115v-704h215v-133h-618zM385 4l842 1366h147l-844 -1366h-145zM1092 4v152q2 1 11.5 7t16.5 11q3 2 43 27q8 5 24.5 15t24.5 15l48 29q78 50 94 59q33 19 59 37q21 15 37 31 q9 9 37 33q78 72 78 141q0 58 -41 96q-40 37 -105 37q-138 0 -159 -170l-164 39q24 130 110 201q87 72 221 72q146 0 234 -76t88 -203q0 -135 -133 -238q-16 -12 -43 -30q-5 -3 -20 -13.5l-25 -17.5q-29 -20 -76 -45q-11 -6 -56.5 -31t-78.5 -43h430v-139z" />
<glyph unicode="&#xbe;" horiz-adv-x="1802" d="M33 758l160 37q46 -138 186 -138q73 0 117 33q45 33 45 86q0 56 -43 90q-44 35 -113 35h-113v129h84q70 0 115 31q43 30 43 82q0 51 -37 78q-39 28 -100 28q-67 0 -103 -26q-34 -25 -63 -93l-154 27q27 104 115 164q86 59 213 59q62 0 121 -16q52 -14 94 -45t62 -70 q22 -42 22 -90q0 -133 -129 -182q85 -36 121 -80q37 -46 37 -117q0 -50 -25 -98q-23 -45 -67 -80q-41 -32 -105 -51q-65 -19 -135 -19q-129 0 -223 60q-90 58 -125 166zM459 0l844 1366h147l-844 -1366h-147zM1061 182v115l385 539h168v-517h129v-137h-129v-182h-172v182 h-381zM1221 309l231 -2v185q0 46 2 71q3 39 6 101z" />
<glyph unicode="&#xbf;" horiz-adv-x="1028" d="M61 35q0 81 33 151q36 77 92 133l19 19q14 14 26 22l50 35q9 6 35.5 26.5t45.5 33.5q24 18 33 26q13 13 19 31q7 21 10 47q4 36 4 74h195l-2 -148q0 -29 -7 -57t-20 -49q-15 -24 -43 -49q-22 -20 -78 -62q-79 -60 -111 -112q-32 -51 -32 -119q0 -88 55 -143 q56 -56 147 -56q71 0 123 37q53 38 80 102q13 33 19 62q11 53 16 88l217 -39q-9 -107 -49 -188q-41 -84 -104 -144q-65 -62 -148 -92q-85 -31 -184 -31q-94 0 -176 31q-80 30 -140 84q-56 50 -92 127q-33 70 -33 160zM385 764v248h236v-248h-236z" />
<glyph unicode="&#xc0;" horiz-adv-x="1234" d="M6 0l453 1366h303l459 -1366h-265l-108 326h-524l-109 -326h-209zM276 1634l62 152l410 -191l-41 -106zM385 522h397l-198 611z" />
<glyph unicode="&#xc1;" horiz-adv-x="1234" d="M6 0l453 1366h303l459 -1366h-265l-108 326h-524l-109 -326h-209zM385 522h397l-198 611zM475 1595l408 191l61 -152l-430 -145z" />
<glyph unicode="&#xc2;" horiz-adv-x="1234" d="M6 0l453 1366h303l459 -1366h-265l-108 326h-524l-109 -326h-209zM258 1516l354 260l357 -260l-191 -21l-166 111l-163 -111zM385 522h397l-198 611z" />
<glyph unicode="&#xc3;" horiz-adv-x="1234" d="M2 0l453 1366h303l459 -1366h-265l-108 326h-525l-108 -326h-209zM279 1618q55 64 102 90q53 29 108 29q33 0 60 -8q18 -5 82 -31q50 -22 84 -33q24 -8 55 -8q33 0 59 16q22 14 58 62l71 -103h-4q-42 -58 -94 -86q-55 -30 -119 -30q-25 0 -63 10q-27 7 -92 37 q-56 25 -64 28q-18 6 -33 6q-31 0 -61 -18q-33 -20 -76 -63zM381 522h397l-198 611z" />
<glyph unicode="&#xc4;" horiz-adv-x="1234" d="M10 4l453 1366h303l459 -1366h-264l-109 326h-524l-109 -326h-209zM330 1624q0 46 30 80q29 33 78 33l2 2q51 0 80 -33q31 -36 31 -82q0 -49 -33 -78q-34 -30 -80 -30q-48 0 -78 30t-30 78zM389 526h397l-198 611zM676 1622q0 44 31 80q29 33 77 33l2 2q51 0 80 -33 q31 -36 31 -82q0 -49 -33 -78q-36 -31 -80 -31q-46 0 -77 31t-31 78z" />
<glyph unicode="&#xc5;" horiz-adv-x="1234" d="M6 0l453 1366h303l459 -1366h-265l-108 326h-524l-109 -326h-209zM385 522h397l-198 611zM426 1636q0 78 55 133q56 56 133 56h-2q76 0 129 -56q54 -57 54 -131q0 -38 -15 -73q-15 -34 -39 -58t-59 -39q-32 -14 -74 -14q-76 0 -129 53t-53 129zM532 1640q0 -36 23 -59 q22 -22 55 -22q38 0 60 22t22 55q0 37 -20 60q-21 24 -56 24l5 -2q-39 0 -64 -22t-25 -56z" />
<glyph unicode="&#xc6;" horiz-adv-x="1732" d="M-35 0l727 1366h961v-199h-606v-376h481v-195h-481v-385h622v-211h-868v387h-408l-194 -387h-234zM489 578h312v618z" />
<glyph unicode="&#xc7;" horiz-adv-x="1185" d="M80 678q0 158 41 289q41 132 110 221q71 92 172 141t228 49q209 0 338 -123q130 -124 170 -358l-228 -25q-9 45 -18 74q-7 22 -19 55q-11 30 -20 43q-2 2 -11.5 17.5t-15.5 23.5q-37 49 -86 72q-55 25 -110 25q-138 0 -215 -129q-76 -128 -76 -369q0 -238 80 -371 q79 -131 221 -131q106 0 180 80q75 81 90 211l228 -27q-12 -105 -56 -192q-46 -91 -106 -148q-59 -57 -152 -94q-79 -32 -190 -32l-27 -80l-2 -13q232 -6 232 -161q0 -76 -56 -123t-147 -47q-54 0 -103 14q-53 15 -122 49l32 80q16 -6 39 -14.5t27 -10.5q9 -4 25 -8.5 t18 -5.5q3 -1 31 -8q8 -2 28 -2q43 0 66 20q24 21 24 56q0 45 -38 65q-44 23 -111 23h-25q-20 0 -32 -2l53 165q-106 12 -193 68q-84 55 -147 148q-58 86 -94 215q-33 118 -33 270z" />
<glyph unicode="&#xc8;" horiz-adv-x="1099" d="M150 0v1366h878v-203h-633v-370h508v-199h-508v-383h641v-211h-886zM291 1634l59 152l410 -191l-39 -106z" />
<glyph unicode="&#xc9;" horiz-adv-x="1099" d="M150 0v1366h878v-203h-633v-370h508v-199h-508v-383h641v-211h-886zM444 1595l408 191l61 -152l-430 -145z" />
<glyph unicode="&#xca;" horiz-adv-x="1099" d="M150 0v1366h878v-203h-633v-370h508v-199h-508v-383h641v-211h-886zM244 1516l356 260l356 -260l-190 -21l-166 111l-166 -111z" />
<glyph unicode="&#xcb;" horiz-adv-x="1099" d="M154 4v1366h878v-203h-633v-370h508v-199h-508v-383h641v-211h-886zM317 1624q0 44 31 80q29 33 78 33l2 2q51 0 80 -33q31 -36 31 -82q0 -49 -33 -78q-34 -30 -80 -30q-48 0 -78 30q-31 31 -31 78zM664 1622q0 46 30 80q29 33 78 33l2 2q51 0 80 -33q31 -36 31 -82 q0 -49 -33 -78q-36 -31 -80 -31q-47 0 -78 31q-30 30 -30 78z" />
<glyph unicode="&#xcc;" horiz-adv-x="546" d="M-31 1634l62 152l368 -191l-41 -106zM150 0v1366h245v-1366h-245z" />
<glyph unicode="&#xcd;" horiz-adv-x="546" d="M147 1595l369 191l62 -152l-392 -145zM150 0v1366h245v-1366h-245z" />
<glyph unicode="&#xce;" horiz-adv-x="546" d="M-49 1516l321 260l322 -260l-184 -21l-138 111l-139 -111zM150 0v1366h245v-1366h-245z" />
<glyph unicode="&#xcf;" horiz-adv-x="546" d="M10 1624q0 44 31 80q29 33 78 33l2 2q51 0 80 -33q30 -34 30 -82q0 -50 -32 -78q-35 -30 -80 -30q-48 0 -78 30q-31 31 -31 78zM154 4v1366h245v-1366h-245zM315 1622q0 44 31 80q29 33 78 33l2 2q51 0 80 -33q31 -36 31 -82q0 -49 -33 -78q-36 -31 -80 -31q-47 0 -78 31 t-31 78z" />
<glyph unicode="&#xd0;" horiz-adv-x="1341" d="M6 602v191l135 -2v573h504q136 0 234 -39q101 -40 190 -129q195 -201 195 -508q0 -173 -62 -315q-64 -147 -174 -238q-166 -135 -436 -135h-449v602h-137zM393 199l205 -9q89 0 164 35q72 34 125 99q54 66 80 155q28 95 28 203q0 112 -26 197q-27 90 -76 153 q-48 63 -117 101q-65 36 -147 36h-236v-378h338v-191h-338v-401z" />
<glyph unicode="&#xd1;" horiz-adv-x="1331" d="M150 -2v1366h272l477 -805q1 -1 14 -24q4 -7 13 -24.5t14 -25.5l23 -45q8 -18 22 -43v969h195v-1366h-226l-532 870l-74 148v-1020h-198zM344 1616q55 64 102 90q53 29 109 29q29 0 59 -9q28 -8 82 -30q50 -22 84 -33q24 -8 56 -8q33 0 59 16q21 13 57 62l72 -103h-2 q-42 -58 -94 -86q-57 -31 -119 -31q-22 0 -64 11q-27 7 -92 37q-59 27 -63 28q-18 6 -33 6q-33 0 -63 -18t-76 -64z" />
<glyph unicode="&#xd2;" horiz-adv-x="1316" d="M76 680q0 155 43 283t121 221q78 94 184 145q105 51 238 51l-5 -2q133 0 240 -49q110 -50 182 -143q74 -96 115 -228q41 -134 41 -294q0 -155 -43 -283q-44 -132 -119 -221q-78 -93 -184 -142q-107 -49 -240 -49q-132 0 -243 54q-109 53 -179 151q-71 99 -112 229 q-39 124 -39 277zM342 678q0 -199 59 -338q33 -74 103 -119q67 -43 151 -43q82 0 152 43q68 42 104 115q62 121 62 332q0 520 -311 520l-3 -6q-83 0 -147 -37q-62 -36 -98 -103q-37 -73 -54 -161q-18 -95 -18 -203zM354 1634l62 152l409 -191l-39 -106z" />
<glyph unicode="&#xd3;" horiz-adv-x="1316" d="M76 680q0 155 43 283t121 221q78 94 184 145q105 51 238 51l-5 -2q133 0 240 -49q110 -50 182 -143q74 -96 115 -228q41 -134 41 -294q0 -155 -43 -283q-44 -132 -119 -221q-78 -93 -184 -142q-107 -49 -240 -49q-132 0 -243 54q-109 53 -179 151q-71 99 -112 229 q-39 124 -39 277zM342 678q0 -199 59 -338q33 -74 103 -119q67 -43 151 -43q82 0 152 43q68 42 104 115q62 121 62 332q0 520 -311 520l-3 -6q-83 0 -147 -37q-62 -36 -98 -103q-37 -73 -54 -161q-18 -95 -18 -203zM512 1595l410 191l59 -152l-430 -145z" />
<glyph unicode="&#xd4;" horiz-adv-x="1316" d="M76 680q0 155 43 283t121 221q78 94 184 145q105 51 238 51l-5 -2q133 0 240 -49q110 -50 182 -143q74 -96 115 -228q41 -134 41 -294q0 -155 -43 -283q-44 -132 -119 -221q-78 -93 -184 -142q-107 -49 -240 -49q-132 0 -243 54q-109 53 -179 151q-71 99 -112 229 q-39 124 -39 277zM309 1516l357 260l354 -260l-189 -21l-165 111l-166 -111zM342 678q0 -199 59 -338q33 -74 103 -119q67 -43 151 -43q82 0 152 43q68 42 104 115q62 121 62 332q0 520 -311 520l-3 -6q-83 0 -147 -37q-62 -36 -98 -103q-37 -73 -54 -161q-18 -95 -18 -203z " />
<glyph unicode="&#xd5;" horiz-adv-x="1316" d="M72 680q0 155 43 283t121 221q78 94 184 145q105 51 237 51l-4 -2q133 0 240 -49q110 -50 182 -143q74 -96 115 -228q41 -134 41 -294q0 -155 -43 -283q-44 -132 -119 -221q-78 -93 -184 -142q-107 -49 -240 -49t-244 54q-108 52 -178 151q-71 99 -112 229 q-39 124 -39 277zM338 678q0 -199 59 -338q33 -74 103 -119q67 -43 151 -43q82 0 152 43q68 42 104 115q62 121 62 332q0 520 -312 520l-2 -6q-83 0 -147 -37q-62 -36 -98 -103q-37 -73 -54 -161q-18 -95 -18 -203zM338 1618q55 64 102 90q53 29 107 29q34 0 61 -8 q18 -5 82 -31q50 -22 84 -33q24 -8 55 -8q34 0 60 16q25 16 55 62l74 -103h-4q-41 -56 -96 -86q-56 -30 -117 -30q-26 0 -64 10q-27 7 -92 37q-59 27 -63 28q-18 6 -35 6q-32 0 -62 -18t-75 -63z" />
<glyph unicode="&#xd6;" horiz-adv-x="1316" d="M80 684q0 155 43 283t121 221q78 94 184 145q105 51 238 51l-4 -2q132 0 239 -49q110 -50 182 -143q75 -96 115 -227q41 -134 41 -295q0 -155 -43 -283q-44 -132 -119 -221q-77 -92 -184 -141q-109 -50 -240 -50q-132 0 -243 54q-109 53 -179 151q-71 98 -112 230 q-39 124 -39 276zM346 682q0 -196 60 -338q34 -75 102 -119q67 -43 151 -43q82 0 152 43q68 42 104 115q62 121 62 332q0 520 -311 520l-2 -6q-84 0 -148 -37q-63 -37 -98 -102q-35 -69 -53 -162q-19 -100 -19 -203zM383 1624q0 44 31 80q29 33 78 33l2 2q50 0 79 -33 q31 -36 31 -82q0 -49 -33 -78q-35 -30 -79 -30q-48 0 -78 30q-31 31 -31 78zM729 1622q0 44 31 80q29 33 78 33l2 2q51 0 80 -33q30 -34 30 -82q0 -50 -32 -78q-36 -31 -80 -31q-47 0 -78 31t-31 78z" />
<glyph unicode="&#xd7;" d="M166 389l301 301l-301 301l135 135l301 -301l301 301l135 -135l-301 -301l299 -301l-133 -135l-301 301l-301 -301z" />
<glyph unicode="&#xd8;" horiz-adv-x="1316" d="M59 -55l168 241q-37 57 -67 121q-28 60 -45 119q-18 62 -27 125q-8 57 -8 135q0 157 43 285t121 221q75 90 184 143q105 51 238 51q46 0 84 -6q44 -7 73 -14q27 -7 74 -29q37 -18 84 -45l88 129h193l-168 -245l4 -5q145 -201 145 -497q0 -157 -43 -285 q-44 -132 -119 -221q-77 -92 -184 -141q-109 -50 -240 -50q-94 0 -174 25q-75 24 -141 74l-92 -131h-191zM348 678q0 -72 10 -150q7 -59 29 -125l467 707v-6q-22 22 -43 37q-20 14 -43 24q-24 10 -45 13q-32 4 -57 4q-84 0 -148 -37q-62 -36 -98 -103q-35 -72 -53 -165 q-19 -100 -19 -199zM475 248q50 -47 86 -60q43 -16 98 -16q82 0 152 43q68 42 104 115q60 123 60 344v74q0 25 -4 65q-2 20 -10 66q-2 13 -8.5 39t-8.5 38l-469 -706v-2z" />
<glyph unicode="&#xd9;" horiz-adv-x="1218" d="M137 469v895h252v-879q0 -158 60 -221q29 -33 81 -51t111 -18q61 0 119 22q57 22 84 62q49 64 49 208v879h194v-879h-2q0 -77 -6 -133q-6 -54 -18 -98q-10 -37 -35 -78q-19 -31 -55 -67q-131 -131 -363 -131q-235 0 -362 133q-61 64 -84 141q-25 83 -25 215zM299 1634 l61 152l408 -191l-39 -106z" />
<glyph unicode="&#xda;" horiz-adv-x="1218" d="M137 469v895h252v-879q0 -158 60 -221q29 -33 81 -51t111 -18q61 0 119 22q57 22 84 62q49 64 49 208v879h194v-879h-2q0 -77 -6 -133q-6 -54 -18 -98q-10 -37 -35 -78q-19 -31 -55 -67q-131 -131 -363 -131q-235 0 -362 133q-61 64 -84 141q-25 83 -25 215zM471 1595 l408 191l61 -152l-430 -145z" />
<glyph unicode="&#xdb;" horiz-adv-x="1218" d="M137 469v895h252v-879q0 -158 60 -221q29 -33 81 -51t111 -18q61 0 119 22q57 22 84 62q49 64 49 208v879h194v-879h-2q0 -77 -6 -133q-6 -54 -18 -98q-10 -37 -35 -78q-19 -31 -55 -67q-131 -131 -363 -131q-235 0 -362 133q-61 64 -84 141q-25 83 -25 215zM264 1516 l354 260l357 -260l-191 -21l-166 111l-165 -111z" />
<glyph unicode="&#xdc;" horiz-adv-x="1218" d="M141 473v895h252v-879q0 -158 60 -221q28 -33 82 -51q53 -18 110 -18q61 0 119 22q57 22 84 62q49 64 49 209v878h195v-878h-2q0 -69 -7 -134q-6 -54 -18 -98q-10 -37 -35 -78q-19 -31 -55 -67q-131 -131 -363 -131q-235 0 -362 133q-61 64 -84 141q-25 83 -25 215z M336 1624q0 44 31 80q29 33 77 33l2 2q51 0 80 -33q31 -36 31 -82q0 -49 -33 -78q-35 -30 -80 -30q-47 0 -77 30q-31 31 -31 78zM682 1622q0 44 31 80q29 33 78 33l2 2q50 0 79 -33q31 -36 31 -82q0 -49 -33 -78q-36 -31 -79 -31q-47 0 -78 31t-31 78z" />
<glyph unicode="&#xdd;" horiz-adv-x="1114" d="M-27 1366h297l324 -563l309 563h238l-443 -791v-575h-260v575zM432 1595l408 191l61 -152l-430 -145z" />
<glyph unicode="&#xde;" horiz-adv-x="1241" d="M150 0l4 1364h245v-193h314q101 0 161 -14q67 -16 125 -51q91 -60 136 -143q47 -86 47 -197q0 -95 -33 -168q-34 -76 -92 -131q-59 -56 -142 -86q-85 -31 -178 -31h-342v-350h-245zM399 559h291v-4q111 0 172 55q62 56 62 150q0 35 -17 84q-14 41 -43 67q-56 56 -196 56 h-269v-408z" />
<glyph unicode="&#xdf;" horiz-adv-x="1140" d="M16 721v178h111q3 51 6 98q2 34 10 78q7 38 15 66q13 44 20 61q47 116 156 182q112 68 254 68q80 0 153 -25q72 -24 123 -67q53 -44 82 -100q31 -60 31 -125q0 -80 -41 -148q-40 -67 -111 -102q-42 -22 -80 -33q-62 -18 -116 -29q-27 -24 -27 -39q0 -14 19 -24 q29 -15 84 -35q4 0 20 -8q23 -11 43 -19q36 -13 49 -20q26 -13 41 -19q234 -105 234 -327q0 -81 -31 -154q-30 -70 -86 -123t-133 -80q-79 -28 -170 -28q-58 0 -97 8q-35 7 -108 31l49 153q37 -9 68 -12q40 -4 73 -4q134 0 183 49q45 45 45 104q0 64 -45 109q-48 48 -156 96 q-51 22 -117 60q-43 25 -73 55q-26 26 -39 59t-13 72q0 53 21 100q21 46 76 113q35 14 43 16q104 39 143 78q37 37 37 103q0 71 -47 118q-45 45 -123 45q-99 0 -160 -67t-61 -180v-1147h-228l-16 815h-111z" />
<glyph unicode="&#xe0;" horiz-adv-x="1105" d="M68 289q0 117 73 196q75 81 215 115q56 12 80 16q65 10 86 11q52 3 101 6q37 2 120 2v76q0 155 -215 155q-104 0 -159 -37q-57 -38 -74 -118l-195 28q12 73 43 121q28 43 90 86q68 43 142 60q76 18 184 18q133 0 215 -27q83 -27 133 -86q19 -22 31 -43q12 -20 18 -49 q9 -41 11 -67q4 -54 4 -95v-454q0 -49 6 -99q5 -38 22 -106h-219l-4 2q-5 15 -14 51q-4 15 -8 49q-1 8 -3 25t-3 25q-6 49 -7 59q-24 -57 -45 -88q-23 -33 -51 -58q-46 -40 -110 -61q-61 -20 -136 -20q-71 0 -135 22q-59 20 -104 62t-68 98q-24 58 -24 125zM266 1337l68 150 l391 -219l-41 -107zM305 301q0 -70 47 -111q44 -38 129 -38q120 0 193 73q74 74 74 197v92l-3 -2q-217 0 -329 -53q-111 -53 -111 -158z" />
<glyph unicode="&#xe1;" horiz-adv-x="1105" d="M68 289q0 117 73 196q75 81 215 115q56 12 80 16q65 10 86 11q52 3 101 6q37 2 120 2v76q0 155 -215 155q-104 0 -159 -37q-57 -38 -74 -118l-195 28q12 73 43 121q28 43 90 86q68 43 142 60q76 18 184 18q133 0 215 -27q83 -27 133 -86q19 -22 31 -43q12 -20 18 -49 q9 -41 11 -67q4 -54 4 -95v-454q0 -49 6 -99q5 -38 22 -106h-219l-4 2q-5 15 -14 51q-4 15 -8 49q-1 8 -3 25t-3 25q-6 49 -7 59q-24 -57 -45 -88q-23 -33 -51 -58q-46 -40 -110 -61q-61 -20 -136 -20q-71 0 -135 22q-59 20 -104 62t-68 98q-24 58 -24 125zM305 301 q0 -70 47 -111q44 -38 129 -38q120 0 193 73q74 74 74 197v92l-3 -2q-217 0 -329 -53q-111 -53 -111 -158zM406 1268l393 219l65 -150l-415 -176z" />
<glyph unicode="&#xe2;" horiz-adv-x="1105" d="M68 289q0 117 73 196q75 81 215 115q56 12 80 16q65 10 86 11q52 3 101 6q37 2 120 2v76q0 155 -215 155q-104 0 -159 -37q-57 -38 -74 -118l-195 28q12 73 43 121q28 43 90 86q68 43 142 60q76 18 184 18q133 0 215 -27q83 -27 133 -86q19 -22 31 -43q12 -20 18 -49 q9 -41 11 -67q4 -54 4 -95v-454q0 -49 6 -99q5 -38 22 -106h-219l-4 2q-5 15 -14 51q-4 15 -8 49q-1 8 -3 25t-3 25q-6 49 -7 59q-24 -57 -45 -88q-23 -33 -51 -58q-46 -40 -110 -61q-61 -20 -136 -20q-71 0 -135 22q-59 20 -104 62t-68 98q-24 58 -24 125zM217 1188 l348 289l348 -289l-182 -21l-166 131l-168 -131zM305 301q0 -70 47 -111q44 -38 129 -38q120 0 193 73q74 74 74 197v92l-3 -2q-217 0 -329 -53q-111 -53 -111 -158z" />
<glyph unicode="&#xe3;" horiz-adv-x="1105" d="M59 287q0 116 74 196q75 81 215 115q56 12 80 16q65 10 86 11q57 4 100 6q37 2 121 2v76q0 155 -215 155q-105 0 -160 -37t-73 -118l-195 28q12 73 43 121q28 43 90 86q68 43 142 60q77 18 184 18q133 0 215 -27q83 -27 133 -86q19 -23 31 -43t18 -49q8 -34 10 -67 q5 -68 5 -95v-454q0 -49 6 -99q5 -38 22 -106h-219l-4 2q-5 15 -14 51q-6 23 -9 49q-1 8 -3 24.5t-3 24.5q-3 21 -6 60q-24 -57 -45 -88q-23 -33 -51 -58q-46 -40 -111 -61q-61 -20 -135 -20q-71 0 -135 22q-61 21 -104 61q-44 41 -68 99q-25 61 -25 125zM236 1305 q56 66 98 90q48 28 102 28q33 0 60 -8q25 -7 77 -31q43 -20 80 -32q27 -9 56 -9q30 0 57 17q26 16 55 61l70 -102l-8 -2q-25 -46 -86 -82q-56 -33 -117 -33q-59 0 -148 47q-58 28 -61 29q-18 6 -41 6q-28 0 -55 -18t-70 -64zM297 299q0 -70 47 -111q44 -38 129 -38 q120 0 193 73t73 197v92l-2 -2q-217 0 -329 -53q-111 -53 -111 -158z" />
<glyph unicode="&#xe4;" horiz-adv-x="1105" d="M72 293q0 117 73 196q75 81 215 115q69 15 80 17q53 8 86 10q52 3 101 6q37 2 121 2v76q0 155 -216 155q-106 0 -159 -36q-56 -38 -74 -119l-195 28q12 73 43 121q27 42 91 86q68 43 141 60q76 18 184 18q133 0 215 -27q83 -27 133 -86q19 -23 31 -43q13 -23 19 -49 q8 -34 10 -67q4 -54 4 -94v-455q0 -49 6 -98q4 -33 23 -107h-220l-4 2q-5 15 -14 51q-4 15 -8 49q-1 8 -3 25t-3 25q-6 49 -7 59q-24 -57 -45 -88q-21 -30 -51 -57q-48 -42 -110 -62q-61 -20 -136 -20q-71 0 -135 22q-59 20 -104 62t-68 98q-24 58 -24 125zM289 1300 q0 46 30 80q29 33 78 33l2 2q51 0 80 -33q31 -36 31 -82q0 -48 -33 -77q-36 -31 -80 -31q-47 0 -78 31q-30 30 -30 77zM309 305q0 -69 47 -110q45 -39 129 -39q120 0 193 73q74 74 74 197v92l-2 -2q-218 0 -330 -53q-111 -53 -111 -158zM621 1298q0 46 30 80q29 33 78 33 l2 2q51 0 80 -33q31 -36 31 -82q0 -48 -33 -77q-36 -31 -80 -31q-47 0 -78 31q-30 30 -30 77z" />
<glyph unicode="&#xe5;" horiz-adv-x="1105" d="M70 291q0 117 73 196q75 81 215 115q56 12 80 16q65 10 86 11q52 3 101 6q37 2 120 2v76q0 155 -215 155q-104 0 -159 -37q-57 -38 -74 -118l-195 28q12 73 43 121q27 42 91 86q68 43 141 60q76 18 184 18q133 0 215 -27q83 -27 133 -86q19 -23 31 -43t18 -49 q9 -41 11 -67q4 -54 4 -95v-454q0 -49 6 -99q5 -38 22 -106h-219l-4 2q-5 15 -14 51q-4 15 -8 49q-1 8 -3 25t-3 25q-6 49 -7 59q-24 -57 -45 -88q-21 -30 -51 -57q-48 -42 -110 -62q-61 -20 -136 -20q-71 0 -135 22q-59 20 -104 62t-68 98q-24 59 -24 125zM301 303 q0 -69 47 -110q45 -39 129 -39q120 0 193 73t73 197v92l-2 -2q-217 0 -329 -53q-111 -53 -111 -158zM367 1317q0 78 55 133t133 55l-4 -2q77 0 133 -53q55 -52 55 -133q0 -77 -55 -129q-56 -53 -131 -53t-131 53q-55 52 -55 129zM465 1319q0 -37 22 -59q23 -23 60 -23 q33 0 59 23q25 22 25 55q0 35 -21 59q-22 25 -55 25l-2 -2q-38 0 -64 -23q-24 -21 -24 -55z" />
<glyph unicode="&#xe6;" horiz-adv-x="1757" d="M72 283q0 163 153 252q152 88 441 88h39q7 0 24.5 -2t26.5 -3q0 60 -2 80q-4 35 -6 50q-2 12 -11 30q-5 11 -16 25q-52 55 -176 55q-180 0 -221 -139l-203 24q14 58 37 99q18 32 55 69q62 56 154 86q95 31 204 31q57 0 97 -6q39 -6 77 -18q27 -9 74 -35q35 -19 84 -56 q74 60 148 88q70 27 166 27q107 0 194 -35q89 -36 148 -98q58 -61 94 -156q33 -88 33 -207v-61h-713l-8 -8q3 -57 10 -103q6 -36 24 -77q27 -62 86 -97q58 -34 129 -34q170 0 234 159l211 -35q-44 -139 -166 -221t-291 -82q-130 0 -233 56t-160 155q-72 -108 -164 -161 q-86 -50 -209 -50q-165 0 -266 84q-98 82 -98 226zM317 291q0 -67 48 -109q47 -41 122 -41q87 0 154 49q70 51 90 125q7 22 10 35q4 20 4 35v43v66l3 4q-41 0 -66 -2q-12 -1 -37 -3.5t-37 -3.5q-43 -3 -69 -8q-33 -6 -52 -12q-170 -47 -170 -178zM975 621h469l-2 -3 q-9 117 -70 181q-60 63 -166 63q-99 0 -157 -61q-59 -62 -74 -180z" />
<glyph unicode="&#xe7;" horiz-adv-x="954" d="M68 500q0 123 32 215q34 96 93 168q59 71 141 108q81 37 184 37q99 0 172 -33q79 -36 129 -94q44 -50 60 -92q20 -51 34 -129l-196 -27q-24 189 -185 189q-102 0 -161 -92q-58 -91 -58 -256q0 -151 56 -234q57 -84 153 -84q151 0 197 193l196 -21q-35 -178 -137 -270 q-106 -95 -264 -98l-22 -74l-9 2q59 -3 80 -8q26 -6 49 -19q84 -47 84 -135q0 -68 -55 -117t-135 -49q-40 0 -86 12q-40 10 -117 48l33 79q43 -25 84 -38t72 -13q34 0 55 21q22 22 22 51q0 40 -41 61q-44 23 -110 23h-19q-14 0 -24 -2l51 158q-84 12 -150 55 q-65 42 -112 110q-48 70 -72 158q-24 89 -24 197z" />
<glyph unicode="&#xe8;" horiz-adv-x="1073" d="M74 494q0 117 35 217q34 97 96 168q61 71 147 108q84 37 195 37q219 0 336 -141q115 -139 118 -410h-692v-29q3 -140 66 -215q61 -73 176 -73q87 0 139 37q51 37 86 126l207 -28l6 -4q-53 -155 -166 -234q-115 -80 -282 -80q-109 0 -193 37q-86 38 -147 105 q-59 64 -95 164q-32 88 -32 215zM260 1337l66 150l393 -219l-43 -107zM309 625h457l-2 -4q-3 57 -12 92q-8 30 -37 67q-64 88 -176 88q-98 0 -156 -61q-59 -62 -74 -182z" />
<glyph unicode="&#xe9;" horiz-adv-x="1073" d="M74 494q0 117 35 217q34 97 96 168q61 71 147 108q84 37 195 37q219 0 336 -141q115 -139 118 -410h-692v-29q3 -140 66 -215q61 -73 176 -73q87 0 139 37q51 37 86 126l207 -28l6 -4q-53 -155 -166 -234q-115 -80 -282 -80q-109 0 -193 37q-86 38 -147 105 q-59 64 -95 164q-32 88 -32 215zM309 625h457l-2 -4q-3 57 -12 92q-8 30 -37 67q-64 88 -176 88q-98 0 -156 -61q-59 -62 -74 -182zM410 1268l393 219l65 -150l-415 -176z" />
<glyph unicode="&#xea;" horiz-adv-x="1073" d="M74 494q0 117 35 217q34 97 96 168q61 71 147 108q84 37 195 37q219 0 336 -141q115 -139 118 -410h-692v-29q3 -140 66 -215q61 -73 176 -73q87 0 139 37q51 37 86 126l207 -28l6 -4q-53 -155 -166 -234q-115 -80 -282 -80q-109 0 -193 37q-86 38 -147 105 q-59 64 -95 164q-32 88 -32 215zM217 1188l348 289l346 -289l-180 -21l-166 131l-168 -131zM309 625h457l-2 -4q-3 57 -12 92q-8 30 -37 67q-64 88 -176 88q-98 0 -156 -61q-59 -62 -74 -182z" />
<glyph unicode="&#xeb;" horiz-adv-x="1073" d="M78 498q0 117 35 217q34 97 96 168q61 71 147 108q84 37 195 37q219 0 336 -141q116 -140 119 -410h-693v-28q3 -141 66 -216q61 -73 176 -73q87 0 139 37q51 36 86 127l207 -29l6 -4q-53 -155 -166 -234q-115 -80 -282 -80q-109 0 -193 37q-86 38 -147 105 q-57 63 -94 164q-33 90 -33 215zM289 1300q0 46 30 80q29 33 78 33l2 2q51 0 80 -33q31 -36 31 -82q0 -48 -33 -77q-36 -31 -80 -31q-47 0 -78 31q-30 30 -30 77zM313 629h457l-2 -4q-3 57 -12 92q-8 30 -37 67q-64 88 -176 88q-98 0 -156 -61q-59 -62 -74 -182zM621 1298 q0 46 30 80q29 33 78 33l2 2q51 0 80 -33q31 -36 31 -82q0 -48 -33 -77q-36 -31 -80 -31q-47 0 -78 31q-30 30 -30 77z" />
<glyph unicode="&#xec;" horiz-adv-x="501" d="M-33 1343l74 144l344 -219l-41 -107zM137 0v1010h228v-1010h-228z" />
<glyph unicode="&#xed;" horiz-adv-x="501" d="M117 1268l344 219l74 -144l-375 -182zM137 0v1010h228v-1010h-228z" />
<glyph unicode="&#xee;" horiz-adv-x="501" d="M-49 1188l299 289l301 -289l-174 -21l-127 131l-125 -131zM137 0v1010h228v-1010h-228z" />
<glyph unicode="&#xef;" horiz-adv-x="501" d="M0 1296q0 45 31 76t75 31l-2 -2q45 0 76 -31t31 -76t-31 -73q-32 -29 -76 -29q-42 0 -73 31t-31 73zM131 -4v1010h227v-1010h-227zM283 1298q0 46 30 76q31 31 76 31l-2 -2q45 0 76 -31t31 -76t-31 -73q-32 -29 -76 -29q-43 0 -74 31q-30 30 -30 73z" />
<glyph unicode="&#xf0;" horiz-adv-x="1083" d="M72 496q0 110 34 200q36 95 93 164q59 70 135 111q77 41 166 41q70 0 123 -27q50 -26 110 -92q-19 74 -61 154q-46 87 -94 135l-193 -97l-59 84l168 91l-5 -5q-29 20 -71 41q-101 49 -113 54l43 80q10 -2 31.5 -8.5t30.5 -8.5q32 -8 71 -24q31 -13 74 -33q32 -15 68 -37 l194 96l72 -78l-176 -90q146 -149 223 -334q76 -183 76 -391q0 -120 -35 -223q-34 -101 -96 -172q-61 -70 -148 -111q-82 -39 -192 -39q-237 0 -363 179q-53 72 -80 159q-26 85 -26 181zM303 489q0 -65 16 -131q13 -54 43 -112q55 -88 170 -88q106 0 168 86t62 239 q0 155 -60 246q-58 88 -163 88l-2 -8q-71 0 -115 -27t-74 -92q-21 -44 -33 -96t-12 -105z" />
<glyph unicode="&#xf1;" horiz-adv-x="1107" d="M145 -6v1010h207v-234q65 139 135 197q71 59 177 59q89 0 165 -43q78 -44 111 -106q23 -50 31 -99q10 -58 10 -129v-651h-227l-2 625q0 92 -43 147t-115 55q-61 0 -107 -32q-50 -35 -77 -93q-37 -73 -37 -188v-518h-228zM225 1305q55 64 99 90q48 28 102 28q31 0 55 -8 q20 -7 74 -31q43 -20 80 -32q27 -9 53 -9q31 0 55 17q27 19 54 61l69 -102l8 -2q-25 -46 -86 -82q-56 -33 -116 -33q-59 0 -148 47q-12 5 -26.5 12t-23 11t-13.5 6q-18 6 -41 6q-24 0 -51 -18q-30 -20 -74 -64z" />
<glyph unicode="&#xf2;" horiz-adv-x="1083" d="M76 504q0 113 35 209q36 99 98 164q65 68 149 108q82 39 191 39l8 -4q130 0 221 -49q93 -50 160 -158q48 -74 66 -145q18 -74 18 -172q0 -117 -35 -213q-36 -99 -98 -164t-154 -107q-85 -39 -196 -39q-237 0 -363 187q-100 147 -100 344zM244 1337l65 150l393 -219 l-40 -107zM315 502q0 -161 60 -252q58 -88 166 -88q111 0 170 90q59 89 59 256t-57 250q-59 86 -168 86l4 -6q-110 0 -172 -86t-62 -250z" />
<glyph unicode="&#xf3;" horiz-adv-x="1083" d="M76 504q0 113 35 209q36 99 98 164q65 68 149 108q82 39 191 39l8 -4q130 0 221 -49q93 -50 160 -158q48 -74 66 -145q18 -74 18 -172q0 -117 -35 -213q-36 -99 -98 -164t-154 -107q-85 -39 -196 -39q-237 0 -363 187q-100 147 -100 344zM315 502q0 -161 60 -252 q58 -88 166 -88q111 0 170 90q59 89 59 256t-57 250q-59 86 -168 86l4 -6q-110 0 -172 -86t-62 -250zM393 1268l393 219l66 -150l-416 -176z" />
<glyph unicode="&#xf4;" horiz-adv-x="1083" d="M76 504q0 113 35 209q36 99 98 164q65 68 149 108q82 39 191 39l8 -4q130 0 221 -49q93 -50 160 -158q48 -74 66 -145q18 -74 18 -172q0 -117 -35 -213q-36 -99 -98 -164t-154 -107q-85 -39 -196 -39q-237 0 -363 187q-100 147 -100 344zM201 1188l348 289l346 -289 l-180 -21l-166 131l-168 -131zM315 502q0 -161 60 -252q58 -88 166 -88q111 0 170 90q59 89 59 256t-57 250q-59 86 -168 86l4 -6q-110 0 -172 -86t-62 -250z" />
<glyph unicode="&#xf5;" horiz-adv-x="1083" d="M84 502q0 113 35 209q36 98 98 163q66 69 150 109q82 39 190 39l8 -4q130 0 221 -49q93 -50 160 -158q48 -74 66 -145q18 -73 18 -172q0 -117 -35 -213q-36 -99 -98 -164t-154 -107q-85 -39 -196 -39q-237 0 -363 187q-100 147 -100 344zM246 1305q56 66 98 90 q48 28 102 28q32 0 56 -8q17 -6 73 -31q43 -20 80 -32q27 -9 54 -9q31 0 55 17q25 18 53 61l70 -102l8 -2q-25 -46 -86 -82q-56 -33 -117 -33q-58 0 -147 47q-12 5 -27 12t-23.5 11t-13.5 6q-18 6 -41 6q-24 0 -51 -18q-30 -20 -74 -64zM324 500q0 -163 59 -252 q58 -88 166 -88q111 0 170 90q59 89 59 256t-57 250q-59 86 -168 86l4 -6q-110 0 -172 -86q-61 -85 -61 -250z" />
<glyph unicode="&#xf6;" horiz-adv-x="1083" d="M80 508q0 113 35 209q36 99 98 164q65 68 149 108q82 39 191 39l8 -4q130 0 221 -49q93 -50 160 -158q48 -74 66 -145q18 -74 18 -172q0 -117 -35 -213q-36 -99 -98 -164t-154 -107q-85 -39 -196 -39q-237 0 -363 187q-100 147 -100 344zM272 1300q0 44 31 80 q29 33 78 33l2 2q51 0 80 -33q31 -36 31 -82q0 -48 -33 -77q-36 -31 -80 -31q-47 0 -78 31t-31 77zM319 506q0 -161 60 -252q58 -88 166 -88q111 0 170 90q59 89 59 256t-57 250q-59 86 -168 86l4 -6q-110 0 -172 -86t-62 -250zM604 1298q0 44 31 80q29 33 78 33l2 2 q51 0 80 -33q30 -34 30 -82q0 -49 -32 -77q-36 -31 -80 -31q-47 0 -78 31t-31 77z" />
<glyph unicode="&#xf7;" d="M94 594v190h1012v-190h-1012zM473 340q0 49 37 86t90 37q49 0 86 -37t37 -88t-37 -88t-88 -37t-88 37t-37 90zM473 1036q0 49 37 86t90 37q49 0 86 -37t37 -88t-37 -88t-88 -37t-88 37t-37 90z" />
<glyph unicode="&#xf8;" horiz-adv-x="1083" d="M63 -70l134 187q-71 92 -101 184q-30 91 -30 205q0 120 34 213q35 96 99 166q65 71 153 108q87 37 197 37q76 0 125 -14q54 -15 123 -55l71 98h144l-129 -176l-13 -2q39 -52 62 -93q30 -55 41 -86q17 -49 22 -92q6 -49 6 -106q0 -119 -34 -217q-34 -97 -99 -168 q-63 -69 -153 -107q-87 -37 -197 -37q-71 0 -121 15q-47 14 -112 49l-80 -109h-142zM297 502q0 -52 6 -92q2 -17 23 -105l336 490l-5 -4q-35 27 -61 36q-33 11 -74 11q-108 0 -166 -88q-59 -89 -59 -248zM401 205q34 -24 62 -33q24 -8 63 -8q113 0 172 90q60 91 60 264 q0 58 -6 92q-5 28 -25 80l-324 -483z" />
<glyph unicode="&#xf9;" horiz-adv-x="1103" d="M137 301v707h234v-658q0 -41 6 -65q5 -18 16 -45q20 -33 53 -50q34 -18 72 -18q59 0 115 41t80 102q17 45 22 86q6 47 6 123v486h228v-1010h-213l-2 215q-19 -59 -43 -98q-19 -32 -62 -68q-89 -74 -213 -74q-162 0 -248 123q-26 39 -38 86q-13 50 -13 117zM256 1337 l66 150l393 -219l-43 -107z" />
<glyph unicode="&#xfa;" horiz-adv-x="1103" d="M137 301v707h234v-658q0 -41 6 -65q5 -18 16 -45q20 -33 53 -50q34 -18 72 -18q59 0 115 41t80 102q17 45 22 86q6 47 6 123v486h228v-1010h-213l-2 215q-19 -59 -43 -98q-19 -32 -62 -68q-89 -74 -213 -74q-162 0 -248 123q-26 39 -38 86q-13 50 -13 117zM406 1268 l393 219l65 -150l-415 -176z" />
<glyph unicode="&#xfb;" horiz-adv-x="1103" d="M137 301v707h234v-658q0 -41 6 -65q5 -18 16 -45q20 -33 53 -50q34 -18 72 -18q59 0 115 41t80 102q17 45 22 86q6 47 6 123v486h228v-1010h-213l-2 215q-19 -59 -43 -98q-19 -32 -62 -68q-89 -74 -213 -74q-162 0 -248 123q-26 39 -38 86q-13 50 -13 117zM205 1188 l348 289l348 -289l-180 -21l-168 131l-168 -131z" />
<glyph unicode="&#xfc;" horiz-adv-x="1103" d="M141 305v707h234v-658q0 -41 6 -65q5 -18 16 -45q18 -30 54 -49t71 -19q59 0 115 41t80 102q17 45 22 87q6 46 6 122v486h228v-1010h-213l-2 215q-19 -59 -43 -98q-19 -32 -62 -68q-88 -73 -213 -73q-162 0 -247 122q-27 41 -39 86q-13 50 -13 117zM276 1300q0 44 31 80 q29 33 78 33l2 2q51 0 80 -33q31 -36 31 -82q0 -48 -33 -77q-36 -31 -80 -31q-47 0 -78 31t-31 77zM610 1298q0 44 31 80q29 33 78 33l2 2q51 0 80 -33q30 -34 30 -82q0 -49 -32 -77q-36 -31 -80 -31q-47 0 -78 31t-31 77z" />
<glyph unicode="&#xfd;" horiz-adv-x="905" d="M14 1010h238l246 -668l211 668h182l-393 -1151h-2q-41 -118 -105 -170q-66 -54 -168 -54q-20 0 -57 3q-12 1 -36.5 3t-37.5 3v180q23 -2 62 -2h51q101 0 135 57q5 7 12 29l15 37q9 19 12 32q4 20 4 21q0 2 -2.5 8.5t-8.5 22.5l-12 32zM324 1268l393 219l65 -150 l-415 -176z" />
<glyph unicode="&#xfe;" horiz-adv-x="1097" d="M135 1368h227v-512q45 83 121 131q71 45 172 45q165 0 260 -133q109 -157 109 -387q0 -250 -119 -408q-46 -64 -110 -94q-65 -30 -154 -30q-183 0 -276 161v-483h-228zM362 412q0 -112 62 -183t158 -71q95 0 147 88q53 89 53 248q0 166 -53 258t-147 92q-96 0 -158 -80 t-62 -205v-143v-4z" />
<glyph unicode="&#xff;" horiz-adv-x="905" d="M14 1010h238l246 -668l211 668h182l-393 -1151h-2q-41 -118 -105 -170q-66 -54 -168 -54q-20 0 -57 3q-12 1 -36.5 3t-37.5 3v180q23 -2 62 -2h51q101 0 135 57q5 7 12 29l15 37q9 19 12 32q4 20 4 21q0 2 -2.5 8.5t-8.5 22.5l-12 32zM195 1300q0 46 30 80q29 33 78 33 l2 2q51 0 80 -33q31 -36 31 -82q0 -48 -33 -77q-36 -31 -80 -31q-47 0 -78 31q-30 30 -30 77zM528 1298q0 44 31 80q29 33 78 33l2 2q51 0 80 -33q31 -36 31 -82q0 -48 -33 -77q-36 -31 -80 -31q-47 0 -78 31t-31 77z" />
<glyph unicode="&#x152;" horiz-adv-x="1925" d="M76 690q0 154 41 285q41 130 114 221t179 141q104 49 231 49q91 0 164 -18q77 -19 147 -63v61h910l-2 -203h-664v-375h528v-194h-528v-387h664v-211h-910v67q-69 -46 -141 -67q-71 -21 -160 -21q-127 0 -231 52q-102 51 -180 147q-75 92 -119 227q-43 130 -43 289z M342 694q0 -255 80 -385q80 -129 237 -129q62 0 123 25q57 24 105 65q34 30 47 66q13 38 16 98v479l-6 -2q-3 65 -18 105t-49 74q-41 41 -97 65q-58 25 -114 25q-62 0 -129 -31q-65 -30 -105 -82q-49 -61 -70 -149q-20 -84 -20 -224z" />
<glyph unicode="&#x153;" horiz-adv-x="1728" d="M70 510q0 120 34 213q34 94 97 166q61 71 147 108q84 37 191 37q111 0 186 -37q76 -37 137 -116q62 80 146 116q81 35 196 35q213 0 332 -137q121 -139 121 -381v-35h-690l-9 4q0 -153 62 -233t182 -80q168 0 221 156l209 -33q-14 -44 -33 -80q-16 -30 -53 -74 q-73 -82 -155 -119q-79 -36 -199 -36q-122 0 -197 34q-77 34 -135 117q-70 -82 -145 -117q-68 -32 -185 -32q-112 0 -190 34t-143 111q-127 151 -127 379zM295 498q0 -158 59 -244t166 -86q111 0 170 90q60 91 60 264q0 72 -11 133q-9 47 -34 90q-28 48 -76 74 q-49 27 -107 27l-2 -2q-107 0 -166 -90q-59 -89 -59 -256zM961 625h454l-2 -2q-3 115 -63 178q-62 65 -162 65q-206 0 -227 -241z" />
<glyph unicode="&#x178;" horiz-adv-x="1114" d="M-23 1370h297l324 -563l309 563h238l-443 -790v-576h-260v576zM295 1624q0 44 31 80q29 33 77 33l3 2q50 0 79 -33q31 -36 31 -82q0 -49 -33 -78q-35 -30 -80 -30q-47 0 -77 30q-31 31 -31 78zM641 1622q0 44 31 80q29 33 78 33l2 2q50 0 79 -33q31 -36 31 -82 q0 -49 -33 -78q-36 -31 -79 -31q-47 0 -78 31t-31 78z" />
<glyph unicode="&#x2c6;" horiz-adv-x="1024" d="M164 1188l348 289l348 -289l-182 -21l-166 131l-168 -131z" />
<glyph unicode="&#x2dc;" horiz-adv-x="1024" d="M180 1305q56 65 101 90q51 28 102 28q32 0 59 -8q28 -8 78 -31q43 -20 80 -32q27 -9 55 -9q31 0 58 17q26 16 55 61l70 -102l-11 -2q-25 -46 -86 -82q-56 -33 -116 -33q-59 0 -148 47q-58 28 -61 29q-18 6 -41 6q-29 0 -56 -18q-24 -16 -69 -64z" />
<glyph unicode="&#x2000;" horiz-adv-x="912" />
<glyph unicode="&#x2001;" horiz-adv-x="1825" />
<glyph unicode="&#x2002;" horiz-adv-x="912" />
<glyph unicode="&#x2003;" horiz-adv-x="1825" />
<glyph unicode="&#x2004;" horiz-adv-x="608" />
<glyph unicode="&#x2005;" horiz-adv-x="456" />
<glyph unicode="&#x2006;" horiz-adv-x="304" />
<glyph unicode="&#x2007;" horiz-adv-x="304" />
<glyph unicode="&#x2008;" horiz-adv-x="228" />
<glyph unicode="&#x2009;" horiz-adv-x="365" />
<glyph unicode="&#x200a;" horiz-adv-x="101" />
<glyph unicode="&#x2010;" horiz-adv-x="493" d="M-4 426v186h502v-186h-502z" />
<glyph unicode="&#x2011;" horiz-adv-x="493" d="M-4 426v186h502v-186h-502z" />
<glyph unicode="&#x2012;" horiz-adv-x="493" d="M-4 426v186h502v-186h-502z" />
<glyph unicode="&#x2013;" d="M186 424v188h830v-188h-830z" />
<glyph unicode="&#x2014;" horiz-adv-x="1366" d="M-72 428v186h1508v-186h-1508z" />
<glyph unicode="&#x2018;" horiz-adv-x="493" d="M133 872v226l154 268h73l-110 -268h110v-226h-227z" />
<glyph unicode="&#x2019;" horiz-adv-x="493" d="M133 872l111 269h-111v225h227v-225l-153 -269h-74z" />
<glyph unicode="&#x201a;" horiz-adv-x="493" d="M133 0v225h227v-225l-153 -268h-74l111 268h-111z" />
<glyph unicode="&#x201c;" horiz-adv-x="768" d="M129 870v226l150 270h86l-115 -270h96v-226h-217zM418 870v226l149 270h72l-107 -270h107v-226h-221z" />
<glyph unicode="&#x201d;" horiz-adv-x="768" d="M129 870l107 269h-107v227h221v-227l-149 -269h-72zM406 870l114 269h-96v227h215v-227l-150 -269h-83z" />
<glyph unicode="&#x201e;" horiz-adv-x="768" d="M129 0v227h221v-227l-149 -268h-72l107 268h-107zM406 -268l114 268h-96v227h215v-227l-150 -268h-83z" />
<glyph unicode="&#x2022;" horiz-adv-x="1366" d="M401 694q0 54 23 111q21 53 61 90q41 38 93 59q58 23 110 23l-4 2q54 0 111 -23q53 -21 90 -61q39 -42 59 -92q23 -58 23 -111q0 -52 -23 -110q-19 -48 -59 -88t-90 -60q-55 -22 -111 -22t-111 22q-50 20 -90 60q-38 38 -59 90q-23 57 -23 110z" />
<glyph unicode="&#x2026;" horiz-adv-x="1517" d="M129 0v262h248v-262h-248zM635 0v262h246v-262h-246zM1141 0v262h248v-262h-248z" />
<glyph unicode="&#x202f;" horiz-adv-x="365" />
<glyph unicode="&#x2039;" horiz-adv-x="417" d="M76 524l160 293h94l-94 -293l94 -280h-94z" />
<glyph unicode="&#x203a;" horiz-adv-x="417" d="M88 244l94 280l-94 293h94l160 -293l-160 -280h-94z" />
<glyph unicode="&#x205f;" horiz-adv-x="456" />
<glyph unicode="&#x20ac;" d="M10 743l47 121h82q46 254 185 387t356 133q73 0 151 -16q76 -16 136 -49q25 -11 57 -35q21 -16 61 -59l-86 -228q-53 64 -81 90q-48 44 -76 60q-41 23 -74 31q-42 10 -80 10q-233 0 -289 -324h551l-47 -121h-516v-55l2 -59v-6h469l-47 -121h-410q59 -318 301 -318 q89 0 168 43q82 45 134 115v-285q-52 -27 -80 -39q-36 -16 -68 -24q-35 -9 -74 -12q-27 -2 -94 -2q-183 0 -295 75q-114 76 -190 242q-26 60 -37 98q-17 55 -25 109h-129l45 119h70q-2 14 -2 30v25l2 59v6h-117z" />
<glyph unicode="&#x2122;" horiz-adv-x="1591" d="M2 1233v133h616v-133h-219v-645h-180v645h-217zM686 588v778h250l164 -467l160 467h251v-778h-172v610l-209 -610h-94l-209 612v-612h-141z" />
<glyph unicode="&#x25fc;" horiz-adv-x="1013" d="M0 0v1014h1014v-1014h-1014z" />
<glyph unicode="&#xfb01;" horiz-adv-x="1105" d="M18 827v179h150q3 107 18 163t50 103q43 56 104 84q64 30 147 30q38 0 56 -2q7 -1 35 -3.5t49 -4.5v-180h-31q-60 0 -98 -6q-35 -6 -58 -25q-22 -19 -28 -49t-6 -82v-24h223v-179h-223v-831h-236l-2 827h-150zM731 -4v1010h236v-1010h-236zM731 1122v240h236v-240h-236z " />
<glyph unicode="&#xfb02;" horiz-adv-x="1105" d="M14 825v179h152q3 48 6 92q2 30 10 69q6 30 19 56q14 27 30 49q81 112 254 112q42 0 62 -2q71 -7 78 -8v-182q-12 2 -35 2h-25q-107 0 -145 -59q-2 -4 -5 -11l-3 -6q-4 -8 -4 -18v-33v-55h221v-179h-221v-831h-236l-6 825h-152zM727 -6v1366h236v-1366h-236z" />
</font>
</defs>
</svg>
