<?xml version="1.0" standalone="no"?>
<!DOCTYPE svg PUBLIC "-//W3C//DTD SVG 1.1//EN" "http://www.w3.org/Graphics/SVG/1.1/DTD/svg11.dtd" >
<svg xmlns="http://www.w3.org/2000/svg">
<metadata></metadata>
<defs>
<font id="urwfranklingothicw02light" horiz-adv-x="1202" >
<font-face units-per-em="2048" ascent="1526" descent="-522" />
<missing-glyph horiz-adv-x="512" />
<glyph horiz-adv-x="0" />
<glyph horiz-adv-x="682" />
<glyph unicode=" "  horiz-adv-x="512" />
<glyph unicode="&#x09;" horiz-adv-x="512" />
<glyph unicode="&#xa0;" horiz-adv-x="512" />
<glyph unicode="!" horiz-adv-x="542" d="M168 1366h203l-66 -1063h-74zM178 0v193h189v-193h-189z" />
<glyph unicode="&#x22;" horiz-adv-x="581" d="M104 1366h127l-26 -518h-72zM350 1366h127l-28 -518h-72z" />
<glyph unicode="#" d="M72 449l16 90h223l58 323h-226l17 88h225l72 416h102l-72 -416h324l74 416h102l-74 -416h217l-16 -88h-215l-57 -323h215l-15 -88h-217l-80 -451h-102l80 451h-326l-80 -451h-100l80 449h-225zM414 539h325l56 323h-324z" />
<glyph unicode="$" d="M119 352l96 54q38 -99 119 -160q82 -61 190 -70v498q-63 18 -88 26q-24 8 -63 25q-24 11 -49 25q-19 11 -43 28q-47 35 -74 96t-27 127q0 72 35 140q35 69 86 108q41 32 92 51q60 22 135 35v176h115v-176q81 -9 139 -24q57 -15 103 -43q44 -27 78 -70t61 -104l-100 -45 q-21 82 -95 129t-186 53v-465q43 -8 80 -18q45 -9 74 -21q33 -13 55 -27q34 -21 53 -36q62 -47 99 -113q36 -65 36 -135q0 -82 -41 -162q-41 -81 -104 -123q-53 -34 -100 -47q-61 -17 -154 -25v-196h-115l-4 198q-161 20 -260 91q-93 66 -143 200zM285 1008q0 -170 237 -228 v447q-237 -37 -237 -219zM637 172q71 6 111 18q32 9 79 41q42 28 66 72q25 45 25 96t-25 99q-23 45 -62 73q-41 30 -77 43q-44 16 -117 25v-463v-4z" />
<glyph unicode="%" horiz-adv-x="1421" d="M92 1014q0 155 72 252q72 96 190 96v-6q120 0 195 -96q74 -95 74 -252q0 -73 -19 -138q-18 -62 -55 -108q-40 -50 -86 -72q-49 -24 -107 -24t-108 24q-48 23 -84 72q-36 48 -53 110q-19 68 -19 142zM166 1022q0 -146 51 -223q53 -80 143 -80q87 0 136 76t49 209 q0 151 -49 233q-50 84 -142 84v-6q-90 0 -139 -76t-49 -217zM291 0l809 1366h86l-807 -1366h-88zM856 324q0 154 72 251t190 97v-6q120 0 195 -97q73 -94 73 -252q0 -75 -18 -137t-55 -108q-40 -50 -86 -72q-52 -25 -107 -25q-56 0 -108 25q-48 23 -84 72q-37 50 -54 110 q-18 65 -18 142zM930 332q0 -146 51 -223q53 -80 143 -80q87 0 136 75q49 76 49 209q0 152 -49 234q-50 84 -142 84v-6q-90 0 -139 -76t-49 -217z" />
<glyph unicode="&#x26;" horiz-adv-x="1314" d="M80 352q0 66 24 133q22 62 72 125q33 42 96 80q64 39 162 78q-67 103 -110 203q-39 91 -39 155q0 46 24 99q22 48 66 92q77 74 209 74q136 0 219 -80q84 -81 84 -211q0 -62 -21 -117q-21 -56 -57 -92q-18 -22 -37 -37q-9 -7 -43 -33q-27 -20 -59 -37q-34 -18 -84 -45 l282 -485q54 69 72 98q33 52 55 99q28 62 43 112q23 80 35 139l109 -26q-12 -64 -39 -133q-27 -70 -62 -142q-38 -78 -73 -131q-42 -64 -80 -102q29 -39 61 -55q30 -15 90 -15q47 0 142 21v-109l-15 -16q-60 -16 -80 -19q-34 -6 -67 -6q-75 0 -123 25q-43 22 -98 90 q-50 -43 -82 -64q-35 -22 -74 -38q-38 -15 -74 -21q-38 -6 -84 -6q-93 0 -178 31q-83 30 -141 82t-92 125q-33 70 -33 159zM199 352q0 -152 88 -225q44 -36 110 -57q65 -21 131 -21q40 0 74 6q29 5 64 19q26 10 61 35q30 21 64 55l-312 520h-6q-43 -19 -113 -53 q-36 -17 -61 -39q-100 -87 -100 -240zM395 1106q0 -15 4 -43q3 -18 13 -49q6 -19 28 -64q5 -11 12.5 -24.5t18 -31.5t16.5 -30q5 -9 37 -65l76 43q97 60 135 112q41 56 41 127q0 88 -57 142q-58 55 -148 55q-78 0 -127 -49t-49 -123z" />
<glyph unicode="'" horiz-adv-x="337" d="M104 1366h127l-26 -518h-72z" />
<glyph unicode="(" horiz-adv-x="600" d="M125 489q0 68 10 160q7 66 29 166q15 71 43 162q22 74 59 149q11 27 21 41q4 7 13 21.5t13 21.5q22 36 35 60q6 12 22.5 40.5t24.5 43.5h90q-117 -182 -176 -400q-59 -219 -59 -454q0 -140 29 -295q27 -145 86 -299q9 -27 22 -53q9 -18 25 -54q11 -24 30 -61 q7 -13 24.5 -42t22.5 -38h-90l-4 -12q-44 62 -73 114q-53 97 -56 103q-34 69 -61 149q-26 77 -45 160q-18 78 -27 160q-8 71 -8 157z" />
<glyph unicode=")" horiz-adv-x="600" d="M113 1366h88l2 -8q136 -195 203 -408t67 -432q0 -68 -10 -160q-7 -64 -29 -165q-15 -71 -43 -162q-26 -88 -57 -150l-21 -41q-9 -21 -24 -45q-1 -1 -15 -23t-22 -36q-41 -68 -49 -82h-88q118 183 176 399q59 219 59 455q0 116 -12 221q-10 89 -41 209q-26 100 -74 209 q-50 113 -110 219z" />
<glyph unicode="*" d="M156 1012l45 127l377 -174l-46 393h138l-43 -393l374 174l46 -127l-422 -80l282 -297l-110 -78l-195 348l-196 -348l-111 78l283 297z" />
<glyph unicode="+" d="M137 625v112h400v418h129v-418h399v-112h-399v-418h-129v418h-400z" />
<glyph unicode="," horiz-adv-x="522" d="M135 -240l119 240h-94v215h202v-192l-143 -263h-84z" />
<glyph unicode="-" horiz-adv-x="522" d="M47 463v90h426v-90h-426z" />
<glyph unicode="." horiz-adv-x="522" d="M156 0v205h211v-205h-211z" />
<glyph unicode="/" horiz-adv-x="905" d="M-86 -342l791 1708h129l-791 -1708h-129z" />
<glyph unicode="0" d="M90 698q0 184 55 336q57 156 154 246q59 56 135 86q79 31 166 31l-2 -6q209 0 338 -150q81 -93 127 -242q47 -152 47 -315q0 -96 -14 -176q-15 -84 -43 -164q-25 -72 -68 -143q-42 -70 -88 -113q-130 -121 -303 -121q-89 0 -174 43q-87 44 -150 119q-35 41 -73 111 q-33 62 -58 141q-25 81 -37 158q-12 79 -12 159zM223 690q0 -140 27 -254q26 -108 78 -192q49 -78 121 -123q70 -43 159 -43q78 0 146 41t120 117q28 50 41 86q20 56 31 108q18 89 23 123q8 57 8 129q0 86 -12 166t-33 147q-20 65 -49 121q-25 48 -66 86q-86 80 -219 80l2 8 q-154 0 -242 -104q-33 -38 -55 -86q-27 -59 -43 -119q-18 -67 -27 -141q-10 -82 -10 -150z" />
<glyph unicode="1" d="M211 -4v90h410v1151q-79 -95 -168 -168q-82 -68 -209 -149v133q117 75 215 157q89 75 153 152l29 31h100v-1303h381v-90z" />
<glyph unicode="2" d="M236 -6v100q25 22 64.5 57t47.5 42q44 39 94 79q16 12 47 36.5t46 37.5q4 3 42.5 34.5t61.5 49.5q71 58 123 105q54 48 92 83q42 39 68 72q40 51 49 64q45 65 67 127q21 59 21 123q0 60 -27 116q-25 51 -74 94q-45 40 -108 64q-64 25 -131 25q-87 0 -160 -37 q-75 -38 -127 -105q-35 -44 -49 -82q-15 -41 -21 -104l-120 43q11 43 24 80q8 22 25 61q12 26 28 49q15 21 37 43q59 64 158 107q91 39 203 39q97 0 182 -31t148 -82q61 -50 100 -123q37 -70 37 -153q0 -218 -242 -451q-58 -57 -125 -119q-45 -41 -135 -119 q-23 -20 -135 -112q-2 -2 -127 -101h774v-106z" />
<glyph unicode="3" d="M68 287l122 51q18 -55 43 -100q20 -36 50 -66q46 -46 118 -66q80 -22 174 -22q225 0 310 102q69 84 69 187q0 139 -108 213q-107 73 -314 73h-151v109l168 -10q203 0 280 92q64 76 64 168q0 54 -25 106q-24 50 -67 84q-45 35 -99 56q-53 20 -122 20q-70 0 -144 -27 t-119 -69q-25 -25 -45 -58t-39 -81l-118 45q34 63 61 104q26 38 62 70q60 57 155 92q90 33 199 33q94 0 174 -27q82 -28 139 -76q58 -49 92 -116q33 -65 33 -144q0 -64 -24 -123q-23 -56 -72 -102q-32 -32 -68 -51q-42 -22 -98 -35q153 -27 240 -117q86 -89 86 -221 q0 -108 -50 -197q-50 -88 -141 -141q-64 -37 -143 -55q-84 -19 -185 -19q-91 0 -178 17q-74 14 -137 53q-59 36 -106 98q-44 58 -86 150z" />
<glyph unicode="4" d="M61 332v82l637 981h193v-965h229v-98h-229v-332h-121v332h-709zM211 430h559v875z" />
<glyph unicode="5" d="M84 262l102 57q58 -130 144 -192q85 -61 217 -61q86 0 162 28q69 25 125 78q51 48 79 121q29 76 29 158q0 79 -24 147q-24 67 -72 115q-46 46 -111 73t-141 27q-108 0 -191 -47q-82 -46 -159 -152l-92 23l28 729h789l-11 -115l-694 2l-26 -467q55 45 92 68q44 27 84 45 q44 20 80 25q40 6 86 6q102 0 186 -37q87 -38 149 -100q61 -61 101 -152q37 -84 37 -188q0 -217 -152 -351q-68 -62 -166 -98q-96 -35 -196 -35q-95 0 -183 31q-84 30 -157 96q-32 28 -43 39q-19 19 -31 37q-15 23 -23 41q-8 17 -18 49z" />
<glyph unicode="6" d="M117 633q0 184 43 332t127 264q125 168 385 168q316 0 430 -295l-125 -41l-6 -12q-49 110 -123 163q-76 54 -184 54q-128 0 -228 -74q-97 -72 -147 -209q-21 -59 -33 -149q-12 -91 -18 -230q37 76 61 109q26 36 74 78q60 46 139 75q74 27 152 27q94 0 172 -37 q81 -38 141 -98t96 -146q35 -84 35 -178q0 -102 -37 -186q-37 -86 -102 -150q-60 -60 -154 -100q-87 -37 -190 -37q-106 0 -199 41q-95 42 -158 117q-36 42 -61 94q-30 61 -49 123q-23 73 -31 143q-10 85 -10 154zM262 414q0 -67 29 -133q27 -61 78 -109q50 -47 114 -74 q62 -26 140 -26q73 0 143 28q68 27 117 76q51 51 78 115q28 67 28 141q0 73 -26 135q-27 64 -74 111q-48 48 -107 74q-64 28 -129 28l-2 -6q-74 0 -147 -31q-70 -30 -125 -79q-56 -50 -86 -115q-31 -67 -31 -135z" />
<glyph unicode="7" d="M162 1251l14 119h871v-65q-48 -58 -74 -93q-44 -59 -58 -82q-13 -21 -61 -94q-20 -31 -80 -133q-114 -194 -180 -420q-64 -219 -64 -417v-25q0 -25 2 -41h-122l2 6q-2 10 -2 31v18q0 147 34 301q34 155 97 314q64 162 147 305q82 141 195 276h-721z" />
<glyph unicode="8" d="M82 346q0 114 78 201q79 88 250 164q-87 46 -121 73q-44 35 -70 68q-63 86 -63 192q0 78 34 142q34 63 93 110q61 49 141 72q86 25 184 25q99 0 185 -25q83 -24 141 -70q62 -49 90 -110q31 -67 31 -144q0 -62 -21 -112q-21 -49 -69 -94q-46 -42 -82 -64q-45 -27 -101 -43 l2 -16q56 -27 93 -45q22 -10 61 -35q40 -25 43 -27q27 -18 35 -26q53 -47 80 -111q28 -67 28 -135q0 -86 -37 -156q-37 -69 -102 -119t-160 -77t-209 -27q-111 0 -217 29q-96 26 -168 80q-70 52 -110 122q-39 68 -39 158zM219 324q0 -122 103 -193q101 -70 288 -70 q178 0 285 72q104 70 104 191q0 50 -24 100t-64 90q-18 16 -49 39q-30 22 -59 35q-42 18 -76 30q-16 6 -51.5 19t-50.5 18l-4 -6q-8 -3 -115 -37q-43 -14 -80 -30q-24 -10 -61 -31q-29 -16 -56 -37q-43 -37 -65 -82q-25 -52 -25 -108zM295 1044q0 -88 61 -155q35 -38 80 -64 q50 -29 135 -55l4 4q80 13 140 33q51 18 116 49q68 39 93 80q28 45 28 108q0 111 -86 170q-88 60 -248 60q-151 0 -237 -62t-86 -168z" />
<glyph unicode="9" d="M88 920q0 104 37 188q39 89 102 152q59 59 152 100q84 37 188 37q249 0 381 -172q133 -174 133 -494q0 -357 -147 -565q-64 -91 -174 -143t-242 -52q-178 0 -289 99q-39 33 -63 71q-23 36 -51 109l104 45l-4 -8q79 -211 303 -211q115 0 203 49t137 137q34 62 47 96 q20 51 31 103q12 56 18 119q7 75 7 143q-76 -134 -179 -199q-100 -63 -239 -63q-99 0 -183 35q-81 34 -143 96q-57 57 -94 145q-35 84 -35 183zM217 911q0 -77 27 -141q27 -65 73 -111q47 -47 111 -71q67 -25 141 -25q69 0 142 29q63 25 116 78q52 52 78 114q29 69 29 140 q0 78 -27 139q-27 62 -76 108q-53 49 -116 72q-70 25 -144 25h-2q-78 0 -145 -25q-64 -24 -111 -74q-49 -52 -71 -112q-25 -67 -25 -146z" />
<glyph unicode=":" horiz-adv-x="522" d="M156 0v213h211v-213h-211zM156 834v210h211v-210h-211z" />
<glyph unicode=";" horiz-adv-x="522" d="M135 -238l115 238h-92v215h202v-192l-145 -261h-80zM158 838v206h202v-206h-202z" />
<glyph unicode="&#x3c;" d="M137 623v102l887 403v-114l-764 -340l764 -342v-113z" />
<glyph unicode="=" d="M137 485v111h928v-111h-928zM137 823v111h928v-111h-928z" />
<glyph unicode="&#x3e;" d="M178 219v115l764 340l-764 342v112l887 -403v-102z" />
<glyph unicode="?" horiz-adv-x="1038" d="M43 1016q47 201 154 289q110 90 301 90q102 0 184 -27q83 -27 141 -76t92 -118q33 -67 33 -154q0 -116 -55 -195q-57 -81 -178 -139q-76 -39 -131 -74q-59 -38 -70 -57q-10 -23 -10 -55l2 -187h-119l4 133q3 151 68 216q25 28 59 43l158 79q70 34 108 97q37 61 37 139 q0 56 -24 106q-24 49 -68 84q-46 37 -100 56q-56 20 -125 20q-71 0 -150 -29q-71 -26 -112 -73q-28 -36 -45 -74q-18 -40 -39 -123zM354 -6v170h187v-170h-187z" />
<glyph unicode="@" horiz-adv-x="1554" d="M106 676q0 148 56 278q57 133 147 226q89 92 221 149q128 55 277 55q134 0 252 -47t203 -129q87 -84 135 -192q49 -110 49 -240q0 -98 -27 -186q-27 -90 -73 -156q-44 -64 -105 -106q-56 -39 -123 -39q-114 0 -160 131q-60 -78 -110 -107q-52 -30 -123 -30q-64 0 -125 28 q-53 24 -100 78q-44 50 -68 117q-24 68 -24 147q0 84 28 160q27 74 76 129q50 56 115 86q67 31 141 31q72 0 123 -31q47 -28 100 -100l15 114h114l-55 -467l-21 -20q-6 -53 -6 -90q0 -70 74 -70q36 0 76 29q34 24 63 78q30 54 43 112q17 73 17 136q0 114 -39 202 q-42 95 -107 160q-66 66 -164 105q-91 36 -208 36q-126 0 -228 -45q-108 -48 -182 -125q-78 -81 -123 -186t-45 -229q0 -163 76 -297q78 -137 209 -213q141 -78 331 -78q65 0 117 6q54 6 103 18q47 11 104 33q47 18 125 56l37 -113q-239 -115 -490 -115q-165 0 -307 60 q-139 59 -237 172q-84 98 -131 221q-46 122 -46 258zM530 627q0 -49 13 -99q11 -41 37 -79q23 -33 59 -52q35 -18 74 -18q43 0 84 24t71 68q34 50 50 98q18 55 18 115q0 106 -49 170q-51 66 -125 66l2 -7q-46 0 -92 -22q-44 -21 -74 -62q-32 -44 -49 -92q-19 -55 -19 -110z " />
<glyph unicode="A" horiz-adv-x="1032" d="M6 0l438 1366h142l438 -1366h-131l-152 436h-495l-129 -436h-111zM285 530h434l-215 678z" />
<glyph unicode="B" horiz-adv-x="1234" d="M180 0v1366l545 -12q76 0 115 -8q40 -8 84 -31q180 -98 180 -279q0 -62 -25 -129q-23 -62 -65 -104q-25 -22 -58 -39q-37 -19 -92 -39q71 -22 115 -47q39 -22 72 -55q52 -58 73 -117q23 -64 23 -131q0 -82 -31 -158q-30 -73 -86 -123q-47 -44 -139 -69t-201 -25h-510z M309 764h297h-2q92 0 154 10q53 9 96 31q54 28 84 86q31 60 31 127q0 129 -109 188q-40 23 -78 31q-36 8 -108 8h-365v-481zM311 111h391l-2 2q148 0 230 67t82 191q0 84 -37 151t-103 105q-62 39 -208 39h-353v-555z" />
<glyph unicode="C" horiz-adv-x="1185" d="M90 698q0 156 41 287q40 128 115 221t178 142q104 49 238 49q359 0 485 -418l-129 -35v-12q-55 174 -141 254t-218 80q-89 0 -159 -33q-77 -36 -127 -92q-63 -69 -101 -197q-36 -121 -36 -270q0 -124 20 -221q21 -101 61 -174q49 -91 140 -148q88 -55 190 -55 q71 0 141 30q68 29 111 78q25 30 35 45q9 14 31 54q16 28 30 67q31 84 35 96l119 -38q-3 -9 -41 -107q-10 -25 -37 -82q-17 -36 -39 -67q-21 -30 -49 -58q-55 -58 -143 -92q-90 -35 -187 -35q-143 0 -258 68q-113 67 -190 203q-60 101 -86 215q-29 126 -29 245z" />
<glyph unicode="D" horiz-adv-x="1316" d="M184 0v1366l439 -8q135 0 225 -33q99 -36 172 -106q107 -98 160 -234t53 -305q0 -90 -14 -164q-14 -76 -43 -154q-26 -72 -68 -135q-44 -66 -88 -108q-125 -119 -289 -119h-547zM317 109h316q218 0 332 135q64 76 102 194q37 115 37 242q0 68 -12 133t-33 123t-51 108 q-28 46 -68 86q-115 109 -326 109h-297v-1130z" />
<glyph unicode="E" horiz-adv-x="1134" d="M180 0v1366h858v-123h-725v-467h572v-110h-572v-547h748v-119h-881z" />
<glyph unicode="F" horiz-adv-x="1040" d="M180 0v1366h821v-119h-692v-463h588v-104h-588v-680h-129z" />
<glyph unicode="G" horiz-adv-x="1329" d="M78 664q0 166 43 299t123 233t190 152q112 53 244 53q106 0 196 -35q93 -36 152 -98q44 -47 76 -103q34 -59 59 -147l-133 -39q-9 42 -18 68q-7 21 -23 49q-18 31 -26 41q-20 24 -37 41q-52 52 -123 79q-76 29 -148 29q-105 0 -190 -49q-86 -50 -133 -133 q-47 -84 -74 -203q-27 -120 -27 -235q0 -102 25 -211q23 -101 65 -174q56 -96 150 -148q95 -53 203 -53q166 0 264 104t98 283v47q0 35 -2 53h-366v117h514v-711l-113 7l-31 163q-50 -57 -80 -80q-39 -30 -73 -43q-54 -23 -117 -34q-73 -13 -131 -13q-124 0 -225 52 q-106 55 -177 143q-73 90 -114 219q-41 128 -41 277z" />
<glyph unicode="H" horiz-adv-x="1316" d="M180 0v1366h133v-567h691v567h133v-1366h-133v680h-691v-680h-133z" />
<glyph unicode="I" horiz-adv-x="495" d="M180 0v1366h133v-1366h-133z" />
<glyph unicode="J" horiz-adv-x="765" d="M0 0v111q58 -15 102 -21t93 -6q86 0 141 22q52 21 90 68q27 39 35 86q10 58 10 154v952h129v-952l-2 -2q0 -126 -27 -211t-86 -138q-47 -44 -129 -69q-83 -25 -166 -25h-38q-13 0 -37 4q-7 1 -22 5t-23 6q-4 1 -28.5 6.5t-41.5 9.5z" />
<glyph unicode="K" horiz-adv-x="1302" d="M180 0v1366h133v-831l666 831h154l-394 -494l525 -872h-146l-467 782l-338 -409v-373h-133z" />
<glyph unicode="L" horiz-adv-x="995" d="M180 0v1366h133v-1251h656v-115h-789z" />
<glyph unicode="M" horiz-adv-x="1669" d="M180 0v1366h189l473 -1198l463 1198h182v-1366h-123v1190l-477 -1190h-109l-481 1190v-1190h-117z" />
<glyph unicode="N" horiz-adv-x="1353" d="M180 0v1366h187l698 -1176v1176h106v-1366h-137l-745 1264v-1264h-109z" />
<glyph unicode="O" horiz-adv-x="1277" d="M86 676q0 159 41 293q40 131 115 227q73 94 176 147q105 54 225 54h-6q268 0 426 -248q121 -189 121 -467q0 -72 -17 -166q-14 -79 -43 -160q-27 -76 -67 -143q-39 -65 -90 -113q-132 -129 -332 -129q-122 0 -223 52t-174 143q-72 89 -113 221q-39 124 -39 289zM213 672 q0 -131 31 -246q29 -108 86 -186q55 -76 131 -119t172 -43q164 0 270 127q34 42 58 92q32 66 47 119q20 71 28 135q11 86 11 139q0 138 -29 254q-27 106 -86 184q-122 158 -301 158l-2 -4q-92 0 -168 -43q-75 -43 -131 -123q-57 -82 -86 -192q-31 -118 -31 -252z" />
<glyph unicode="P" horiz-adv-x="1103" d="M180 0v1366h447v-4q220 0 327 -125q49 -57 76 -129q27 -70 27 -147q0 -86 -31 -162q-29 -71 -86 -125q-55 -52 -131 -82q-79 -31 -168 -31h-328v-561h-133zM313 664h326l-4 2q62 0 117 22q52 21 90 62q39 42 59 92q21 53 21 116q0 62 -21 115q-21 52 -55 92 q-36 42 -80 62q-49 22 -98 22h-355v-585z" />
<glyph unicode="Q" horiz-adv-x="1298" d="M90 670q0 205 53 350q53 146 166 250q72 66 152 96q82 31 178 31q133 0 240 -49t178 -138q73 -94 114 -227q41 -134 41 -287q0 -172 -51 -315q-52 -145 -147 -248q-28 -31 -56 -53t-61 -39q-37 -19 -74 -33q-34 -13 -96 -26v-17q0 -94 59 -147q60 -54 164 -54q16 0 66 5 q34 3 90 12v-115l4 -2q-66 -9 -86 -10q-54 -4 -63 -4q-73 0 -144 22q-67 21 -108 62q-43 40 -64 96q-22 59 -31 147q-16 2 -79 13q-35 6 -62 18q-32 14 -55 27q-29 16 -56 37q-272 193 -272 598zM233 680q0 -127 29 -246q26 -108 80 -186q52 -76 127 -117q74 -41 170 -41 q203 0 317 156q115 157 115 430q0 283 -106 436q-108 156 -308 156v2q-224 0 -331 -180q-44 -71 -68 -183q-25 -116 -25 -227z" />
<glyph unicode="R" horiz-adv-x="1224" d="M180 -6v1366h510q90 0 166 -27q77 -27 129 -76q56 -53 84 -116q31 -70 31 -148q0 -71 -31 -147q-30 -74 -82 -123q-24 -24 -59 -45q-34 -20 -88 -37l282 -641h-139l-272 600h-414v-606h-117zM297 711h383h-2q151 0 221 82q68 80 68 192q0 118 -70 182q-72 66 -197 66 h-403v-522z" />
<glyph unicode="S" horiz-adv-x="1163" d="M43 344l125 29h-2q94 -285 409 -285q160 0 252 74q93 75 93 200q0 87 -58 148q-61 64 -162 90l-272 70q-74 19 -131 43q-47 20 -88 55q-107 101 -107 258q0 82 31 152q29 66 90 114q59 47 142 74t184 27q176 0 295 -82t172 -240l-121 -33q-35 112 -129 176 q-97 66 -223 66q-66 0 -121 -18q-56 -18 -96 -52q-42 -36 -62 -80q-22 -49 -22 -98q0 -89 55 -141q58 -55 180 -84l256 -62q338 -83 338 -368q0 -90 -35 -168t-98 -129q-65 -53 -156 -80q-98 -29 -202 -29q-206 0 -334 88q-130 89 -203 285z" />
<glyph unicode="T" horiz-adv-x="995" d="M31 1247v119h934v-119h-406v-1247h-125v1247h-403z" />
<glyph unicode="U" horiz-adv-x="1253" d="M158 475v891h131l4 -901q0 -96 10 -154q8 -48 31 -92q33 -59 115 -98q78 -37 182 -37q108 0 188 41t121 115q23 47 31 92q10 55 10 133v899h115v-899q0 -498 -482 -498q-235 0 -346 123q-110 122 -110 385z" />
<glyph unicode="V" horiz-adv-x="1095" d="M8 1366h137l416 -1167l406 1167h120l-477 -1366h-123z" />
<glyph unicode="W" horiz-adv-x="1605" d="M47 1366h135l279 -1161l311 1161h82l334 -1161l254 1161h114l-309 -1366h-129l-309 1087l-293 -1087h-137z" />
<glyph unicode="X" horiz-adv-x="1017" d="M2 0l440 705l-399 661h143l324 -530l326 530h118l-385 -627l447 -739h-148l-366 604l-375 -604h-125z" />
<glyph unicode="Y" horiz-adv-x="1009" d="M-16 1366h151l381 -661l393 661h117l-465 -793v-573h-125v573z" />
<glyph unicode="Z" horiz-adv-x="1054" d="M63 0v121l773 1134h-736v111h889v-72l-788 -1181h803v-113h-941z" />
<glyph unicode="[" horiz-adv-x="600" d="M174 -342v1708h358v-72h-241v-1554h241v-82h-358z" />
<glyph unicode="\" horiz-adv-x="905" d="M72 1366h127l792 -1708h-131z" />
<glyph unicode="]" horiz-adv-x="600" d="M68 -270h241v1554h-241v82h360v-1708h-360v72z" />
<glyph unicode="^" horiz-adv-x="1024" d="M66 766l372 602h150l373 -602h-127l-322 512l-322 -512h-124z" />
<glyph unicode="_" horiz-adv-x="1024" d="M0 -150h1024v-102h-1024v102z" />
<glyph unicode="`" horiz-adv-x="1024" d="M174 1366l59 104l398 -231l-43 -68z" />
<glyph unicode="a" horiz-adv-x="1071" d="M61 268q0 66 29 142q26 68 74 110q121 109 452 109h72q18 0 96 -4l2 37q0 82 -12 126q-12 42 -43 78q-70 76 -227 76q-259 0 -297 -194l-121 24q27 142 133 207t301 65q104 0 178 -24q73 -24 119 -76q47 -53 68 -135q20 -79 20 -203v-416q0 -50 4 -104q2 -31 13 -86h-125 l-11 176q-63 -109 -147 -156q-80 -45 -209 -45q-205 0 -293 107q-76 85 -76 186zM199 266q0 -82 59 -147q44 -53 164 -53q76 0 143 30q68 30 117 82q51 55 78 121q28 70 28 145v25q0 23 -2 35l2 -6q-56 3 -92 6q-46 4 -55 4h-37h-31q-172 0 -258 -51q-58 -36 -86 -82 q-30 -49 -30 -109z" />
<glyph unicode="b" horiz-adv-x="1097" d="M166 1362h121v-539q64 107 135 154t176 47q94 0 168 -39q78 -41 131 -106q55 -67 86 -164q31 -98 31 -213q0 -113 -31 -215q-29 -96 -86 -168q-56 -71 -131 -111q-74 -39 -166 -39q-203 0 -317 199l-54 -168h-61zM281 371q0 -45 24 -107q24 -61 57 -100q40 -47 101 -72 q69 -29 123 -29q135 0 215 115t80 301q0 119 -35 226q-35 106 -92 157q-72 66 -166 66q-78 0 -142 -43t-108 -123q-30 -58 -37 -74q-14 -32 -14 -49v-264z" />
<glyph unicode="c" horiz-adv-x="954" d="M78 504q0 133 43 252q43 118 117 186q104 98 266 98q90 0 158 -30q62 -28 122 -97q48 -58 66 -100q22 -53 37 -127l-115 -27v-8q-14 70 -31 115q-13 36 -43 74q-34 43 -86 67q-55 25 -110 25q-136 0 -215 -117q-80 -118 -80 -319q0 -52 10 -117q8 -50 25 -107 q13 -43 37 -86q19 -35 49 -61q72 -66 172 -66q107 0 178 74t92 205l115 -27q-7 -30 -19 -71q-12 -40 -20 -56q-15 -31 -27 -47q-18 -26 -37 -47q-105 -123 -280 -123q-192 0 -297 129q-58 69 -92 180q-35 113 -35 228z" />
<glyph unicode="d" horiz-adv-x="1101" d="M82 496q0 113 31 215q30 99 86 170q53 68 133 110q77 41 170 41q50 0 86 -8q37 -8 76 -27q29 -14 73 -49q39 -31 78 -76v494h121v-1366l-115 -2v158q-64 -102 -139 -146q-73 -43 -178 -43q-98 0 -172 39q-78 41 -133 111q-56 71 -86 166q-31 98 -31 213zM215 514 q0 -128 31 -233q29 -98 90 -150q77 -65 166 -65q63 0 116 26q55 27 99 74t67 106q25 64 25 127v230l4 2q0 48 -20 104q-19 52 -50 92q-40 50 -104 78q-70 31 -133 31t-117 -31q-50 -29 -92 -86q-39 -54 -61 -133q-21 -76 -21 -172z" />
<glyph unicode="e" horiz-adv-x="1060" d="M82 500q0 119 35 219t96 170q60 69 147 110t189 41q111 0 203 -51q94 -53 147 -141q41 -74 59 -152q18 -77 21 -196h-754l-10 -11q0 -38 4 -92q3 -46 8 -69q7 -34 15 -56q8 -20 22 -49q17 -32 49 -61t68 -49q38 -22 80 -33q44 -12 86 -12q51 0 104 18q50 17 92 53 q31 28 52 58q22 31 49 90l114 -31q-19 -54 -43 -98q-20 -36 -61 -74q-64 -58 -143 -88q-82 -31 -168 -31q-105 0 -187 39q-86 40 -147 111q-59 68 -94 168q-33 95 -33 217zM225 590h604h7q0 73 -13 123t-45 96q-82 123 -227 123q-157 0 -252 -127q-34 -46 -49 -92 q-17 -51 -25 -123z" />
<glyph unicode="f" horiz-adv-x="598" d="M23 903v92h178q4 66 4 76v43q0 13 4 29q3 10 6 31q40 217 270 217q40 0 60 -2q28 -3 73 -9v-94q-14 4 -38 8q-12 2 -39 2q-69 0 -119 -20q-53 -21 -76 -57q-14 -26 -24 -66q-9 -37 -9 -96v-56h246v-92l-246 -6v-909h-112v909h-178z" />
<glyph unicode="g" horiz-adv-x="978" d="M55 -125q0 149 158 199q-49 15 -76 55q-26 39 -26 98q0 126 131 166q-70 67 -99 129q-30 64 -30 152q0 75 28 145q26 65 78 117t117 78q70 28 145 28q121 0 213 -57q9 80 68 133q41 35 131 35h25q14 0 24 -2l4 -102l-6 -9q-95 0 -137 -28q-40 -27 -43 -99q40 -52 61 -122 q23 -77 23 -136q0 -77 -27 -141q-27 -65 -76 -111t-116 -73t-144 -27q-39 0 -73 6q-36 8 -62 8q-46 0 -80 -30q-35 -30 -35 -70q0 -65 80 -86q12 -4 19 -4h41h92q98 0 174 -2q63 0 88 -2q43 -3 66 -6q25 -3 49 -13q32 -14 43 -20q62 -36 90 -86q31 -54 31 -121 q0 -135 -119 -199q-60 -35 -154 -51q-83 -14 -233 -14q-112 0 -185 12q-71 12 -131 47q-127 71 -127 203zM174 -131q0 -77 80 -121q79 -43 221 -43q26 0 88 4q57 4 86 8q16 2 44 7.5t30 5.5q35 6 51 14q105 47 105 137q0 87 -105 121q-27 9 -108 12q-78 3 -191 6h-96h-27 q-4 0 -8.5 1t-11 2t-10.5 2h-9q-77 -27 -108 -66t-31 -90zM231 664q0 -111 68 -179q67 -67 178 -67q51 0 98 18q44 17 80 53q34 34 52 80q18 47 18 99t-18 98q-16 42 -54 80q-34 34 -80 55q-47 21 -98 21h2q-49 0 -98 -21t-86 -61q-62 -65 -62 -176z" />
<glyph unicode="h" horiz-adv-x="1103" d="M164 -4v1366h121v-547q38 59 71 98q37 44 72 66q41 26 80 37q44 12 94 12q92 0 168 -43q74 -42 119 -121q15 -27 24 -51q9 -23 15 -55q4 -22 8 -74q2 -29 2 -111v-573h-121l-8 580v96q0 29 -4 65q-3 23 -10 45q-2 7 -9 21.5t-8 17.5q-21 47 -73 74q-56 29 -111 29 q-109 0 -205 -90q-29 -26 -49 -56q-20 -31 -31 -61q-12 -35 -18 -74q-6 -41 -6 -96v-555h-121z" />
<glyph unicode="i" horiz-adv-x="454" d="M158 1223v143h139v-143h-139zM168 0v1010h121v-1010h-121z" />
<glyph unicode="j" horiz-adv-x="452" d="M-135 -205q42 -12 67 -18q27 -6 62 -6q176 0 176 194v1061h121v-1061h-2q0 -159 -76 -223q-38 -33 -84 -47q-56 -17 -104 -17q-28 0 -68 7q-44 8 -92 20v90zM150 1223v143h153v-143h-153z" />
<glyph unicode="k" horiz-adv-x="993" d="M168 0v1366h127v-889l481 533h129l-321 -367l366 -643h-125l-313 588l-217 -254v-334h-127z" />
<glyph unicode="l" horiz-adv-x="456" d="M168 0v1366h121v-1366h-121z" />
<glyph unicode="m" horiz-adv-x="1609" d="M166 -6v1010h92v-183q57 107 133 162q71 51 168 51q107 0 197 -90q34 -37 49 -67q18 -36 29 -84q41 111 122 178q82 67 189 67q86 0 151 -39q70 -42 109 -110q23 -41 31 -80q10 -48 10 -102l-2 -123v-584h-111l-4 612v84q0 26 -4 54q-4 25 -8 36q-2 5 -17 35 q-29 50 -75 78q-51 31 -101 31q-39 0 -90 -23q-46 -21 -90 -65q-25 -22 -45 -49q-18 -25 -31 -56q-11 -27 -14 -67q-4 -50 -4 -88v-588h-107v682q0 146 -79 213q-65 53 -138 53q-42 0 -94 -22q-47 -20 -86 -62q-36 -39 -53 -94q-19 -62 -19 -129v-641h-108z" />
<glyph unicode="n" horiz-adv-x="1110" d="M164 -6v1010h115v-162q2 3 5.5 7t10.5 11.5t12 13.5q5 5 26 28.5t36 41.5q36 43 102 66q67 24 135 24q99 0 172 -43q75 -44 121 -123q17 -26 25 -49q9 -24 12 -59q3 -34 6 -84q2 -33 2 -125v-551h-106l-4 649q0 83 -19 142q-19 58 -51 83q-70 58 -172 58q-68 0 -123 -27 q-56 -27 -96 -76t-64 -116t-24 -148v-571h-121z" />
<glyph unicode="o" horiz-adv-x="1062" d="M96 510q0 113 31 215q28 94 90 168q58 70 139 111q75 38 179 38l2 -2q101 0 178 -39q81 -41 135 -110q57 -72 86 -172q31 -105 31 -227q0 -119 -33 -209q-36 -98 -92 -166q-58 -70 -142 -111q-79 -39 -180 -39q-209 0 -325 174q-99 150 -99 369zM233 510q0 -208 78 -324 q77 -114 219 -114t222 114q79 113 79 318q0 108 -18 184q-18 78 -57 131t-101 88q-59 33 -125 33l-2 -2q-66 0 -125 -33q-62 -35 -98 -88q-72 -110 -72 -307z" />
<glyph unicode="p" horiz-adv-x="1089" d="M168 -342v1352h102l-4 -209q54 120 133 180q75 57 191 57q96 0 170 -39q76 -40 131 -110q56 -71 86 -170q31 -102 31 -219q0 -113 -31 -215q-29 -96 -86 -168q-56 -71 -131 -111q-74 -39 -168 -39q-63 0 -127 25q-62 24 -98 63q-7 7 -15 19t-14 18q-5 5 -21 25 q-8 10 -30 43v-502h-119zM281 344q0 -41 28 -92q23 -43 72 -88q42 -40 96 -64q52 -24 103 -24q89 0 184 80q102 85 102 364q0 187 -80 299q-80 111 -211 111q-57 0 -116 -27q-60 -28 -86 -67q-9 -14 -30.5 -47t-29.5 -46q-7 -12 -17 -28t-13 -21v-354z" />
<glyph unicode="q" horiz-adv-x="1091" d="M76 500q0 120 30 219q29 97 87 170q53 68 133 110q77 41 170 41q58 0 114 -18q54 -17 90 -49q31 -24 50 -51q20 -28 55 -88l61 196h58v-1372l-123 -4v528q-111 -217 -318 -217q-78 0 -153 35q-74 34 -129 96q-57 63 -92 172q-33 103 -33 232zM217 496q0 -195 76 -308 q77 -114 205 -114q76 0 141 41t102 108q29 53 43 111q17 70 17 112v129l6 -4q0 73 -27 146q-28 76 -73 121q-40 40 -99 67q-58 27 -114 27q-61 0 -111 -33t-88 -92q-35 -55 -57 -137q-21 -80 -21 -174z" />
<glyph unicode="r" horiz-adv-x="671" d="M170 -2v1010h104v-234q71 145 138 203q68 59 163 59h37q29 0 43 -2v-102l-45 -4q-73 0 -131 -25q-55 -24 -98 -76q-43 -55 -68 -116q-24 -58 -24 -97v-8l2 -41v-567h-121z" />
<glyph unicode="s" horiz-adv-x="960" d="M25 276l118 27h-6q8 -40 19 -70q8 -22 28 -45q46 -49 129 -79q85 -31 172 -31q121 0 189 51q71 53 71 135q0 138 -202 178l-230 41q-30 7 -86 31q-47 20 -80 43q-40 30 -65 84q-25 55 -25 111q0 130 105 209q104 79 274 79q323 0 400 -268l-113 -24q-18 34 -37 65 q-13 21 -37 45q-42 36 -98 53q-62 19 -119 19q-108 0 -172 -49q-63 -48 -63 -125q0 -125 163 -152l187 -31q81 -12 133 -30q50 -17 92 -45q55 -39 84 -99q31 -64 31 -129q0 -63 -29 -123q-25 -52 -80 -94q-52 -40 -125 -61t-161 -21q-193 0 -308 74q-112 72 -159 231z" />
<glyph unicode="t" horiz-adv-x="616" d="M-23 913v97h199v250l125 12v-262h240v-97h-240v-704q0 -70 47 -111t123 -41q24 0 64 4q17 2 83 13v-99h-2q-4 0 -6 2h-2h-4l-215 -10q-13 0 -31 6q-14 5 -39 19q-22 12 -38 26q-12 10 -33 31q-35 35 -49 88q-17 63 -17 125v651h-205z" />
<glyph unicode="u" horiz-adv-x="1110" d="M168 393v615h119v-639q0 -183 82 -250q68 -56 143 -56q66 0 121 27q53 26 98 74q46 49 68 106q24 62 24 129v611h121v-1010h-104v176q-58 -104 -140 -158q-80 -53 -178 -53q-47 0 -100 15q-50 14 -92 36q-75 45 -119 146q-43 98 -43 231z" />
<glyph unicode="v" horiz-adv-x="927" d="M31 1010h141l305 -889l301 889h121l-352 -1010h-150z" />
<glyph unicode="w" horiz-adv-x="1327" d="M47 1010h117l229 -789l228 789h69l250 -795l244 795h94l-289 -1010h-88l-246 770l-221 -770h-88z" />
<glyph unicode="x" horiz-adv-x="849" d="M10 0l342 524l-315 486h141l242 -369l233 369h133l-299 -459l353 -551h-142l-278 432l-279 -432h-131z" />
<glyph unicode="y" horiz-adv-x="823" d="M12 -238q32 -11 56 -18q21 -6 43 -6q45 0 79 12q35 12 62 47q30 38 55 90q29 60 55 142l-339 981h120l283 -805l309 805h107l-412 -1119v-2q-18 -49 -43 -98q-20 -39 -55 -74q-18 -19 -43 -36q-24 -17 -45 -25q-24 -9 -51 -12q-36 -4 -68 -4q-31 0 -55 6q-22 6 -58 18v98 z" />
<glyph unicode="z" horiz-adv-x="872" d="M78 0v94l557 819h-518v97h696v-47l-588 -869h588v-94h-735z" />
<glyph unicode="{" horiz-adv-x="600" d="M156 477v76q65 18 92 59q26 39 26 123v365q0 142 64 203t203 61h28v-82q-51 -3 -86 -12q-32 -8 -55 -31t-31 -55q-8 -31 -8 -86v-367l-8 -4q0 -45 -6 -80t-21 -59q-16 -26 -39 -43q-30 -23 -61 -35q73 -36 98 -82q29 -53 29 -141v-350q0 -60 8 -93q9 -37 31 -59 q23 -23 57 -31q37 -9 90 -12v-82h-24q-69 0 -125 16q-54 15 -84 50q-30 34 -45 90q-15 55 -15 139v332q0 90 -26 129q-26 40 -92 61z" />
<glyph unicode="|" horiz-adv-x="1024" d="M455 -342v1708h112v-1708h-112z" />
<glyph unicode="}" horiz-adv-x="600" d="M31 -258q103 3 143 43q39 39 39 141v367h-4q0 45 6 80t21 59q17 27 38 43q29 22 62 35q-71 35 -98 84q-27 50 -27 141v350q0 60 -8 93q-9 37 -31 59q-23 23 -55 31q-38 10 -86 10v82h18q80 0 129 -14q50 -14 86 -50q34 -34 49 -90t15 -137v-332q0 -89 24 -129t92 -61v-76 q-65 -18 -92 -59q-26 -39 -26 -123v-365q0 -142 -64 -203t-205 -61h-26v82z" />
<glyph unicode="~" d="M111 582q58 116 122 168q63 51 150 51q39 0 98 -19q65 -21 133 -57q76 -39 123 -53q56 -17 86 -17q58 0 105 35q44 32 92 115l72 -41q-63 -115 -127 -166q-61 -49 -136 -49q-19 0 -51 4q-26 3 -49 12q-9 3 -30 12.5t-27 12.5q-13 6 -41 19.5t-35 17.5q-58 31 -123 51 q-59 18 -104 18q-55 0 -95 -32q-41 -32 -94 -119l-69 45v-8z" />
<glyph unicode="&#xa1;" horiz-adv-x="542" d="M172 -342l68 1063h73l62 -1063h-203zM176 811v193h189v-193h-189z" />
<glyph unicode="&#xa2;" d="M207 694q0 124 43 228q43 103 115 163q41 30 77 43q47 17 111 31v246h104v-246q56 -6 111 -31q52 -24 94 -63q44 -41 70 -92q28 -55 37 -111l-113 -22q-5 38 -25 86q-13 32 -47 75q-28 36 -61 56t-64 20v-749q78 15 134 80q55 64 61 147l113 -20q-35 -140 -107 -209 q-75 -72 -203 -93v-284h-104l-4 280q-60 8 -107 29q-42 19 -80 51q-73 64 -114 164t-41 221zM324 686q0 -298 225 -362v743l-2 -2q-24 -3 -41 -12q-26 -13 -47 -27q-135 -94 -135 -340z" />
<glyph unicode="&#xa3;" d="M6 -6v110q16 1 38.5 2t38.5 2t28 1q33 0 65 4q31 4 41 8q3 1 16 6t21 8q180 73 180 289v43q0 31 -2 49q-5 44 -8 62q-7 40 -12 79h-248v86l242 2q-15 65 -17 93q-4 54 -4 98q0 98 14 158q15 63 50 123q47 83 120 129q71 45 164 45q84 0 154 -37q72 -38 147 -119l-71 -84 q-17 17 -37 33q-56 53 -97 76q-36 20 -77 20q-98 0 -160 -74t-62 -192v-80q0 -16 5 -66q1 -10 3 -30.5t3 -30.5q3 -33 6 -64l315 -2v-86l-295 2q2 -21 3.5 -41.5t2.5 -40t2 -28.5q3 -41 3 -82q0 -121 -43 -211q-43 -91 -119 -143h346q54 0 98 6q38 5 80 22q35 14 72 43 q27 21 67 68l88 -74l-4 -6q-19 -34 -55 -70q-32 -32 -74 -57q-45 -27 -82 -37q-44 -12 -82 -12h-864z" />
<glyph unicode="&#xa4;" horiz-adv-x="1366" d="M117 1212l73 76l193 -192q50 35 86 55q47 26 72 35q39 14 67 16q46 4 74 4t74 -4q28 -2 67 -16q35 -12 72 -33q40 -23 84 -55l190 190l76 -76l-190 -188q30 -46 51 -84q23 -41 33 -70q13 -37 18 -67q6 -34 6 -74q0 -39 -6 -74q-5 -31 -18 -67q-10 -29 -33 -70 q-13 -22 -51 -82l192 -192l-73 -74l-193 192q-60 -38 -82 -51q-36 -20 -70 -32q-42 -15 -67 -19q-34 -6 -74 -6t-74 6q-25 4 -67 19q-39 14 -72 32q-37 21 -84 51l-192 -190l-72 76l188 190l-8 -6q-57 81 -82 150q-24 68 -24 147q0 39 6 74q5 31 18 67q10 29 33 70 q13 22 51 82zM311 715q0 -71 29 -144q25 -63 78 -116q52 -52 117 -78q73 -29 143 -29t143 29q67 27 117 80q53 57 78 118q28 70 28 146q0 73 -28 143q-25 63 -78 119q-49 52 -117 82q-70 31 -141 31l4 -13q-75 0 -145 -28q-63 -25 -119 -78q-53 -50 -80 -117 q-29 -72 -29 -145z" />
<glyph unicode="&#xa5;" d="M57 1366h160l395 -659l408 659h123l-324 -530h277v-115h-346l-84 -137h430v-117h-441v-467h-123v467h-428v117h420l-82 137h-338v115h269z" />
<glyph unicode="&#xa6;" horiz-adv-x="1024" d="M455 313h112v-655h-112v655zM455 692v674h112v-674h-112z" />
<glyph unicode="&#xa7;" d="M139 -78l154 19h-10q18 -46 41 -76q18 -25 49 -49q45 -37 108 -58q59 -20 127 -20q64 0 123 18q57 18 103 54q44 35 67 77q25 45 25 95q0 160 -217 206l-203 43q-64 14 -144 43q-67 25 -114 56q-39 26 -64 78q-24 50 -24 108q0 91 47 162q46 69 166 149q-98 52 -142 117 q-43 64 -43 164q0 138 95 215q96 78 264 78q214 0 336 -119q33 -29 51 -63q22 -42 35 -93h-135q-19 42 -33 62q-15 21 -37 43q-36 32 -90 49q-55 18 -115 18q-107 0 -174 -55q-68 -56 -68 -143q0 -170 285 -240l191 -49q103 -26 165 -98q62 -71 62 -162q0 -72 -41 -137 t-139 -138q103 -43 159 -114t56 -166q0 -172 -178 -295q-60 -41 -123 -59q-68 -19 -154 -19q-217 0 -356 127q-43 40 -62 74q-24 44 -43 98zM293 547q0 -139 225 -191l201 -49q42 16 72 35q27 17 47 37q28 28 43 65q16 40 16 72q0 66 -49 121q-50 57 -131 80l-225 65 q-101 -46 -150 -104t-49 -131z" />
<glyph unicode="&#xa8;" horiz-adv-x="1024" d="M252 1309q0 39 31 67q32 29 71 29l-2 4q39 0 68 -29t29 -67q0 -39 -31 -70t-70 -31q-38 0 -67 29t-29 68zM561 1317q0 39 31 67q32 29 72 29l-2 2q38 0 69 -31t31 -69q0 -39 -31 -70t-69 -31q-39 0 -70 31t-31 72z" />
<glyph unicode="&#xa9;" horiz-adv-x="1583" d="M86 678q0 148 55 276q56 131 154 224q102 97 227 151q128 55 281 55l-6 -6q143 0 268 -55q123 -54 221 -152q95 -95 150 -223t55 -272q0 -147 -55 -275t-150 -223q-93 -93 -223 -149t-275 -56q-144 0 -274 56q-126 54 -223 151q-95 95 -150 223t-55 275zM174 684 q0 -130 49 -240t133 -194q79 -79 195 -131q110 -49 240 -49q126 0 239 49q117 51 197 131q84 84 133 194t49 238q0 123 -49 233q-52 116 -131 195q-85 85 -193 133q-110 49 -233 49v-2q-286 0 -473 -205q-76 -86 -115 -186q-41 -106 -41 -215zM418 688q0 98 26 172 q27 77 74 133t115 86q70 31 151 31q242 0 316 -258l-101 -25q-58 199 -215 199q-118 0 -186 -92t-68 -256q0 -158 66 -252q65 -92 178 -92q89 0 146 57q61 61 84 162l94 -29q-47 -143 -123 -207q-77 -65 -197 -65q-77 0 -147 31q-64 28 -113 90q-47 59 -74 139 q-26 77 -26 176z" />
<glyph unicode="&#xaa;" horiz-adv-x="708" d="M51 924q0 28 8 55q9 31 25 53q64 111 301 111h51q47 0 70 -2q0 101 -37 141q-36 39 -129 39q-82 0 -121 -25q-38 -24 -53 -92l-96 19q15 54 30 80q14 26 43 45q38 23 88 34q60 13 113 13q138 0 195 -60q55 -58 55 -202v-246q0 -74 14 -123h-100l-8 70q-36 -46 -88 -68 q-58 -25 -125 -25q-105 0 -170 50q-66 51 -66 133zM154 926q0 -53 36 -82q39 -31 97 -31q43 0 84 18q34 15 67 48q31 31 47 67q19 43 19 82v12q0 13 -2 19l-117 4h-6q-110 0 -168 -37q-57 -37 -57 -100z" />
<glyph unicode="&#xab;" horiz-adv-x="718" d="M86 545l180 278h86l-110 -278l110 -295h-86zM352 545l176 278h93l-115 -278l115 -295h-93z" />
<glyph unicode="&#xac;" d="M158 444v103h886v-547h-112v444h-774z" />
<glyph unicode="&#xad;" horiz-adv-x="522" d="M47 463v90h426v-90h-426z" />
<glyph unicode="&#xae;" horiz-adv-x="1583" d="M86 680q0 148 55 276q56 131 154 224q102 97 227 151q128 55 281 55l-6 -6q143 0 268 -55t221 -151q94 -94 150 -224q55 -128 55 -272q0 -147 -55 -275t-150 -223q-93 -93 -223 -149t-275 -56q-144 0 -274 56q-126 54 -223 151q-94 94 -150 224q-55 128 -55 274zM168 678 q0 -130 49 -240t133 -194q79 -79 195 -131q112 -50 239 -50q125 0 240 50q117 51 197 131q84 84 133 194t49 238q0 123 -49 233q-52 116 -131 195q-85 85 -193 133q-110 49 -233 49v-2q-286 0 -473 -205q-76 -86 -115 -186q-41 -106 -41 -215zM489 266v819h328q57 0 107 -18 q45 -17 86 -49q34 -27 57 -72q20 -39 20 -90q0 -74 -43 -129q-45 -58 -116 -78l178 -385h-111l-172 361h-239v-359h-95zM584 702h227h2q78 0 125 41q45 39 45 117q0 64 -43 101q-42 36 -117 36h-239v-295z" />
<glyph unicode="&#xaf;" horiz-adv-x="1024" d="M197 1243v98h630v-98h-630z" />
<glyph unicode="&#xb0;" d="M328 1122q0 53 22 105q19 45 60 86q36 36 86 57q54 23 104 23l-8 -7q57 0 104 -20q50 -21 86 -57q41 -41 60 -86q22 -52 22 -105q0 -57 -20 -104q-19 -45 -60 -86q-37 -37 -86 -58q-47 -20 -106 -20q-48 0 -100 22q-45 19 -86 60q-37 37 -58 86q-20 47 -20 104zM426 1118 q0 -69 47 -119q46 -49 115 -49q70 0 119 49t49 117t-49 117t-117 49l-2 -2q-34 0 -64 -12q-27 -11 -51 -35t-35 -51q-12 -30 -12 -64z" />
<glyph unicode="&#xb1;" d="M137 -16v112h928v-112h-928zM137 625v112h400v418h129v-418h399v-112h-399v-418h-129v418h-400z" />
<glyph unicode="&#xb2;" horiz-adv-x="792" d="M168 1143q14 53 31 88q12 25 41 57q43 43 102 66q62 24 129 24q63 0 115 -18q48 -16 92 -49q39 -29 61 -74q23 -48 23 -92q0 -131 -152 -271q-28 -28 -69 -63q-13 -12 -40 -34.5t-40 -33.5q-52 -44 -80 -65q-5 -4 -32.5 -25t-41.5 -30h463v-76l-598 -10v75q86 64 160 123 q86 68 172 142q92 77 129 135t37 127t-58 118q-59 50 -141 50q-87 0 -147 -54q-59 -53 -68 -141z" />
<glyph unicode="&#xb3;" horiz-adv-x="792" d="M57 727l90 35q16 -42 27 -62q9 -16 29 -36q56 -56 180 -56q108 0 166 43q59 44 59 121t-65 121q-64 43 -189 43h-100v76l111 2q101 0 153 37q53 38 53 108q0 63 -53 107q-52 43 -129 43q-155 0 -211 -140l-86 31q51 98 123 143q70 43 180 43q121 0 197 -61 q78 -63 78 -160q0 -62 -39 -110q-42 -52 -105 -72q78 -12 127 -70t49 -135q0 -64 -30 -116t-86 -87q-40 -19 -92 -32q-54 -13 -119 -13q-48 0 -101 11q-39 8 -81 30q-53 27 -80 62q-34 43 -56 94z" />
<glyph unicode="&#xb4;" horiz-adv-x="1024" d="M395 1239l398 231l59 -104l-414 -195z" />
<glyph unicode="&#xb5;" d="M219 -342v1352l119 -2v-580q0 -77 10 -125q7 -34 35 -88q73 -131 213 -131q65 0 125 31q56 29 92 90q27 47 39 102t12 142v561h121v-1010h-119v160q-52 -104 -114 -148q-61 -43 -154 -43q-83 0 -141 37q-59 38 -117 129v-477h-121z" />
<glyph unicode="&#xb6;" d="M80 1020q0 88 24 158q23 67 72 110t117 60q70 18 196 18h562v-86l-129 -4v-1624h-93v1624h-92v-1624h-90v1079h-160q-107 0 -172 12q-60 11 -110 37q-57 34 -92 99q-33 62 -33 141zM225 1065q0 -137 62 -193q61 -55 213 -55h147v459l-108 -2q-72 0 -101 -2 q-43 -3 -73 -12q-32 -10 -52 -21q-21 -12 -39 -33q-49 -58 -49 -141z" />
<glyph unicode="&#xb7;" horiz-adv-x="210" d="M0 416v205h211v-205h-211z" />
<glyph unicode="&#xb8;" horiz-adv-x="1024" d="M313 -313l19 57q34 -13 67 -20q31 -7 62 -7q52 0 84 19q30 18 30 53q0 61 -96 61q-29 0 -41 -2q-14 -2 -47 -6l51 158h58l-25 -100q103 -3 148 -31q43 -27 43 -92q0 -129 -195 -129q-59 0 -90 8q-30 8 -68 31z" />
<glyph unicode="&#xb9;" horiz-adv-x="792" d="M168 1081v97q90 59 133 94q58 46 98 90q2 3 19 20h71v-770h207v-67h-522v67h223v656q-43 -48 -98 -94q-56 -46 -131 -93z" />
<glyph unicode="&#xba;" horiz-adv-x="698" d="M59 1071q0 146 82 234t217 88l-4 4q125 0 203 -90t78 -238q0 -71 -21 -129q-20 -56 -61 -100q-43 -46 -94 -68q-55 -24 -121 -24q-127 0 -203 88t-76 235zM160 1081q0 -120 47 -188t133 -68q84 0 135 66q49 64 49 178q0 146 -67 207q-53 47 -117 47h-4q-81 0 -129 -66 q-47 -65 -47 -176z" />
<glyph unicode="&#xbb;" horiz-adv-x="718" d="M98 250l113 282l-113 291h90l181 -291l-181 -282h-90zM369 250l110 282l-110 291h86l178 -291l-178 -282h-86z" />
<glyph unicode="&#xbc;" horiz-adv-x="1802" d="M119 1081v97q90 59 133 94q58 46 98 90q2 3 19 20h71v-770h207v-67h-522v67h223v656q-43 -48 -98 -94q-56 -46 -131 -93zM420 0l819 1366h113l-817 -1366h-115zM1028 195v57l393 584h131v-570h144v-71h-144v-195h-88v195h-436zM1143 272h315v476z" />
<glyph unicode="&#xbd;" horiz-adv-x="1802" d="M88 1069v96q83 55 133 95q58 46 98 90q2 3 19 20h72v-770h206v-68h-522v68h223v655q-43 -48 -98 -94q-51 -42 -131 -92zM393 -12l819 1366h113l-817 -1366h-115zM1100 -12v75q130 97 164 123q80 61 174 142q92 76 129 135q37 58 37 127q0 70 -58 119t-141 49 q-89 0 -148 -53q-58 -52 -67 -142l-88 31q14 53 31 88q15 29 41 59q43 43 102 66q62 24 129 24q63 0 115 -18q48 -17 92 -49q39 -29 61 -74q23 -48 23 -92q0 -130 -152 -270q-35 -35 -69 -64q-13 -12 -40 -34t-40 -33q-61 -52 -80 -66q-5 -4 -32.5 -25t-41.5 -30h463v-76z " />
<glyph unicode="&#xbe;" horiz-adv-x="1802" d="M45 727l90 35q16 -42 27 -62q11 -19 28 -36q56 -56 181 -56q108 0 166 43q59 44 59 121q0 76 -66 121q-64 43 -188 43h-100v76l110 2q102 0 154 37q53 38 53 108q0 63 -53 107q-52 43 -129 43q-155 0 -211 -140l-86 31q51 98 123 143q70 43 180 43q121 0 197 -61 q77 -62 77 -160q0 -62 -39 -110q-43 -52 -104 -72q78 -12 127 -70t49 -135q0 -62 -31 -116q-30 -52 -86 -87q-40 -19 -92 -32q-54 -13 -119 -13q-47 0 -100 11q-40 8 -82 30q-53 27 -80 62q-31 40 -55 94zM489 0l820 1366h112l-817 -1366h-115zM1081 195v57l396 584h129 v-570h141v-71h-141v-195h-88v195h-437zM1196 272h315v476z" />
<glyph unicode="&#xbf;" horiz-adv-x="1038" d="M90 18q0 212 234 320q70 34 129 72q57 36 73 59q11 18 11 55l-2 51v136h116l-6 -144q0 -71 -18 -127q-18 -57 -52 -86q-21 -27 -55 -45l-158 -80q-69 -34 -106 -94q-37 -61 -37 -137q0 -57 25 -109q24 -50 67 -84t101 -55q56 -20 127 -20t147 28q71 26 113 74 q13 13 24 35q10 20 19 41q7 16 18 53q12 39 19 72l114 -29q-47 -195 -153 -285q-109 -92 -293 -92q-211 0 -334 105t-123 286zM498 829v170h186v-170h-186z" />
<glyph unicode="&#xc0;" horiz-adv-x="1075" d="M6 0l438 1366h142l438 -1366h-131l-152 436h-495l-129 -436h-111zM193 1688l61 104l389 -225l-45 -68zM285 530h434l-215 678z" />
<glyph unicode="&#xc1;" horiz-adv-x="1075" d="M6 0l438 1366h142l438 -1366h-131l-152 436h-495l-129 -436h-111zM285 530h434l-215 678zM385 1567l389 225l62 -104l-406 -189z" />
<glyph unicode="&#xc2;" horiz-adv-x="1075" d="M6 0l438 1366h142l438 -1366h-131l-152 436h-495l-129 -436h-111zM195 1526l323 237l318 -237l-119 -21l-203 125l-192 -125zM285 530h434l-215 678z" />
<glyph unicode="&#xc3;" horiz-adv-x="1075" d="M-6 0l438 1366h141l439 -1366h-131l-152 436h-496l-129 -436h-110zM156 1579q34 60 96 98q61 37 135 37h31q13 0 31 -6q24 -8 49 -18q8 -3 36.5 -15l47.5 -20q12 -6 51 -6q38 0 65 8q24 7 70 31l80 -58q-1 0 -25 -18q-61 -49 -92 -62q-32 -14 -74 -14h-30q-13 0 -31 6 q-9 3 -45 19q-45 20 -80 34q-13 4 -37 7q-36 4 -49 4q-45 0 -72 -15q-29 -16 -55 -49l-90 37h-12zM272 530h435l-215 678z" />
<glyph unicode="&#xc4;" horiz-adv-x="1075" d="M2 0l438 1366h142l438 -1366h-131l-152 436h-495l-129 -436h-111zM258 1628q0 40 31 68t71 28l-2 -2q40 0 68 -28q29 -29 29 -68t-31 -70q-30 -30 -70 -30t-67 30q-29 32 -29 72zM281 530h434l-215 678zM561 1630q0 40 31 68t72 28l-2 3q38 0 69 -31t31 -70 q0 -38 -31 -69t-69 -31q-39 0 -70 31t-31 71z" />
<glyph unicode="&#xc5;" horiz-adv-x="1075" d="M6 0l438 1366h142l438 -1366h-131l-152 436h-495l-129 -436h-111zM285 530h434l-215 678zM336 1634q0 40 14 68q16 32 39 55t60 39q32 14 71 14v2q38 0 66 -14q32 -16 55 -39q26 -26 37 -57q12 -34 12 -70q0 -72 -51 -123t-123 -51q-36 0 -70 15t-57 38q-22 22 -39 56 q-14 28 -14 67zM414 1632q0 -40 30 -67q32 -29 70 -29q37 0 66 29q28 28 28 67q0 42 -26 68q-29 29 -64 29l-8 -3q-40 0 -68 -28t-28 -66z" />
<glyph unicode="&#xc6;" horiz-adv-x="1918" d="M-25 0l856 1366h984v-115h-811v-473h661v-106h-661v-553h841v-119h-975v440h-485l-281 -440h-129zM449 545h421v680z" />
<glyph unicode="&#xc7;" horiz-adv-x="1185" d="M88 700q0 156 41 287q40 128 115 221t178 142q104 49 237 49q360 0 486 -418l-129 -35q-55 173 -142 254q-86 80 -217 80q-89 0 -159 -33q-77 -36 -127 -92q-63 -69 -101 -203q-37 -130 -37 -282q0 -103 23 -215q21 -101 61 -168q51 -92 140 -150q85 -55 188 -55 q68 0 141 31q70 30 111 77q23 27 35 46q14 22 31 53q16 28 30 67q28 77 35 97l119 -39q-69 -225 -191 -334q-120 -108 -303 -111l-22 -80l-6 -6q20 4 26 4h21q67 0 116 -43q50 -44 50 -100q0 -71 -60 -113q-56 -39 -172 -39q-35 0 -47 2q-20 3 -37 9q-27 9 -37 14 q-15 7 -43 25l23 65q36 -19 72 -26q35 -7 73 -7q58 0 92 21q35 21 35 61q0 76 -123 76q-29 0 -41 -2q-14 -2 -47 -6l52 151q-61 8 -123 29q-52 18 -101 55q-58 44 -110 115q-48 65 -84 152q-37 88 -54 178q-18 94 -18 196z" />
<glyph unicode="&#xc8;" horiz-adv-x="1134" d="M180 0v1366h858v-123h-725v-467h572v-110h-572v-547h748v-119h-881zM338 1688l61 104l389 -225l-45 -68z" />
<glyph unicode="&#xc9;" horiz-adv-x="1134" d="M180 0v1366h858v-123h-725v-467h572v-110h-572v-547h748v-119h-881zM455 1567l389 225l61 -104l-405 -189z" />
<glyph unicode="&#xca;" horiz-adv-x="1134" d="M180 0v1366h858v-123h-725v-467h572v-110h-572v-547h748v-119h-881zM287 1526l323 237l318 -237l-119 -21l-203 125l-192 -125z" />
<glyph unicode="&#xcb;" horiz-adv-x="1134" d="M176 0v1366h858v-123h-725v-467h572v-110h-572v-547h748v-119h-881zM350 1628q0 40 31 68t72 28l-2 5q38 0 67 -29t29 -68q0 -38 -31 -69t-70 -31q-38 0 -67 29t-29 67zM653 1630q0 41 31 72t72 31l-2 -4q38 0 69 -31t31 -70q0 -38 -31 -69t-69 -31q-39 0 -70 31t-31 71z " />
<glyph unicode="&#xcc;" horiz-adv-x="495" d="M-27 1694l62 98l348 -225l-43 -68zM180 0v1366h133v-1366h-133z" />
<glyph unicode="&#xcd;" horiz-adv-x="495" d="M111 1567l348 225l61 -98l-364 -195zM180 0v1366h133v-1366h-133z" />
<glyph unicode="&#xce;" horiz-adv-x="495" d="M-29 1526l279 237l272 -237l-110 -21l-166 125l-156 -125zM180 0v1366h133v-1366h-133z" />
<glyph unicode="&#xcf;" horiz-adv-x="495" d="M14 1628q0 40 31 68t72 28l-2 5q38 0 67 -29t29 -68q0 -38 -31 -69t-69 -31q-39 0 -68 29t-29 67zM178 6v1366h133v-1366h-133zM272 1636q0 40 31 68q32 29 72 29l-2 2q38 0 69 -31t31 -70q0 -38 -31 -69t-69 -31q-39 0 -70 31t-31 71z" />
<glyph unicode="&#xd0;" horiz-adv-x="1316" d="M49 684v109l139 -2v573h433q135 0 225 -33q99 -36 172 -106q213 -198 213 -541q0 -88 -14 -162t-43 -153q-26 -72 -68 -138q-42 -67 -88 -110q-124 -121 -287 -121h-545v684h-137zM317 119h314q222 0 336 135q62 74 100 192q37 115 37 240q0 68 -12 133t-33 123 q-22 61 -51 109q-28 46 -68 86q-114 108 -326 108h-297v-454h322v-105h-322v-567z" />
<glyph unicode="&#xd1;" horiz-adv-x="1353" d="M180 0v1366h187l698 -1176v1176h106v-1366h-137l-745 1264v-1264h-109zM315 1577q33 59 97 98q61 37 135 37h31q12 0 30 -6q24 -8 49 -18q8 -3 36.5 -15l47.5 -20q15 -6 52 -6q38 0 65 8q29 9 72 31l78 -58l-17 -10l-6 -6q-63 -48 -96 -62q-32 -14 -74 -14h-31 q-13 0 -28 6q-3 1 -43 19q-45 20 -78 34q-13 4 -37 7q-36 4 -49 4q-45 0 -72 -15q-29 -16 -55 -49l-90 37z" />
<glyph unicode="&#xd2;" horiz-adv-x="1277" d="M84 668q0 161 41 295q40 131 115 227q73 94 176 147q105 54 225 54l-2 -2q122 0 223 -52q98 -50 174 -145q72 -90 113 -223q41 -134 41 -289q0 -167 -51 -307q-52 -142 -148 -252q-74 -83 -160 -121q-84 -37 -198 -37q-266 0 -418 223q-63 92 -98 217q-33 118 -33 265z M219 670q0 -131 31 -246q29 -108 86 -186q55 -76 131 -119t172 -43q209 0 322 198q44 74 69 189q25 113 25 225q0 156 -33 268q-36 121 -98 195q-51 60 -129 98q-75 37 -160 37v-6q-92 0 -168 -43q-75 -43 -131 -123q-57 -82 -86 -192q-31 -118 -31 -252zM344 1688l64 104 l389 -225l-45 -68z" />
<glyph unicode="&#xd3;" horiz-adv-x="1277" d="M84 668q0 161 41 295q40 131 115 227q73 94 176 147q105 54 225 54l-2 -2q122 0 223 -52q98 -50 174 -145q72 -90 113 -223q41 -134 41 -289q0 -167 -51 -307q-52 -142 -148 -252q-74 -83 -160 -121q-84 -37 -198 -37q-266 0 -418 223q-63 92 -98 217q-33 118 -33 265z M219 670q0 -131 31 -246q29 -108 86 -186q55 -76 131 -119t172 -43q209 0 322 198q44 74 69 189q25 113 25 225q0 156 -33 268q-36 121 -98 195q-51 60 -129 98q-75 37 -160 37v-6q-92 0 -168 -43q-75 -43 -131 -123q-57 -82 -86 -192q-31 -118 -31 -252zM492 1567l389 225 l61 -104l-405 -189z" />
<glyph unicode="&#xd4;" horiz-adv-x="1277" d="M84 668q0 161 41 295q40 131 115 227q73 94 176 147q105 54 225 54l-2 -2q122 0 223 -52q98 -50 174 -145q72 -90 113 -223q41 -134 41 -289q0 -167 -51 -307q-52 -142 -148 -252q-74 -83 -160 -121q-84 -37 -198 -37q-266 0 -418 223q-63 92 -98 217q-33 118 -33 265z M219 670q0 -131 31 -246q29 -108 86 -186q55 -76 131 -119t172 -43q209 0 322 198q44 74 69 189q25 113 25 225q0 156 -33 268q-36 121 -98 195q-51 60 -129 98q-75 37 -160 37v-6q-92 0 -168 -43q-75 -43 -131 -123q-57 -82 -86 -192q-31 -118 -31 -252zM315 1526l324 237 l315 -237l-116 -21l-203 125l-193 -125z" />
<glyph unicode="&#xd5;" horiz-adv-x="1277" d="M78 666q0 161 41 295q41 133 114 227q72 93 177 147t225 54l-2 -3q124 0 223 -51q98 -50 174 -145q72 -90 113 -223q41 -134 41 -289q0 -167 -51 -307q-52 -142 -148 -252q-74 -83 -160 -121q-84 -37 -198 -37q-266 0 -418 223q-63 92 -98 217q-33 118 -33 265zM213 668 q0 -131 31 -246q29 -108 86 -186q55 -76 131 -119t172 -43q208 0 321 198q45 77 70 189q25 113 25 225q0 156 -33 268q-36 121 -98 195q-50 59 -130 98q-75 37 -159 37v-6q-92 0 -168 -43q-75 -43 -131 -123q-57 -82 -86 -192q-31 -118 -31 -252zM299 1577q34 60 96 98 q61 37 135 37h31q13 0 31 -6q24 -8 49 -18q8 -3 36.5 -15l47.5 -20q12 -6 51 -6t66 8q22 7 69 31l80 -58l-26 -16q-62 -47 -97 -62q-32 -14 -73 -14h-31q-13 0 -31 6q-9 3 -45 19q-45 20 -80 34q-13 4 -37 7q-36 4 -49 4q-44 0 -71 -15q-31 -17 -56 -49l-90 37z" />
<glyph unicode="&#xd6;" horiz-adv-x="1277" d="M86 668q0 161 41 295q40 131 115 227q73 94 176 147q105 54 225 54l-2 -2q122 0 223 -52q98 -50 174 -145q72 -90 113 -223q41 -134 41 -289q0 -167 -51 -307q-52 -142 -148 -252q-75 -84 -159 -121t-199 -37q-266 0 -418 223q-63 92 -98 217q-33 118 -33 265zM221 670 q0 -131 31 -246q29 -108 86 -186q55 -76 131 -119t172 -43q209 0 322 198q44 74 69 189q25 113 25 225q0 156 -33 268q-36 121 -98 195q-51 60 -129 98q-75 37 -160 37v-6q-92 0 -168 -43q-75 -43 -131 -123q-57 -82 -86 -192q-31 -118 -31 -252zM383 1628q0 39 29 68 q28 28 67 28l4 -2q40 0 68 -28q29 -29 29 -68t-31 -70q-30 -30 -70 -30t-67 30q-29 32 -29 72zM688 1630q0 40 31 68t72 28l-3 3q39 0 70 -31t31 -70q0 -38 -31 -69t-70 -31q-38 0 -69 31t-31 71z" />
<glyph unicode="&#xd7;" d="M209 369l313 313l-313 311l80 80l313 -313l311 313l80 -80l-313 -311l313 -313l-80 -80l-313 313l-311 -313z" />
<glyph unicode="&#xd8;" horiz-adv-x="1277" d="M66 -45l151 240h-4q-57 75 -92 208q-35 134 -35 277q0 183 51 326q52 145 148 249q71 74 157 109q87 35 197 35q99 0 178 -31t154 -94l102 145h123l-154 -225q148 -198 148 -496q0 -253 -115 -454q-83 -145 -190 -209t-260 -64q-51 0 -95 6q-30 4 -81 23q-35 13 -80 43 q-34 23 -86 68l-97 -156h-120zM219 688q0 -236 82 -391l584 889h-6q-47 47 -117 74q-73 28 -148 28q-91 0 -170 -55q-78 -55 -137 -154q-88 -155 -88 -391zM360 209l2 4q55 -70 117 -100q64 -31 148 -31q111 0 182 45q76 48 133 147q102 181 102 424q0 125 -22 224 q-20 90 -72 180z" />
<glyph unicode="&#xd9;" horiz-adv-x="1253" d="M158 475v891h131l4 -901q0 -96 10 -154q8 -48 31 -92q33 -59 115 -98q78 -37 182 -37q108 0 188 41t121 115q23 47 31 92q10 55 10 133v899h115v-899q0 -498 -482 -498q-235 0 -346 123q-110 122 -110 385zM328 1688l61 104l389 -225l-43 -68z" />
<glyph unicode="&#xda;" horiz-adv-x="1253" d="M158 475v891h131l4 -901q0 -96 10 -154q8 -48 31 -92q33 -59 115 -98q78 -37 182 -37q108 0 188 41t121 115q23 47 31 92q10 55 10 133v899h115v-899q0 -498 -482 -498q-235 0 -346 123q-110 122 -110 385zM508 1567l389 225l61 -104l-407 -189z" />
<glyph unicode="&#xdb;" horiz-adv-x="1253" d="M158 475v891h131l4 -901q0 -96 10 -154q8 -48 31 -92q33 -59 115 -98q78 -37 182 -37q108 0 188 41t121 115q23 47 31 92q10 55 10 133v899h115v-899q0 -498 -482 -498q-235 0 -346 123q-110 122 -110 385zM313 1526l324 237l315 -237l-116 -21l-203 125l-195 -125z" />
<glyph unicode="&#xdc;" horiz-adv-x="1253" d="M160 475v891h131l4 -901q0 -96 10 -154q8 -48 31 -92q33 -59 115 -98q78 -37 182 -37q108 0 188 41t121 115q23 47 31 92q10 55 10 133v899h115v-899q0 -498 -482 -498q-235 0 -346 123q-110 122 -110 385zM381 1628q0 39 29 68q28 28 67 28l4 -2q40 0 68 -28 q29 -29 29 -68t-31 -70q-30 -30 -70 -30t-67 30q-29 32 -29 72zM686 1630q0 40 31 68t71 28l-2 3q39 0 70 -31t31 -70q0 -38 -31 -69t-70 -31q-38 0 -69 31t-31 71z" />
<glyph unicode="&#xdd;" horiz-adv-x="1009" d="M-16 1366h151l381 -661l393 661h117l-465 -793v-573h-125v573zM379 1567l389 225l61 -104l-405 -189z" />
<glyph unicode="&#xde;" horiz-adv-x="1118" d="M180 0v1366h133v-205h314q220 0 327 -125q49 -57 76 -129q27 -71 27 -147q0 -86 -31 -162q-29 -71 -86 -125q-55 -52 -131 -82q-79 -31 -168 -31h-328v-360h-133zM313 465h326l-4 4q60 0 117 23q52 21 90 59t59 90q21 53 21 117q0 62 -21 114q-21 54 -55 93 q-34 40 -80 61q-51 23 -98 23h-355v-584z" />
<glyph unicode="&#xdf;" horiz-adv-x="1171" d="M57 811v96h105q3 56 6 92t6 56q4 25 6 37l10 41q41 149 142 225q104 78 256 78q69 0 143 -23q66 -21 117 -59q52 -39 78 -90q28 -54 28 -115q0 -59 -28 -113q-24 -47 -78 -88q-48 -36 -121 -55q-74 -19 -154 -16q-59 0 -59 -35q0 -27 31 -49q30 -21 123 -56 q136 -56 178 -75q56 -26 110 -66q134 -93 134 -260q0 -81 -31 -154q-29 -68 -86 -119q-56 -50 -129 -77q-79 -29 -162 -29q-50 0 -94 6q-14 2 -113 23l25 94q61 -16 92 -21q34 -6 67 -6q59 0 111 21q54 21 92 57q41 38 62 84q22 49 22 102q0 71 -41 127q-42 57 -114 91 l-250 112q-146 65 -146 154q0 44 31 104q9 16 20 21q9 5 43 8q60 3 129 22q61 17 117 54q82 55 82 145q0 80 -61 129t-160 49q-138 0 -217 -94q-80 -95 -80 -260v-1069h-125v901h-117z" />
<glyph unicode="&#xe0;" horiz-adv-x="1071" d="M61 268q0 66 29 142q26 68 74 110q121 109 452 109h72q18 0 96 -4l2 37q0 82 -12 126q-12 42 -43 78q-70 76 -227 76q-259 0 -297 -194l-121 24q27 142 133 207t301 65q104 0 178 -24q73 -24 119 -76q47 -53 68 -135q20 -79 20 -203v-416q0 -50 4 -104q2 -31 13 -86h-125 l-11 176q-63 -109 -147 -156q-80 -45 -209 -45q-205 0 -293 107q-76 85 -76 186zM199 266q0 -82 59 -147q44 -53 164 -53q76 0 143 30q68 30 117 82q51 55 78 121q28 70 28 145v25q0 23 -2 35l2 -6q-56 3 -92 6q-46 4 -55 4h-37h-31q-172 0 -258 -51q-58 -36 -86 -82 q-30 -49 -30 -109zM248 1364l57 104l400 -231l-43 -68z" />
<glyph unicode="&#xe1;" horiz-adv-x="1071" d="M61 268q0 66 29 142q26 68 74 110q121 109 452 109h72q18 0 96 -4l2 37q0 82 -12 126q-12 42 -43 78q-70 76 -227 76q-259 0 -297 -194l-121 24q27 142 133 207t301 65q104 0 178 -24q73 -24 119 -76q47 -53 68 -135q20 -79 20 -203v-416q0 -50 4 -104q2 -31 13 -86h-125 l-11 176q-63 -109 -147 -156q-80 -45 -209 -45q-205 0 -293 107q-76 85 -76 186zM199 266q0 -82 59 -147q44 -53 164 -53q76 0 143 30q68 30 117 82q51 55 78 121q28 70 28 145v25q0 23 -2 35l2 -6q-56 3 -92 6q-46 4 -55 4h-37h-31q-172 0 -258 -51q-58 -36 -86 -82 q-30 -49 -30 -109zM362 1237l398 231l59 -104l-413 -195z" />
<glyph unicode="&#xe2;" horiz-adv-x="1071" d="M61 268q0 66 29 142q26 68 74 110q121 109 452 109h72q18 0 96 -4l2 37q0 82 -12 126q-12 42 -43 78q-70 76 -227 76q-259 0 -297 -194l-121 24q27 142 133 207t301 65q104 0 178 -24q73 -24 119 -76q47 -53 68 -135q20 -79 20 -203v-416q0 -50 4 -104q2 -31 13 -86h-125 l-11 176q-63 -109 -147 -156q-80 -45 -209 -45q-205 0 -293 107q-76 85 -76 186zM199 266q0 -82 59 -147q44 -53 164 -53q76 0 143 30q68 30 117 82q51 55 78 121q28 70 28 145v25q0 23 -2 35l2 -6q-56 3 -92 6q-46 4 -55 4h-37h-31q-172 0 -258 -51q-58 -36 -86 -82 q-30 -49 -30 -109zM199 1196l327 246l320 -246l-121 -20l-203 135l-192 -135z" />
<glyph unicode="&#xe3;" horiz-adv-x="1071" d="M61 268q0 66 29 142q26 68 74 110q121 109 452 109h72q18 0 96 -4l2 37q0 82 -12 126q-12 42 -43 78q-70 76 -227 76q-259 0 -297 -194l-121 24q27 142 133 207t301 65q104 0 178 -24q73 -24 119 -76q47 -53 68 -135q20 -79 20 -203v-416q0 -50 4 -104q2 -31 13 -86h-125 l-11 176q-63 -109 -147 -156q-80 -45 -209 -45q-205 0 -293 107q-76 85 -76 186zM182 1253l2 -4q38 61 99 99q59 36 135 36h31q12 0 30 -6q24 -8 49 -18q2 -1 33 -14t53 -21q15 -6 56 -6q38 0 65 8q24 7 70 31l80 -58q-9 -6 -17 -10q-4 -2 -8 -6q-6 -6 -22 -14 q-12 -6 -23 -17q-55 -43 -131 -43h-31q-9 0 -30 7q-18 6 -45 18q-67 30 -80 35q-27 10 -76 10q-59 0 -86 -12q-30 -13 -62 -51zM199 266q0 -82 59 -147q44 -53 164 -53q76 0 143 30q68 30 117 82q51 55 78 121q28 70 28 145v25q0 23 -2 35l2 -6q-56 3 -92 6q-46 4 -55 4h-37 h-31q-172 0 -258 -51q-58 -36 -86 -82q-30 -49 -30 -109z" />
<glyph unicode="&#xe4;" horiz-adv-x="1071" d="M61 268q0 66 29 142q26 68 74 110q121 109 452 109h72q18 0 96 -4l2 37q0 82 -12 126q-12 42 -43 78q-70 76 -227 76q-259 0 -297 -194l-121 24q27 142 133 207t301 65q104 0 178 -24q73 -24 119 -76q47 -53 68 -135q20 -79 20 -203v-416q0 -50 4 -104q2 -31 13 -86h-125 l-11 176q-63 -109 -147 -156q-80 -45 -209 -45q-205 0 -293 107q-76 85 -76 186zM199 266q0 -82 59 -147q44 -53 164 -53q76 0 143 30q68 30 117 82q51 55 78 121q28 70 28 145v25q0 23 -2 35l2 -6q-56 3 -92 6q-46 4 -55 4h-37h-31q-172 0 -258 -51q-58 -36 -86 -82 q-30 -49 -30 -109zM262 1309q0 39 31 67q32 29 72 29l-3 4q39 0 68 -29t29 -67q0 -39 -31 -70t-70 -31q-38 0 -67 29t-29 68zM575 1311q0 39 31 67q32 29 72 29l-2 2q38 0 69 -31t31 -69q0 -39 -31 -70t-69 -31q-39 0 -70 31t-31 72z" />
<glyph unicode="&#xe5;" horiz-adv-x="1071" d="M61 268q0 66 29 142q26 68 74 110q121 109 452 109h72q18 0 96 -4l2 37q0 82 -12 126q-12 42 -43 78q-70 76 -227 76q-259 0 -297 -194l-121 24q27 142 133 207t301 65q104 0 178 -24q73 -24 119 -76q47 -53 68 -135q20 -79 20 -203v-416q0 -50 4 -104q2 -31 13 -86h-125 l-11 176q-63 -109 -147 -156q-80 -45 -209 -45q-205 0 -293 107q-76 85 -76 186zM199 266q0 -82 59 -147q44 -53 164 -53q76 0 143 30q68 30 117 82q51 55 78 121q28 70 28 145v25q0 23 -2 35l2 -6q-56 3 -92 6q-46 4 -55 4h-37h-31q-172 0 -258 -51q-58 -36 -86 -82 q-30 -49 -30 -109zM358 1331q0 33 13 66q13 32 37 53q27 24 55 35q30 12 67 12l5 2q33 0 63 -12q29 -11 51 -37q24 -27 35 -55q12 -30 12 -66q0 -70 -49 -119t-119 -49q-32 0 -65 13q-32 13 -55 36q-24 24 -37 56t-13 65zM428 1333q0 -36 31 -67t69 -31q39 0 68 29t29 67 q0 41 -27 68q-28 28 -68 28l-6 3q-38 0 -67 -29t-29 -68z" />
<glyph unicode="&#xe6;" horiz-adv-x="1703" d="M61 258q0 64 29 133q27 64 80 117t164 80q115 28 264 28h76q20 0 90 -4q4 36 4 52v43q0 57 -18 110q-18 54 -52 74q-12 7 -41 18q-34 13 -53 17q-27 6 -57 12t-58 6q-105 0 -178 -55q-74 -56 -92 -144l-121 27q15 51 31 84q15 30 47 62q119 116 344 116q89 0 166 -22 q74 -21 121 -62q25 -25 29 -30q8 -10 30 -43q138 163 332 163q255 0 375 -266q11 -23 18 -49q9 -36 13 -59q8 -43 10 -84q4 -50 6 -88h-739q0 -39 4 -93q2 -27 10 -73q6 -35 18 -62q11 -25 31 -55q39 -61 111 -100q70 -37 151 -37q103 0 170 49q70 51 121 162l109 -23 l-2 -10q-49 -141 -154 -217q-104 -76 -250 -76q-96 0 -178 33q-86 35 -143 86l-19 16q-6 9 -12 21q-2 4 -6.5 14t-7.5 16q-12 23 -25 54l-23 39q-20 -63 -43 -105q-19 -34 -55 -70q-52 -52 -123 -79t-157 -27q-71 0 -142 23q-64 21 -110 61q-47 41 -70 94q-25 58 -25 123z M186 268q0 -85 62 -141q61 -55 162 -55q76 0 141 24q62 23 111 72q47 47 71 111q25 67 25 145v31q0 25 -2 37l-4 6q-65 9 -113 12q-66 4 -90 4q-164 0 -264 -68q-99 -68 -99 -178zM881 590h596v2q-9 170 -80 256t-203 86q-138 0 -221 -92t-92 -252zM1614 492q0 -17 2 -25v25 h-2z" />
<glyph unicode="&#xe7;" horiz-adv-x="954" d="M76 502q0 136 43 252q44 118 117 188q104 98 266 98q90 0 157 -30q64 -28 123 -97q48 -58 66 -100q22 -53 37 -127l-115 -27q-14 70 -31 115q-13 36 -43 74q-34 43 -86 67q-55 25 -110 25q-139 0 -215 -117q-78 -119 -78 -321q0 -205 78 -324q76 -117 215 -117 q107 0 178 74t92 207l115 -27q-14 -79 -37 -129q-20 -43 -62 -92q-107 -125 -266 -125h-16l-19 -63l-12 -4q103 -3 148 -31q43 -27 43 -92q0 -129 -195 -129q-61 0 -92 8q-30 8 -68 31l19 57q36 -13 69 -20q35 -7 66 -7q52 0 84 19q31 19 31 51q0 64 -97 64q-23 0 -41 -3 q-14 -2 -47 -6l43 131q-51 8 -96 25q-38 14 -78 43q-87 63 -137 188q-49 122 -49 271z" />
<glyph unicode="&#xe8;" horiz-adv-x="1060" d="M82 500q0 119 35 219t96 170q60 69 147 110t189 41q111 0 203 -51q94 -53 147 -141q41 -74 59 -152q18 -77 21 -196h-754l-10 -11q0 -38 4 -92q3 -46 8 -69q7 -34 15 -56q8 -20 22 -49q17 -32 49 -61t68 -49q38 -22 80 -33q44 -12 86 -12q51 0 104 18q50 17 92 53 q31 28 52 58q22 31 49 90l114 -31q-19 -54 -43 -98q-20 -36 -61 -74q-64 -58 -143 -88q-82 -31 -168 -31q-105 0 -187 39q-86 40 -147 111q-59 68 -94 168q-33 95 -33 217zM225 590h604h7q0 73 -13 123t-45 96q-82 123 -227 123q-157 0 -252 -127q-34 -46 -49 -92 q-17 -51 -25 -123zM274 1366l60 104l397 -231l-43 -68z" />
<glyph unicode="&#xe9;" horiz-adv-x="1060" d="M82 500q0 119 35 219t96 170q60 69 147 110t189 41q111 0 203 -51q94 -53 147 -141q41 -74 59 -152q18 -77 21 -196h-754l-10 -11q0 -38 4 -92q3 -46 8 -69q7 -34 15 -56q8 -20 22 -49q17 -32 49 -61t68 -49q38 -22 80 -33q44 -12 86 -12q51 0 104 18q50 17 92 53 q31 28 52 58q22 31 49 90l114 -31q-19 -54 -43 -98q-20 -36 -61 -74q-64 -58 -143 -88q-82 -31 -168 -31q-105 0 -187 39q-86 40 -147 111q-59 68 -94 168q-33 95 -33 217zM225 590h604h7q0 73 -13 123t-45 96q-82 123 -227 123q-157 0 -252 -127q-34 -46 -49 -92 q-17 -51 -25 -123zM385 1239l397 231l60 -104l-414 -195z" />
<glyph unicode="&#xea;" horiz-adv-x="1060" d="M82 500q0 119 35 219t96 170q60 69 147 110t189 41q111 0 203 -51q94 -53 147 -141q41 -74 59 -152q18 -77 21 -196h-754l-10 -11q0 -38 4 -92q3 -46 8 -69q7 -34 15 -56q8 -20 22 -49q17 -32 49 -61t68 -49q38 -22 80 -33q44 -12 86 -12q51 0 104 18q50 17 92 53 q31 28 52 58q22 31 49 90l114 -31q-19 -54 -43 -98q-20 -36 -61 -74q-64 -58 -143 -88q-82 -31 -168 -31q-105 0 -187 39q-86 40 -147 111q-59 68 -94 168q-33 95 -33 217zM215 1198l326 246l319 -246l-121 -20l-202 135l-193 -135zM225 590h604h7q0 73 -13 123t-45 96 q-82 123 -227 123q-157 0 -252 -127q-34 -46 -49 -92q-17 -51 -25 -123z" />
<glyph unicode="&#xeb;" horiz-adv-x="1060" d="M78 500q0 119 35 219t96 170q60 69 147 110t189 41q111 0 203 -51q94 -53 147 -141q41 -74 59 -152q18 -77 21 -196h-754l-10 -11q0 -38 4 -92q3 -46 8 -69q7 -34 15 -56q8 -20 22 -49q17 -32 49 -61t68 -49q38 -22 80 -33q44 -12 86 -12q51 0 104 18q50 17 92 53 q31 28 52 58q22 31 49 90l114 -31q-19 -54 -43 -98q-20 -36 -61 -74q-64 -58 -143 -88q-82 -31 -168 -31q-105 0 -187 39q-86 40 -147 111q-59 68 -94 168q-33 95 -33 217zM221 590h604h6q0 76 -12 123q-13 50 -45 96q-82 123 -227 123q-157 0 -252 -127q-34 -46 -49 -92 q-17 -51 -25 -123zM291 1311q0 39 31 67q32 29 71 29l-2 -2q39 0 68 -29q28 -28 28 -67q0 -40 -30 -70q-31 -31 -70 -31q-40 0 -68 31t-28 72zM584 1313q0 40 30 67q32 29 72 29l-2 2q39 0 70 -31q30 -30 30 -69q0 -40 -30 -70q-31 -31 -70 -31t-70 31q-30 30 -30 72z" />
<glyph unicode="&#xec;" horiz-adv-x="454" d="M-29 1378l60 92l309 -231l-49 -68zM168 0v1010h121v-1010h-121z" />
<glyph unicode="&#xed;" horiz-adv-x="454" d="M115 1239l309 231l59 -92l-319 -207zM166 0v1010h121v-1010h-121z" />
<glyph unicode="&#xee;" horiz-adv-x="454" d="M-29 1198l258 246l252 -246l-108 -20l-148 135l-137 -135zM166 0v1010h121v-1010h-121z" />
<glyph unicode="&#xef;" horiz-adv-x="454" d="M-16 1307q0 41 30 71q31 31 74 31l-4 -2q41 0 72 -31q30 -30 30 -69q0 -42 -30 -72q-31 -31 -72 -31q-39 0 -70 31q-30 30 -30 72zM162 -4v1010h121v-1010h-121zM254 1307q0 40 31 71t73 31v-2q41 0 72 -31t31 -71q0 -41 -31 -72t-72 -31q-42 0 -73 31t-31 74z" />
<glyph unicode="&#xf0;" horiz-adv-x="1050" d="M78 477q0 116 33 211q34 98 92 168q59 70 135 111q77 41 166 41q78 0 133 -27q56 -27 115 -86q-7 23 -31 82q-11 27 -37 70q-17 28 -45 63q-20 25 -59 64l-164 -105l-60 92l133 86l-8 -4q-30 27 -61 43q-7 4 -38.5 21t-53.5 28l94 84q57 -25 104 -51q39 -22 74 -53 l166 100l70 -92l-142 -84q139 -139 203 -307q66 -173 66 -391q0 -161 -43 -283q-43 -121 -121 -190q-122 -107 -289 -107q-192 0 -305 131q-57 69 -92 172t-35 213zM209 489q0 -176 59 -282q40 -67 107 -107q65 -39 143 -39q70 0 127 31q55 30 96 86q42 57 62 131 q22 80 22 172q0 91 -22 174q-21 80 -62 136q-42 57 -98 86q-59 30 -129 30l-6 2q-68 0 -123 -30q-52 -28 -94 -86q-42 -57 -62 -131q-20 -73 -20 -173z" />
<glyph unicode="&#xf1;" horiz-adv-x="1110" d="M162 -14v1009h114v-161q44 56 80 92q40 40 74 59q40 23 78 31q45 10 90 10q99 0 172 -43q75 -44 121 -123q14 -22 24 -49t13 -59q3 -34 6 -84q2 -33 2 -125v-551h-107l2 649q0 85 -18 141q-19 59 -51 84q-70 58 -172 58q-68 0 -123 -27q-56 -27 -96 -76t-64 -116 t-24 -148v-571h-121zM215 1247q35 61 96 99q59 36 135 36h31q13 0 31 -6q24 -8 49 -18q2 -1 33 -14t53 -21q15 -6 55 -6q41 0 68 8q29 9 72 31l80 -58q-9 -6 -17 -10t-10 -6q-7 -7 -21 -14q-6 -3 -20 -17q-58 -43 -129 -43h-31q-13 0 -31 6q-9 3 -45 19q-76 34 -79 35 q-8 3 -35 6q-32 4 -56 4q-46 0 -73 -12q-28 -12 -58 -47l-90 36z" />
<glyph unicode="&#xf2;" horiz-adv-x="1054" d="M80 506q0 124 33 219q34 98 92 168q59 71 141 108q81 37 184 37v2q106 0 183 -39q83 -42 139 -110q58 -70 88 -172q31 -105 31 -223q0 -167 -74 -297q-131 -230 -385 -230q-124 0 -209 49q-87 50 -145 158q-78 138 -78 330zM215 524q0 -120 21 -202q22 -85 61 -142 q35 -51 98 -80q65 -30 129 -30q146 0 228 114q82 113 82 318q0 185 -56 280q-42 73 -110 115q-70 43 -146 43l-4 -2q-52 0 -110 -25q-53 -23 -101 -71q-43 -46 -67 -131q-25 -89 -25 -187zM252 1366l59 104l398 -231l-43 -68z" />
<glyph unicode="&#xf3;" horiz-adv-x="1054" d="M80 506q0 124 33 219q34 98 92 168q59 71 141 108q81 37 184 37v2q106 0 183 -39q83 -42 139 -110q58 -70 88 -172q31 -105 31 -223q0 -167 -74 -297q-131 -230 -385 -230q-124 0 -209 49q-87 50 -145 158q-78 138 -78 330zM215 524q0 -120 21 -202q22 -85 61 -142 q35 -51 98 -80q65 -30 129 -30q146 0 228 114q82 113 82 318q0 185 -56 280q-42 73 -110 115q-70 43 -146 43l-4 -2q-52 0 -110 -25q-53 -23 -101 -71q-43 -46 -67 -131q-25 -89 -25 -187zM360 1239l398 231l59 -104l-414 -195z" />
<glyph unicode="&#xf4;" horiz-adv-x="1054" d="M80 506q0 124 33 219q34 98 92 168q59 71 141 108q81 37 184 37v2q106 0 183 -39q83 -42 139 -110q58 -70 88 -172q31 -105 31 -223q0 -167 -74 -297q-131 -230 -385 -230q-124 0 -209 49q-87 50 -145 158q-78 138 -78 330zM201 1198l327 246l320 -246l-123 -20l-201 135 l-194 -135zM215 524q0 -120 21 -202q22 -85 61 -142q35 -51 98 -80q65 -30 129 -30q146 0 228 114q82 113 82 318q0 185 -56 280q-42 73 -110 115q-70 43 -146 43l-4 -2q-52 0 -110 -25q-53 -23 -101 -71q-43 -46 -67 -131q-25 -89 -25 -187z" />
<glyph unicode="&#xf5;" horiz-adv-x="1054" d="M78 502q0 124 33 219q34 98 92 168q59 71 141 108q81 37 184 37v2q106 0 183 -39q83 -42 139 -110q58 -70 88 -172q31 -105 31 -223q0 -167 -74 -297q-131 -230 -385 -230q-124 0 -209 49q-87 50 -145 158q-78 138 -78 330zM186 1251q34 61 97 99q59 36 135 36h31 q12 0 30 -6q24 -8 49 -18q2 -1 33 -14t53 -21q15 -6 56 -6q40 0 67 8q24 7 70 31l80 -57q-3 -2 -8 -6t-7 -5q-4 -2 -8 -6q-8 -8 -20 -14q-7 -4 -25 -17q-55 -43 -131 -43h-31q-9 0 -30 7q-18 6 -45 18q-68 30 -80 35q-30 10 -76 10q-59 0 -86 -12q-28 -13 -61 -51l-91 36z M213 520q0 -124 20 -203q21 -81 62 -141q35 -51 98 -80q65 -30 129 -30q146 0 228 114q81 112 81 318q0 186 -55 280q-42 73 -110 115q-70 43 -146 43l-4 -2q-52 0 -110 -25q-53 -23 -101 -71q-43 -46 -67 -131q-25 -89 -25 -187z" />
<glyph unicode="&#xf6;" horiz-adv-x="1054" d="M76 506q0 124 33 219q34 98 92 168q59 71 141 108q81 37 184 37v2q106 0 183 -39q83 -42 139 -110q58 -70 88 -172q31 -105 31 -223q0 -167 -74 -297q-131 -230 -385 -230q-124 0 -209 49q-87 50 -145 158q-78 138 -78 330zM211 524q0 -123 20 -202q21 -83 62 -142 q35 -51 98 -80q65 -30 129 -30q146 0 228 114q81 112 81 318q0 186 -55 280q-42 73 -110 115q-70 43 -146 43l-4 -2q-53 0 -111 -25q-51 -22 -100 -71q-43 -46 -67 -131q-25 -89 -25 -187zM264 1309q0 39 31 67q32 29 72 29l-2 -2q38 0 67 -29t29 -67q0 -39 -31 -70t-70 -31 t-67 31q-29 32 -29 72zM573 1311q0 39 31 67q32 29 72 29l-2 2q38 0 69 -31t31 -69q0 -39 -31 -70t-69 -31q-39 0 -70 31t-31 72z" />
<glyph unicode="&#xf7;" d="M137 625v112h928v-112h-928zM518 971q0 34 25 59t59 25h2q33 0 58 -25q24 -24 24 -59q0 -36 -24 -60t-60 -24q-35 0 -59 24q-25 25 -25 60zM520 412q0 34 25 59t59 25h2q33 0 58 -25q24 -24 24 -59q0 -36 -24 -60t-60 -24q-35 0 -59 24q-25 25 -25 60z" />
<glyph unicode="&#xf8;" horiz-adv-x="1054" d="M18 -49l154 205l-6 4q-47 78 -68 159q-20 79 -20 195q0 122 33 217q34 98 92 168q60 72 141 109q79 36 184 36q143 0 258 -86l101 129h139l-162 -210q53 -71 80 -166t27 -209q0 -170 -74 -303q-67 -116 -162 -172t-227 -56q-79 0 -146 23q-61 21 -120 74l-90 -117h-134z M213 510q0 -69 10 -131q8 -52 31 -115l444 608h-4q-90 72 -184 72q-65 0 -133 -41t-105 -104q-59 -103 -59 -289zM317 162q82 -88 203 -88q68 0 123 30q54 29 96 84q41 53 62 127q22 77 22 164q0 105 -12 178q-11 65 -41 131z" />
<glyph unicode="&#xf9;" horiz-adv-x="1110" d="M168 393v615h119v-639q0 -183 82 -250q68 -56 143 -56q66 0 121 27q53 26 98 74q46 49 68 106q24 62 24 129v611h121v-1010h-104v176q-58 -104 -140 -158q-80 -53 -178 -53q-47 0 -100 15q-50 14 -92 36q-75 45 -119 146q-43 98 -43 231zM240 1366l59 104l397 -231 l-43 -68z" />
<glyph unicode="&#xfa;" horiz-adv-x="1110" d="M168 393v615h119v-639q0 -183 82 -250q68 -56 143 -56q66 0 121 27q53 26 98 74q46 49 68 106q24 62 24 129v611h121v-1010h-104v176q-58 -104 -140 -158q-80 -53 -178 -53q-47 0 -100 15q-50 14 -92 36q-75 45 -119 146q-43 98 -43 231zM420 1239l397 231l60 -104 l-414 -195z" />
<glyph unicode="&#xfb;" horiz-adv-x="1110" d="M168 393v615h119v-639q0 -183 82 -250q68 -56 143 -56q66 0 121 27q53 26 98 74q46 49 68 106q24 62 24 129v611h121v-1010h-104v176q-58 -104 -140 -158q-80 -53 -178 -53q-47 0 -100 15q-50 14 -92 36q-75 45 -119 146q-43 98 -43 231zM233 1198l326 246l322 -246 l-123 -20l-203 135l-193 -135z" />
<glyph unicode="&#xfc;" horiz-adv-x="1110" d="M164 399v615h119v-639q0 -183 82 -250q67 -55 143 -55q68 0 121 26t98 74q46 49 68 106q24 62 24 130v610h121v-1010h-104v176q-57 -102 -140 -157q-82 -54 -178 -54q-48 0 -100 15q-46 13 -92 37q-75 46 -119 145q-43 98 -43 231zM297 1309q0 39 31 67q32 29 71 29l-2 4 q39 0 68 -29t29 -67q0 -39 -31 -70t-70 -31q-38 0 -67 29t-29 68zM606 1317q0 39 31 67q32 29 72 29l-2 2q38 0 69 -31t31 -69q0 -39 -31 -70t-69 -31q-39 0 -70 31t-31 72z" />
<glyph unicode="&#xfd;" horiz-adv-x="823" d="M12 -238q32 -11 56 -18q21 -6 43 -6q45 0 79 12q35 12 62 47q30 38 55 90q29 60 55 142l-339 981h120l283 -805l309 805h107l-412 -1119v-2q-18 -49 -43 -98q-20 -39 -55 -74q-18 -19 -43 -36q-24 -17 -45 -25q-24 -9 -51 -12q-36 -4 -68 -4q-31 0 -55 6q-22 6 -58 18v98 zM317 1237l398 231l57 -104l-414 -195z" />
<glyph unicode="&#xfe;" horiz-adv-x="1091" d="M168 -342v1708h121v-545q64 116 135 166q70 49 176 49q93 0 164 -39q75 -41 129 -110q56 -71 86 -170q31 -102 31 -217q0 -113 -31 -215q-29 -96 -86 -168q-56 -71 -131 -111q-74 -39 -168 -39q-63 0 -127 25q-62 24 -98 63q-7 7 -15 19t-14 18q-5 5 -21 25q-8 10 -30 43 v-502h-121zM285 340q0 -42 28 -90q24 -41 72 -86q49 -45 94 -66q53 -24 99 -24q30 0 71 12q39 11 74 33q76 46 113 137q36 88 36 246q0 198 -77 313t-213 115q-58 0 -117 -27q-60 -28 -86 -67q-9 -14 -30.5 -47t-29.5 -46q-7 -12 -17 -28t-13 -21v-354h-4z" />
<glyph unicode="&#xff;" horiz-adv-x="823" d="M12 -238q32 -11 56 -18q21 -6 43 -6q45 0 79 12q35 12 62 47q30 38 55 90q29 60 55 142l-339 981h120l283 -805l309 805h107l-412 -1119v-2q-18 -49 -43 -98q-20 -39 -55 -74q-18 -19 -43 -36q-24 -17 -45 -25q-24 -9 -51 -12q-36 -4 -68 -4q-31 0 -55 6q-22 6 -58 18v98 zM172 1307q0 39 31 67q32 29 71 29l-2 -2q39 0 68 -29t29 -67q0 -39 -31 -70t-70 -31t-67 31q-29 32 -29 72zM481 1309q0 39 31 67q32 29 74 29l-4 2q38 0 69 -31t31 -69q0 -39 -31 -70t-69 -31q-39 0 -70 31t-31 72z" />
<glyph unicode="&#x152;" horiz-adv-x="1996" d="M88 682q0 161 45 289q46 131 127 227q80 95 195 148t245 53q60 0 117 -13q51 -12 98 -36q41 -21 86 -66q40 -40 80 -98v180h844v-111h-696v-481h563v-104h-563v-561h696v-109h-844v180q-75 -112 -168 -162q-91 -49 -227 -49q-128 0 -242 54q-109 51 -190 145 q-79 91 -123 225q-43 130 -43 289zM221 676q0 -151 49 -285t129 -211q109 -106 285 -106q160 0 270 96q25 25 35 37q16 20 31 43q18 28 31 55q13 26 30 72v629l-6 -7q-22 75 -45 115q-23 39 -67 74q-50 44 -123 69t-148 25q-198 0 -319 -139q-70 -82 -111 -209 q-41 -128 -41 -258z" />
<glyph unicode="&#x153;" horiz-adv-x="1757" d="M80 496q0 136 43 243q44 109 123 179q67 61 141 90q77 30 158 30q101 0 186 -43q88 -45 176 -139q88 95 172 141q79 43 176 43q249 0 363 -249q16 -40 24 -64q13 -39 17 -59q4 -22 8 -74q3 -46 6 -94h-717v-27q0 -218 109 -313q98 -82 209 -82q52 0 102 18q49 18 82 51 q30 30 47 58q24 39 47 90l107 -25l-8 -10q-24 -66 -52 -113q-23 -39 -57 -73q-52 -52 -131 -82q-82 -31 -156 -31q-103 0 -186 45q-85 46 -168 141q-82 -94 -172 -141q-86 -45 -194 -45q-106 0 -185 39q-81 40 -143 111q-59 68 -94 168q-33 95 -33 217zM219 483 q0 -188 60 -293q37 -64 104 -104q65 -39 145 -39q134 0 222 94q39 45 67 142q29 102 29 196q0 217 -80 332q-79 113 -231 113l-3 -6q-154 0 -233 -111q-80 -112 -80 -324zM952 590h578l2 -4q-6 156 -80 245q-76 91 -197 91q-65 0 -129 -31q-58 -28 -100 -86q-34 -46 -49 -92 q-17 -51 -25 -123zM1665 481q2 -6 2 -18v18h-2z" />
<glyph unicode="&#x178;" horiz-adv-x="1009" d="M-14 1366h151l381 -661l393 661h117l-465 -793v-573h-125v573zM264 1628q0 39 29 68q28 28 67 28l5 -2q39 0 67 -28q29 -29 29 -68t-31 -70q-30 -30 -70 -30t-67 30q-29 32 -29 72zM569 1630q0 40 31 68t72 28l-2 3q38 0 69 -31t31 -70q0 -38 -31 -69t-69 -31 q-39 0 -70 31t-31 71z" />
<glyph unicode="&#x2c6;" horiz-adv-x="1024" d="M188 1198l328 246l320 -246l-123 -20l-201 135l-193 -135z" />
<glyph unicode="&#x2dc;" horiz-adv-x="1024" d="M152 1247q35 62 98 99q62 36 137 36h31q13 0 31 -6q24 -8 49 -18q2 -1 33 -14t53 -21q15 -6 55 -6q41 0 68 8q22 7 69 31l80 -58q-12 -8 -16 -10q-10 -5 -11 -6q-8 -8 -20 -14q-8 -4 -21 -17q-58 -43 -129 -43h-30q-13 0 -31 6q-9 3 -45 19q-67 30 -80 35q-27 10 -74 10 q-37 0 -51 -2q-26 -4 -37 -8q-15 -6 -28 -19q-24 -24 -29 -30l-92 36z" />
<glyph unicode="&#x2000;" horiz-adv-x="906" />
<glyph unicode="&#x2001;" horiz-adv-x="1812" />
<glyph unicode="&#x2002;" horiz-adv-x="906" />
<glyph unicode="&#x2003;" horiz-adv-x="1812" />
<glyph unicode="&#x2004;" horiz-adv-x="604" />
<glyph unicode="&#x2005;" horiz-adv-x="453" />
<glyph unicode="&#x2006;" horiz-adv-x="302" />
<glyph unicode="&#x2007;" horiz-adv-x="302" />
<glyph unicode="&#x2008;" horiz-adv-x="226" />
<glyph unicode="&#x2009;" horiz-adv-x="362" />
<glyph unicode="&#x200a;" horiz-adv-x="100" />
<glyph unicode="&#x2010;" horiz-adv-x="522" d="M47 463v90h426v-90h-426z" />
<glyph unicode="&#x2011;" horiz-adv-x="522" d="M47 463v90h426v-90h-426z" />
<glyph unicode="&#x2012;" horiz-adv-x="522" d="M47 463v90h426v-90h-426z" />
<glyph unicode="&#x2013;" d="M209 465v90h782v-90h-782z" />
<glyph unicode="&#x2014;" horiz-adv-x="1366" d="M41 461v92h1284v-92h-1284z" />
<glyph unicode="&#x2018;" horiz-adv-x="522" d="M164 948v193l125 225h69l-94 -225h94v-193h-194z" />
<glyph unicode="&#x2019;" horiz-adv-x="522" d="M164 948l94 226h-94v192h194v-192l-125 -226h-69z" />
<glyph unicode="&#x201a;" horiz-adv-x="522" d="M164 0v193h194v-193l-125 -223h-69l94 223h-94z" />
<glyph unicode="&#x201c;" horiz-adv-x="847" d="M166 956v144l160 266h63l-110 -227h73v-183h-186zM471 956v144l168 266h74l-123 -227h72v-183h-191z" />
<glyph unicode="&#x201d;" horiz-adv-x="847" d="M150 956l122 228h-71v182h190v-143l-168 -267h-73zM473 956l111 228h-74v182h186v-143l-159 -267h-64z" />
<glyph unicode="&#x201e;" horiz-adv-x="847" d="M150 -225l122 225h-71v182h190v-143l-168 -264h-73zM473 -225l111 225h-74v182h186v-143l-159 -264h-64z" />
<glyph unicode="&#x2022;" horiz-adv-x="1366" d="M403 690q0 54 23 111q21 52 61 92t93 61q58 23 110 23l2 -4q55 0 109 -23q49 -21 86 -61q39 -42 59 -92q23 -57 23 -111t-23 -111q-21 -52 -59 -90t-90 -59q-57 -23 -111 -23t-111 23q-53 21 -90 61q-38 41 -59 93q-23 58 -23 110z" />
<glyph unicode="&#x2026;" horiz-adv-x="1529" d="M150 0v205h210v-205h-210zM659 0v205h209v-205h-209zM1169 0v205h211v-205h-211z" />
<glyph unicode="&#x202f;" horiz-adv-x="362" />
<glyph unicode="&#x2039;" horiz-adv-x="450" d="M86 537l178 276h88l-112 -276l112 -297h-88z" />
<glyph unicode="&#x203a;" horiz-adv-x="450" d="M98 240l111 282l-111 291h88l179 -291l-179 -282h-88z" />
<glyph unicode="&#x205f;" horiz-adv-x="453" />
<glyph unicode="&#x20ac;" d="M45 461l45 117h109q-3 28 -6 67q-3 42 0 60v6h-146l45 114h109q15 135 61 238q45 102 121 178q75 75 168 115q96 41 209 41q52 0 92 -6t78 -21q32 -13 74 -43q31 -22 79 -67l-51 -134q-28 45 -55 72q-29 29 -59 47q-32 19 -68 25q-38 6 -82 6q-120 0 -215 -62t-141 -172 q-35 -75 -56 -215h557l-53 -131h-524q-2 -10 -2 -30v-19v-37q0 -7 4 -43h463l-47 -116h-398q37 -180 142 -279q104 -98 252 -98q80 0 141 28q54 25 123 97v-140q-56 -53 -117 -75q-59 -21 -147 -21q-98 0 -185 35t-153 98q-68 64 -117 156q-48 90 -76 209h-174z" />
<glyph unicode="&#x2122;" horiz-adv-x="1591" d="M0 1286v80h582v-80h-244v-698h-96v698h-242zM688 588v778h133l275 -651l270 651h127v-778h-94v622l-266 -622h-84l-269 622v-622h-92z" />
<glyph unicode="&#x25fc;" horiz-adv-x="1013" d="M0 0v1014h1014v-1014h-1014z" />
<glyph unicode="&#xfb01;" horiz-adv-x="929" d="M16 911v103h177q3 50 6 86t6 59q3 21 10 43q13 38 14 41q24 69 93 111q68 41 157 41h37q29 0 43 -2v-99q-71 0 -117 -12t-73 -39t-39 -74q-13 -50 -13 -110v-49h242v-103l-248 4v-907h-118v907h-177zM633 1237v141h137v-141h-137zM641 0v1010h119v-1010h-119z" />
<glyph unicode="&#xfb02;" horiz-adv-x="927" d="M16 911v103h177q3 50 6 86t6 59q3 21 10 43q13 38 14 41q24 69 93 111q68 41 157 41h37q29 0 43 -2v-99q-71 0 -117 -12t-73 -39t-39 -74q-13 -50 -13 -110v-49h242v-103l-248 4v-907h-118v907h-177zM635 4v1366h119v-1366h-119z" />
</font>
</defs>
</svg>
